<?xml version="1.0" encoding="UTF-8" standalone="no"?>
<!-- Created with Inkscape (http://www.inkscape.org/) -->

<svg
   xmlns:dc="http://purl.org/dc/elements/1.1/"
   xmlns:cc="http://creativecommons.org/ns#"
   xmlns:rdf="http://www.w3.org/1999/02/22-rdf-syntax-ns#"
   xmlns:svg="http://www.w3.org/2000/svg"
   xmlns="http://www.w3.org/2000/svg"
   xmlns:sodipodi="http://sodipodi.sourceforge.net/DTD/sodipodi-0.dtd"
   xmlns:inkscape="http://www.inkscape.org/namespaces/inkscape"
   width="217.01744mm"
   height="33.853001mm"
   viewBox="0 0 768.95944 119.95158"
   id="svg5455"
   version="1.1"
   inkscape:version="0.91 r13725"
   sodipodi:docname="single.svg">
  <defs
     id="defs5457" />
  <sodipodi:namedview
     id="base"
     pagecolor="#ffffff"
     bordercolor="#666666"
     borderopacity="1.0"
     inkscape:pageopacity="0.0"
     inkscape:pageshadow="2"
     inkscape:zoom="0.98994949"
     inkscape:cx="292.97407"
     inkscape:cy="84.295507"
     inkscape:document-units="px"
     inkscape:current-layer="layer1"
     showgrid="false"
     fit-margin-top="0"
     fit-margin-left="0"
     fit-margin-right="0"
     fit-margin-bottom="0"
     inkscape:window-width="1858"
     inkscape:window-height="1058"
     inkscape:window-x="54"
     inkscape:window-y="-8"
     inkscape:window-maximized="1" />
  <metadata
     id="metadata5460">
    <rdf:RDF>
      <cc:Work
         rdf:about="">
        <dc:format>image/svg+xml</dc:format>
        <dc:type
           rdf:resource="http://purl.org/dc/dcmitype/StillImage" />
        <dc:title></dc:title>
      </cc:Work>
    </rdf:RDF>
  </metadata>
  <g
     inkscape:label="Layer 1"
     inkscape:groupmode="layer"
     id="layer1"
     transform="translate(-51.069509,-352.81781)">
    <g
       id="g6022"
       transform="translate(-37.857143,-283.57143)">
      <path
         style="fill:#ef2929;stroke:#ef2929"
         d="m 404.70048,755.50327 c -0.11782,-0.31176 -0.51394,-1.73457 -1.22832,-4.41205 -0.15769,-0.59101 -0.28671,-1.19372 -0.28671,-1.33936 0,-0.14564 -0.13002,-0.70834 -0.28893,-1.25045 -0.15891,-0.5421 -0.39877,-1.49189 -0.53304,-2.11064 -0.36583,-1.68607 -0.52234,-2.22878 -0.66888,-2.31934 -0.0729,-0.0451 -41.21641,-4.20062 -91.43,-9.23456 -50.21358,-5.03393 -91.69119,-9.19377 -92.17246,-9.24407 -0.78921,-0.0825 -0.8918,-0.0601 -1.04613,0.22826 -0.1208,0.22572 -0.31287,0.31888 -0.65333,0.31687 -0.84117,-0.005 -126.864267,-12.55421 -126.951794,-12.64173 -0.04603,-0.046 0.02978,-1.18546 0.168465,-2.53207 0.138689,-1.3466 0.341476,-3.35961 0.450638,-4.47336 0.109161,-1.11375 0.381384,-3.88125 0.604938,-6.15 l 0.406464,-4.125 -0.849927,-8.38054 c -0.46746,-4.6093 -0.815433,-8.41503 -0.773274,-8.45719 0.0832,-0.0832 126.15167,-12.77919 126.94449,-12.78421 0.34032,-0.002 0.53248,0.0909 0.65302,0.31607 0.15521,0.29001 0.25489,0.31051 1.09277,0.22478 0.5071,-0.0519 41.99574,-4.17801 92.19699,-9.16916 78.36567,-7.79133 91.30124,-9.11031 91.46059,-9.32584 0.10207,-0.13807 0.22419,-0.49243 0.27138,-0.78747 0.10588,-0.66205 0.52152,-2.45398 1.27257,-5.48644 0.10216,-0.4125 0.25042,-1.02 0.32944,-1.35 0.079,-0.33 0.36023,-1.37625 0.6249,-2.325 l 0.4812,-1.725 25.90496,-0.0379 25.90495,-0.0379 0,5.98206 c 0,4.60583 0.0431,6.01648 0.1875,6.1317 0.18972,0.15142 375.31159,4.2308 380.06249,4.13311 1.27875,-0.0263 6.00375,-0.18257 10.5,-0.34727 4.49625,-0.16471 8.42684,-0.2993 8.73464,-0.29911 0.472,3e-4 0.57439,-0.0584 0.65377,-0.37464 0.0589,-0.23466 0.2003,-0.375 0.37785,-0.375 0.27768,0 0.28374,0.95393 0.28374,44.7 0,43.60667 -0.007,44.7 -0.28125,44.7 -0.19249,0 -0.30964,-0.142 -0.37125,-0.45 -0.0832,-0.41587 -0.13864,-0.44997 -0.73125,-0.44964 -0.35269,1.5e-4 -4.32,-0.1344 -8.81625,-0.29911 -4.49625,-0.1647 -9.22125,-0.32051 -10.5,-0.34624 -4.77552,-0.0961 -379.72353,3.98271 -379.91249,4.13279 -0.14437,0.11468 -0.1875,1.52469 -0.1875,6.13057 l 0,5.98163 -25.87872,0 -25.8787,0 -0.12755,-0.3375 z m 51.10497,-0.4425 c 0.26502,-0.26502 0.25782,-11.12377 -0.008,-11.32661 -0.28947,-0.2213 -50.10367,0.23204 -50.24698,0.45728 -0.19971,0.31389 -0.1383,10.66655 0.0645,10.86933 0.26177,0.26177 49.92824,0.26177 50.19,0 z m -50.97229,-6.84135 c -0.003,-4.43766 0.0454,-4.26029 -1.13663,-4.19934 l -0.88608,0.0457 0.0153,0.525 c 0.0135,0.46264 0.26874,1.66972 0.82479,3.9 0.54932,2.20329 0.735,2.96994 0.80987,3.34364 0.24261,1.21098 0.37489,-0.0718 0.37278,-3.61499 z m -0.17771,-5.00865 c 0.19043,-0.19042 0.27255,-8.25427 0.089,-8.73273 -0.0766,-0.19953 -0.40138,-0.23727 -2.04228,-0.23727 l -1.95123,0 0.10281,0.8625 c 0.0565,0.47437 0.16082,1.09875 0.23172,1.3875 0.14664,0.59726 0.33825,1.5789 0.68804,3.525 0.2886,1.60568 0.64062,2.92814 0.84847,3.1875 0.19388,0.24193 1.79319,0.24783 2.03352,0.007 z m -3.09535,-0.0446 c 0.0411,-0.0411 -0.0176,-0.49669 -0.13026,-1.0125 -0.11271,-0.51582 -0.30224,-1.5116 -0.42117,-2.21285 -0.11892,-0.70125 -0.3455,-1.91625 -0.50348,-2.7 -0.15799,-0.78375 -0.33162,-1.7401 -0.38584,-2.12523 -0.0542,-0.38513 -0.18224,-0.76965 -0.28446,-0.8545 -0.33245,-0.27589 -179.67542,-18.07008 -179.82035,-17.84156 -0.15916,0.25096 -0.16423,8.2337 -0.005,8.48386 0.084,0.1322 26.75218,2.86199 90.3352,9.24679 91.61089,9.19927 91.0845,9.14724 91.21575,9.01599 z m 32.90035,-0.0926 c 13.42575,-0.10995 21.21848,-0.22732 21.3375,-0.32135 0.14132,-0.11164 0.1875,-1.09979 0.1875,-4.0114 0,-2.91219 -0.0461,-3.89947 -0.1875,-4.01032 -0.32499,-0.25488 -50.06922,-0.5703 -50.22877,-0.31849 -0.15032,0.23724 -0.18255,8.57998 -0.0337,8.72881 0.14091,0.14092 4.84221,0.12999 28.92499,-0.0673 z m 190.65,-2.01471 c 89.3475,-0.94879 163.125,-1.77654 163.95,-1.83945 l 1.5,-0.11438 -1.875,-0.10277 c -2.34003,-0.12826 -327.39919,-4.34567 -330.075,-4.28249 l -1.95,0.0461 -0.0401,3.88153 c -0.0261,2.52991 0.0144,3.94711 0.11622,4.06985 0.11878,0.14314 0.84813,0.17374 3.04006,0.12752 1.58609,-0.0334 75.98628,-0.83708 165.33378,-1.78586 z m 231.48749,-2.6503 c 0.14834,-0.12221 0.1875,-4.45451 0.1875,-20.74274 0,-16.29495 -0.0391,-20.61785 -0.1875,-20.73014 -0.25758,-0.19489 -399.5696,8.48455 -399.82499,8.6906 -0.2097,0.16918 -0.28054,18.93809 -0.0727,19.26048 0.0784,0.12164 54.19743,2.14238 187.6102,7.00517 l 187.49999,6.83423 12.3,-0.0816 c 8.09627,-0.0537 12.36408,-0.13436 12.4875,-0.23603 z m -63.18749,-0.26084 c 0.41249,-0.0643 0.62386,-0.12583 0.46969,-0.13686 -1.6602,-0.1187 -335.39705,-12.16786 -336.16969,-12.13699 l -1.05,0.042 -0.04,3.84207 c -0.0308,2.96146 0.004,3.87583 0.15,3.98941 0.31574,0.24487 335.21406,4.62252 336.63999,4.40042 z m -337.425,-8.3319 c 0,-2.84931 -0.0465,-3.82605 -0.1875,-3.9407 -0.21579,-0.17543 -49.6914,-1.50124 -50.10465,-1.34266 -0.33705,0.12934 -0.40156,8.50235 -0.0676,8.77949 0.24438,0.20282 49.89721,0.62577 50.17228,0.42738 0.14148,-0.10205 0.1875,-1.06502 0.1875,-3.92351 z m -51.33,3.495 c 0.13146,-0.13146 0.18,-1.31667 0.18,-4.395 0,-3.07833 -0.0485,-4.26354 -0.18,-4.395 -0.12621,-0.12621 -0.96004,-0.18 -2.79022,-0.18 l -2.61023,0 0.10419,1.0875 c 0.19802,2.06691 1.11144,7.6389 1.28691,7.85033 0.23181,0.27931 3.73412,0.30741 4.00935,0.0322 z m -5.09502,-0.16485 c 0.11723,-0.14125 0.0443,-0.97672 -0.26514,-3.0375 -0.23476,-1.56346 -0.47167,-3.2814 -0.52645,-3.81765 -0.19061,-1.86576 -0.28394,-2.04886 -1.09649,-2.151 -2.99053,-0.37591 -177.40921,-17.65334 -177.57424,-17.59002 -0.30394,0.11664 -0.31724,8.51749 -0.0139,8.76925 0.13492,0.11197 171.33677,17.32043 179.14536,18.0069 0.093,0.008 0.24189,-0.0728 0.33084,-0.17998 z m 56.42502,-17.88015 c 0,-7.41583 -0.0409,-9.51889 -0.1875,-9.62849 -0.22896,-0.17122 -49.89877,0.57107 -50.175,0.74984 -0.21067,0.13635 -0.27994,16.8261 -0.0712,17.15425 0.14359,0.22574 49.95891,1.56655 50.2462,1.35242 0.14655,-0.10923 0.1875,-2.21194 0.1875,-9.62802 z m -236.73287,5.55 c 0.0479,-4.60552 0.042,-4.65854 -0.52801,-4.7714 -0.62919,-0.12457 -0.75219,0.12969 -0.92949,1.9214 -0.0898,0.9075 -0.26358,2.595 -0.38617,3.75 -0.35651,3.35881 -0.40997,3.21784 1.20155,3.16841 l 0.6,-0.0184 0.0421,-4.05 z m -2.97971,3.76517 c 0.15844,-0.19091 0.26218,-1.02648 0.76542,-6.16517 0.0889,-0.9075 0.18265,-1.80145 0.2084,-1.98655 0.075,-0.53928 -0.17915,-0.62077 -2.69866,-0.86521 -1.31316,-0.1274 -3.0457,-0.29725 -3.85007,-0.37744 -0.80438,-0.0802 -2.12063,-0.21117 -2.925,-0.29108 -0.80438,-0.0799 -3.15,-0.31524 -5.2125,-0.52297 -2.0625,-0.20773 -7.8675,-0.78285 -12.9,-1.27803 -5.0325,-0.49519 -9.79125,-0.97073 -10.575,-1.05675 -0.78375,-0.086 -8.58,-0.86434 -17.325,-1.72957 -8.745,-0.86523 -19.62126,-1.94311 -24.16946,-2.39528 l -8.26946,-0.82212 -7.93054,0.002 c -4.3618,0.001 -8.02088,0.0595 -8.13129,0.12954 -0.20453,0.12964 1.08763,0.46792 4.92575,1.28956 1.03125,0.22077 2.6175,0.56156 3.525,0.75732 2.84407,0.61352 5.04338,1.07936 6.675,1.41387 0.86625,0.17759 2.1825,0.44744 2.925,0.59966 0.7425,0.15222 2.05875,0.42198 2.925,0.59946 0.86625,0.17748 2.1825,0.45182 2.925,0.60965 0.7425,0.15783 1.92375,0.39371 2.625,0.52418 0.70125,0.13048 1.8825,0.363 2.625,0.51672 1.32708,0.27475 2.72503,0.55008 5.1,1.00444 0.66,0.12627 1.63875,0.31938 2.175,0.42913 0.53625,0.10976 1.48125,0.27813 2.1,0.37417 0.61875,0.096 1.56375,0.26648 2.1,0.37877 0.53625,0.11229 1.4475,0.2819 2.025,0.3769 0.5775,0.095 1.48875,0.26121 2.025,0.36933 0.53625,0.10812 1.4475,0.27453 2.025,0.3698 0.5775,0.0953 1.35375,0.23092 1.725,0.30143 0.37125,0.0705 1.18125,0.207 1.8,0.30329 0.61875,0.0963 1.56375,0.26591 2.1,0.37692 1.37588,0.2848 2.60691,0.49962 3.825,0.66747 1.21135,0.16692 2.46765,0.37042 3.75,0.60746 0.495,0.0915 1.54125,0.26062 2.325,0.37582 0.78375,0.11522 1.86375,0.28276 2.4,0.37234 0.53625,0.0896 1.88625,0.29756 3,0.46219 1.11375,0.16464 2.7,0.40103 3.525,0.52531 6.7756,1.02074 21.04767,2.83471 27.75,3.52701 0.9075,0.0937 2.055,0.22185 2.55,0.28468 1.33857,0.16992 1.37389,0.1686 1.56241,-0.0585 z m 188.39547,-1.04456 c 0.12277,-0.14793 0.15892,-2.54055 0.13087,-8.6625 l -0.0388,-8.45811 -3.39184,-0.0403 c -2.66061,-0.0316 -3.42717,0.002 -3.55572,0.15721 -0.21852,0.2633 0.17475,6.69857 0.73536,12.03305 0.078,0.7425 0.2178,2.0925 0.3106,3 0.2196,2.14743 0.0364,2.00892 2.7293,2.06288 1.24977,0.025 2.41591,0.0605 2.59144,0.0788 0.17552,0.0183 0.39546,-0.0587 0.48875,-0.1711 z m -206.79538,-0.045 c -0.10313,-0.0416 -0.27188,-0.0416 -0.375,0 -0.10313,0.0416 -0.0187,0.0757 0.1875,0.0757 0.20625,0 0.29062,-0.0341 0.1875,-0.0757 z m -1.3875,-0.20988 c -1.09201,-0.19273 -4.64096,-0.71895 -8.025,-1.18992 -1.7325,-0.24111 -3.825,-0.53995 -4.65,-0.66409 -0.825,-0.12414 -2.41125,-0.36041 -3.525,-0.52504 -1.11375,-0.16464 -2.46375,-0.37263 -3,-0.4622 -0.53625,-0.0896 -1.61625,-0.25712 -2.4,-0.37233 -0.78375,-0.11521 -1.83,-0.28434 -2.325,-0.37583 -1.28235,-0.23703 -2.53865,-0.44054 -3.75,-0.60746 -1.21809,-0.16785 -2.44912,-0.38267 -3.825,-0.66747 -0.53625,-0.11101 -1.48125,-0.28062 -2.1,-0.37691 -0.61875,-0.0963 -1.42875,-0.23278 -1.8,-0.3033 -0.37125,-0.0705 -1.1475,-0.20615 -1.725,-0.30142 -0.5775,-0.0953 -1.48875,-0.26169 -2.025,-0.36981 -0.53625,-0.10812 -1.4475,-0.27432 -2.025,-0.36933 -0.5775,-0.095 -1.48875,-0.26461 -2.025,-0.3769 -0.53625,-0.11228 -1.48125,-0.28273 -2.1,-0.37877 -0.61875,-0.096 -1.56375,-0.26441 -2.1,-0.37416 -0.53625,-0.10976 -1.53187,-0.30672 -2.2125,-0.4377 -3.05624,-0.58814 -3.79511,-0.73348 -5.0625,-0.99588 -0.7425,-0.15372 -1.92375,-0.38762 -2.625,-0.51977 -0.70125,-0.13216 -1.8825,-0.36842 -2.625,-0.52502 -0.7425,-0.15661 -2.05875,-0.42957 -2.925,-0.60659 -0.86625,-0.17702 -2.1825,-0.44641 -2.925,-0.59863 -0.7425,-0.15222 -2.05875,-0.42207 -2.925,-0.59966 -1.72401,-0.35345 -4.11551,-0.86076 -6.675,-1.41597 -1.90804,-0.4139 -4.30871,-0.92711 -6.975,-1.4911 -1.03125,-0.21813 -2.71875,-0.59875 -3.75,-0.8458 l -1.875,-0.4492 -8.35774,0.005 -8.35774,0.005 -0.04226,-1.7625 c -0.03943,-1.64424 -0.06225,-1.7625 -0.340196,-1.7625 -0.359322,0 -0.360738,0.008 -0.898798,5.31325 -0.222401,2.1927 -0.330726,3.86929 -0.254897,3.94512 0.154875,0.15488 104.675041,10.58828 106.001631,10.58129 l 0.9,-0.005 -0.675,-0.11913 z m 201.78904,-0.59078 c -0.0198,-0.37125 -0.13493,-1.58625 -0.25586,-2.7 -0.36276,-3.34064 -0.51075,-5.1284 -0.76986,-9.3 -0.13579,-2.18625 -0.3151,-4.05937 -0.39847,-4.1625 -0.19572,-0.24209 -167.89029,-0.27951 -168.03985,-0.0375 -0.0513,0.083 0.062,0.15268 0.25365,0.15601 0.19048,0.003 38.1126,3.77792 84.27135,8.38805 46.15875,4.61013 84.16124,8.37055 84.44999,8.35649 0.52422,-0.0255 0.52494,-0.0266 0.48905,-0.70055 z m -179.16904,-7.53 c 0.22141,-0.22141 0.25994,-7.70289 0.0404,-7.83859 -0.25456,-0.15734 -0.31379,0.17225 -0.68429,3.80803 -0.41709,4.09302 -0.42342,4.02341 0.38143,4.19316 0.0454,0.01 0.1635,-0.0636 0.2625,-0.1626 z m -1.70403,-0.4575 c 0.16933,-0.79717 0.71639,-7.1618 0.63403,-7.37643 -0.10787,-0.28111 -77.54875,-0.37125 -77.72228,-0.0905 -0.13261,0.21456 0.0489,0.23845 6.82228,0.8978 10.13004,0.98611 47.86318,4.73767 58.8,5.8461 11.89741,1.2058 11.37048,1.17257 11.46597,0.723 z M 103.9109,706.35912 c 0.20473,-0.12977 -1.44415,-0.55731 -5.825443,-1.51048 -1.196248,-0.26026 -2.894765,-0.6461 -3.77448,-0.85743 -0.879716,-0.21133 -1.672841,-0.3389 -1.7625,-0.28348 -0.227252,0.14044 -0.212684,2.37337 0.01698,2.60304 0.21312,0.21312 11.012893,0.25915 11.345443,0.0484 z m 16.07456,-0.0183 c 0.12375,-0.08 0.19125,-0.14826 0.15,-0.15174 -0.0412,-0.003 -4.69875,-0.46925 -10.35,-1.03504 -9.33612,-0.9347 -12.309673,-1.12158 -9.814023,-0.61678 1.376263,0.27838 4.755263,1.04189 6.664023,1.50579 l 1.725,0.41923 5.7,0.012 c 3.44694,0.007 5.78894,-0.0455 5.925,-0.13343 z m 80.82518,0.0185 c 0.33937,-0.21512 -0.36443,-0.31425 -2.24671,-0.31646 -1.89501,-0.002 -13.98716,-0.50006 -18.35347,-0.75561 -6.17464,-0.3614 -10.16338,-0.60964 -12,-0.74683 -9.21183,-0.68811 -15.15799,-1.17897 -20.175,-1.66545 -3.12277,-0.30281 -3.75039,-0.30976 -19.8,-0.21939 -28.06147,0.158 -33.169717,0.36674 -25.65,1.04813 2.6693,0.24188 14.56479,1.4265 22.575,2.24815 l 4.95,0.50774 35.25,0.0133 c 19.3875,0.007 35.34008,-0.0438 35.45018,-0.11359 z m 8.94387,-0.75888 c 0.12697,-0.20545 -1.34591,-0.34935 -10.86905,-1.0619 -12.80117,-0.95782 -41.1908,-2.10757 -41.45573,-1.67891 -0.10928,0.17681 0.47333,0.28123 2.23073,0.3998 0.66,0.0445 2.55,0.18356 4.2,0.30896 6.7191,0.51066 6.28441,0.48198 17.025,1.12354 4.1263,0.24648 16.71584,0.75063 21.975,0.87999 2.7225,0.067 5.36789,0.13237 5.87865,0.14533 0.51075,0.013 0.96768,-0.0396 1.0154,-0.11681 z m 187.08141,-0.0471 c 0.21911,-0.2994 -0.009,-8.29646 -0.24466,-8.5805 -0.25635,-0.30889 -176.21708,-0.36072 -176.5258,-0.052 -0.19041,0.19041 -0.27243,8.1046 -0.0889,8.58273 0.12291,0.32031 176.6251,0.36998 176.85941,0.0498 z m 7.88474,-0.16504 c 0.19801,-0.30989 0.13675,-8.2655 -0.0652,-8.46746 -0.26224,-0.26224 -6.92616,-0.25523 -7.1256,0.008 -0.19867,0.26171 0.007,8.28757 0.21861,8.54305 0.21599,0.2604 6.80286,0.18191 6.9722,-0.0831 z m 28.98979,-0.26805 c 13.85673,-0.2004 21.96887,-0.37171 22.0875,-0.46644 0.26321,-0.21015 0.27026,-7.47022 0.008,-7.73297 -0.26176,-0.26177 -49.92823,-0.26177 -50.19,0 -0.19401,0.19401 -0.27055,7.95949 -0.0833,8.44756 0.0879,0.22902 0.37954,0.24369 3.1875,0.16033 1.69992,-0.0505 12.94576,-0.23428 24.99076,-0.40848 z m -214.42499,-4.08326 c 0,-2.86145 -0.0491,-3.9853 -0.18,-4.11615 -0.21547,-0.21547 -78.4442,-0.2452 -78.945,-0.03 -0.165,0.0709 -0.24322,0.13366 -0.17382,0.13946 2.73676,0.22867 78.19172,7.84715 78.54882,7.93085 0.28875,0.0677 0.57562,0.0981 0.6375,0.0675 0.0619,-0.0305 0.1125,-1.8268 0.1125,-3.99168 z m 417.55694,-0.17724 c 195.1214,-4.22704 177.45155,-3.82692 175.61804,-3.97679 -2.48683,-0.20328 -355.49142,-0.16569 -355.69499,0.0379 -0.22338,0.22338 -0.25876,7.4812 -0.0376,7.7025 0.0795,0.0795 0.9578,0.12324 1.9875,0.0989 1.01478,-0.024 81.17193,-1.7621 178.12701,-3.8625 z m -439.68194,2.78109 c 0.165,-0.0709 0.24191,-0.13366 0.17091,-0.13946 -0.071,-0.006 -15.24129,-1.53001 -33.71175,-3.38713 l -33.58265,-3.37659 -8.19689,0.82272 c -4.50829,0.4525 -8.22909,0.85494 -8.26845,0.8943 -0.11176,0.11175 0.4341,0.19674 3.41383,0.53156 1.52625,0.17149 3.9225,0.44364 5.325,0.60478 1.4025,0.16113 3.51188,0.39576 4.6875,0.52139 1.17563,0.12564 3.09938,0.33147 4.275,0.4574 3.25182,0.34833 4.68814,0.49886 6.4125,0.67204 0.86625,0.087 2.21625,0.22488 3,0.3064 3.47183,0.36113 4.9211,0.44235 7.8953,0.44246 10.50322,4.5e-4 33.6974,0.78927 44.067,1.49875 1.16199,0.0795 2.40282,0.13809 2.75742,0.13018 0.35459,-0.008 0.68647,0.0274 0.7375,0.0784 0.12783,0.12783 0.65627,0.0981 1.01778,-0.0572 z m 1.675,0.05 c -0.055,-0.055 -0.145,-0.055 -0.2,0 -0.055,0.055 -0.01,0.1 0.1,0.1 0.11,0 0.155,-0.045 0.1,-0.1 z m -94.51037,-1.40092 c 4.62805,-0.0831 13.40305,-0.1901 19.5,-0.2377 6.09695,-0.0476 11.18662,-0.12295 11.31037,-0.16745 0.32331,-0.11625 -0.40023,-0.30168 -1.61894,-0.41489 -0.55333,-0.0514 -1.84981,-0.18705 -2.88106,-0.30143 -1.03125,-0.11439 -2.92125,-0.31772 -4.2,-0.45186 -1.27875,-0.13414 -3.43875,-0.37243 -4.8,-0.52952 -3.04178,-0.35104 -6.96627,-0.79346 -10.05,-1.13295 l -2.325,-0.25597 -8.27734,0.83121 c -9.35885,0.93982 -8.59766,0.7791 -8.59766,1.81533 0,1.05675 0.04695,1.08226 1.907551,1.03632 0.889596,-0.022 5.404026,-0.10795 10.032079,-0.19109 z m -12.61463,-0.74908 c 0,-1.05498 -0.309896,-1.16868 -0.448023,-0.16438 -0.108056,0.78567 -0.0184,1.11985 0.274269,1.0223 0.102712,-0.0342 0.173754,-0.38501 0.173754,-0.85792 z m 7.114967,-2.40259 c 3.335733,-0.33128 6.090003,-0.62737 6.120593,-0.65797 0.16749,-0.16748 -2.90868,-0.59279 -10.486017,-1.44977 -2.128423,-0.24072 -2.074543,-0.27333 -2.074543,1.25562 0,1.15999 0.05829,1.45491 0.2875,1.45459 0.04812,-7e-5 2.816733,-0.27118 6.152467,-0.60247 z m 15.835033,-1.57401 c 2.8875,-0.28754 5.3175,-0.52967 5.4,-0.53806 0.0825,-0.008 -0.0187,-0.0693 -0.225,-0.13534 -0.51382,-0.16455 -18.92354,-0.178 -19.18247,-0.014 -0.27387,0.17345 0.032,0.22992 3.28247,0.60595 1.44375,0.16703 3.13125,0.36312 3.75,0.43576 0.61875,0.0726 1.26,0.14027 1.425,0.1503 0.165,0.01 2.6625,-0.21705 5.55,-0.5046 z m 6.3,-1.5734 c 0.165,-0.0709 0.2325,-0.13388 0.15,-0.13995 -0.0825,-0.006 -2.74875,-0.27255 -5.925,-0.59217 -3.17625,-0.31963 -6.07875,-0.55081 -6.45,-0.51374 -1.13633,0.11347 -7.84211,0.93807 -8.38962,1.03166 -0.382533,0.0654 -0.459533,0.12283 -0.3,0.22379 0.27483,0.17392 20.50916,0.16464 20.91462,-0.01 z m 98.15916,-0.0559 c 0.28798,-0.34699 0.15839,-8.13589 -0.13416,-8.0631 -0.15775,0.0392 -78.33032,7.84663 -79.875,7.97741 -0.0825,0.007 -0.015,0.0707 0.15,0.14161 0.5544,0.23823 79.66101,0.18285 79.85916,-0.0559 z m 177.47032,-0.0245 c 0.23721,-0.28583 0.46932,-8.43637 0.24867,-8.7321 -0.15497,-0.2077 -175.10899,-0.27109 -176.27815,-0.0639 l -0.6,0.10635 -0.0399,4.25428 c -0.0282,3.01353 0.01,4.31429 0.13087,4.46002 0.27419,0.33037 176.26423,0.30577 176.53848,-0.0247 z m 8.06551,0.0504 c 0.20214,-0.20214 0.26325,-8.30696 0.065,-8.61854 -0.15849,-0.24906 -6.71469,-0.33175 -6.95866,-0.0878 -0.22469,0.22468 -0.44282,8.41978 -0.23156,8.69881 0.19893,0.26273 6.863,0.26975 7.12524,0.007 z m 51.15,0 c 0.26289,-0.26289 0.25584,-7.67274 -0.008,-7.8829 -0.2893,-0.23088 -50.10475,-0.95992 -50.24764,-0.73537 -0.19815,0.31138 -0.13689,8.41624 0.0651,8.61827 0.26177,0.26177 49.92824,0.26177 50.19,0 z m 357.40499,0.0379 1.35,-0.11035 -1.125,-0.0325 c -14.96148,-0.43157 -356.52663,-7.87271 -356.66249,-7.77004 -0.26341,0.19906 -0.27048,7.61199 -0.007,7.87496 0.20357,0.20357 353.95816,0.24116 356.44499,0.0379 z m 43.395,-0.0379 c 0.26831,-0.2683 0.2609,-41.41776 -0.008,-41.63511 -0.11995,-0.0972 -4.13215,-0.18986 -11.1375,-0.25738 l -10.95,-0.10553 -188.84999,6.93015 c -134.62255,4.94018 -188.88165,6.97935 -188.9602,7.10151 -0.20781,0.32315 -0.13698,18.94169 0.0727,19.11121 0.11979,0.0968 72.29,1.74916 199.8375,4.57525 109.8075,2.43302 199.68712,4.43182 199.73249,4.44178 0.0454,0.01 0.1635,-0.0629 0.2625,-0.16188 z m -760.844981,-0.3495 c 8.048171,-0.9282 9.419631,-1.12661 9.212501,-1.33278 -0.11382,-0.11329 -12.304257,-1.29514 -12.447276,-1.20675 -0.215694,0.13331 -0.174577,2.52416 0.04728,2.74893 0.103125,0.10448 0.35625,0.15849 0.5625,0.12003 0.20625,-0.0385 1.3875,-0.18671 2.624999,-0.32943 z m 69.489071,-3.07057 c 19.10521,-1.8975 34.80969,-3.4558 34.89884,-3.46289 0.0892,-0.007 -0.0404,-0.0738 -0.28791,-0.14814 -0.2872,-0.0863 -0.6286,-0.0767 -0.94369,0.0266 -0.27152,0.089 -0.58241,0.12776 -0.69086,0.0862 -0.10844,-0.0416 -1.60753,0.0164 -3.33131,0.12904 -12.55922,0.8203 -27.39662,1.37762 -39.95914,1.50095 -7.54024,0.074 -11.36086,0.21682 -13.8,0.51579 -0.61875,0.0758 -1.8675,0.20981 -2.775,0.29771 -1.66395,0.16117 -2.55691,0.25429 -6.525,0.6805 -1.19625,0.12849 -3.12,0.33486 -4.275,0.45861 -4.61213,0.49416 -6.42906,0.6969 -9.375,1.04613 -1.69125,0.20049 -3.32953,0.38254 -3.64063,0.40455 -0.3111,0.022 -0.57125,0.10753 -0.57812,0.19003 -0.0119,0.14326 13.98521,1.6582 15.74491,1.7041 0.44063,0.0115 16.43269,-1.5316 35.53791,-3.4291 z m -52.98907,1.12562 c 1.2375,-0.13614 3.63375,-0.40778 5.325,-0.60363 2.99226,-0.34651 5.05707,-0.57506 9.375,-1.0377 7.96033,-0.85289 7.725,-0.82263 7.725,-0.99348 0,-0.17069 2.02916,-0.12355 -12.45,-0.28921 -6.80625,-0.0779 -16.2062,-0.21913 -20.88878,-0.3139 -6.750834,-0.13663 -8.560104,-0.13386 -8.7375,0.0134 -0.264265,0.21932 -0.310603,1.57753 -0.05912,1.73296 0.195109,0.12058 16.90786,1.85124 17.2354,1.78478 0.12375,-0.0251 1.2375,-0.15704 2.475,-0.29319 z m -20.502879,-2.32016 c 0.05086,-0.69747 -0.156398,-1.08118 -0.434025,-0.80356 -0.213576,0.21358 -0.01594,1.58206 0.21741,1.50544 0.09322,-0.0306 0.190698,-0.34646 0.216615,-0.70188 z m 57.777879,-1.54547 c 2.18625,-0.21504 4.81875,-0.46148 5.85,-0.54764 13.67369,-1.14242 25.77239,-1.89681 36.3,-2.26341 5.30028,-0.18458 6.02964,-0.24335 5.68962,-0.45853 -0.12646,-0.08 -13.97185,-0.13676 -33.705,-0.13811 l -33.49038,-0.002 -14.95962,1.49789 c -16.870683,1.68924 -16.380503,1.63435 -16.078613,1.80037 0.12045,0.0662 5.686493,0.19943 12.368993,0.29596 26.09549,0.37699 32.64159,0.34528 38.025,-0.18423 z m 8.22882,0.24675 c 0.25647,-0.0513 0.42967,-0.15255 0.38489,-0.225 -0.15936,-0.25786 -2.01371,-0.0856 -2.01371,0.18701 0,0.15195 0.94839,0.17407 1.62882,0.038 z m 9.24618,-0.20526 c 10.09788,-0.30796 23.59667,-0.96872 30.75,-1.50521 1.155,-0.0866 3.34875,-0.2531 4.875,-0.36995 1.52625,-0.11686 3.3825,-0.25158 4.125,-0.29939 1.82105,-0.11725 2.49276,-0.22684 2.39178,-0.39022 -0.2681,-0.4338 -20.64145,0.30068 -35.84178,1.29213 -12.2318,0.79783 -14.775,1.01821 -14.775,1.28035 0,0.17972 2.40074,0.17754 8.475,-0.008 z m -75.257739,-2.29079 0.04226,-1.76069 8.100666,0 c 7.425263,0 8.203403,-0.0238 9.332743,-0.28491 1.32719,-0.30691 4.55243,-1.01772 7.26957,-1.60213 0.92813,-0.19963 2.44688,-0.52658 3.375,-0.72656 0.92813,-0.19999 2.53125,-0.54113 3.5625,-0.75811 1.03125,-0.21698 2.4825,-0.52262 3.225,-0.6792 0.7425,-0.15658 2.05875,-0.42755 2.925,-0.60215 0.86625,-0.17461 2.1825,-0.4444 2.925,-0.59954 2.56229,-0.53536 4.20425,-0.86998 5.475,-1.11578 0.70125,-0.13563 1.95,-0.3828 2.775,-0.54926 2.40032,-0.4843 3.5148,-0.70368 4.875,-0.9596 2.24228,-0.42188 3.64947,-0.69382 4.65,-0.8986 0.53625,-0.10975 1.48125,-0.27704 2.1,-0.37175 0.61875,-0.0947 1.53,-0.26331 2.025,-0.37466 0.495,-0.11135 1.40625,-0.28088 2.025,-0.37675 0.61875,-0.0959 1.42875,-0.24294 1.8,-0.32685 0.37125,-0.0839 1.04625,-0.21029 1.5,-0.28086 0.45375,-0.0706 1.23,-0.20254 1.725,-0.29329 0.495,-0.0908 1.305,-0.2315 1.8,-0.3128 1.90872,-0.31346 2.58055,-0.42781 3.45,-0.5872 0.495,-0.0908 1.27125,-0.22673 1.725,-0.30219 0.45375,-0.0755 1.23,-0.20471 1.725,-0.28721 0.495,-0.0825 1.33875,-0.22303 1.875,-0.3123 0.53625,-0.0893 1.5825,-0.25808 2.325,-0.37516 0.7425,-0.11707 1.78875,-0.28534 2.325,-0.37391 0.53625,-0.0886 1.88625,-0.29478 3,-0.45822 1.11375,-0.16344 2.66625,-0.39458 3.45,-0.51364 2.27593,-0.34575 6.51602,-0.9438 10.725,-1.51274 5.06526,-0.68467 4.92403,-0.66366 5.00517,-0.7448 0.2185,-0.2185 -108.207494,10.57485 -108.586961,10.80937 -0.102539,0.0634 -0.127748,0.40823 -0.06928,0.94771 0.05056,0.46645 0.15482,1.45559 0.231702,2.19809 0.694491,6.70722 0.622485,6.27032 1.020854,6.19399 0.211582,-0.0405 0.254794,-0.30927 0.290775,-1.8083 z m 1.858795,1.37531 c 0.439419,-0.0902 1.845193,-0.40008 3.123943,-0.68863 5.211821,-1.17604 6.251051,-1.40249 6.814621,-1.48491 1.58175,-0.23133 -0.29087,-0.35805 -5.322123,-0.36016 -6.276101,-0.003 -5.842497,-0.10859 -5.842497,1.4277 0,1.3991 -0.03741,1.36535 1.226056,1.106 z m 107.973944,-0.061 c 0,-0.0412 -0.0337,-0.075 -0.075,-0.075 -0.0413,0 -0.075,0.0338 -0.075,0.075 0,0.0412 0.0337,0.075 0.075,0.075 0.0412,0 0.075,-0.0337 0.075,-0.075 z m -99.7875,-0.37142 c 2.19242,-0.219 4.41126,-0.44593 5.8875,-0.60213 0.70125,-0.0742 2.05125,-0.20985 3,-0.30145 0.94875,-0.0916 2.29875,-0.229 3,-0.30534 0.70125,-0.0763 2.085,-0.20926 3.075,-0.29539 2.20262,-0.19162 2.56989,-0.26439 2.36556,-0.46871 -0.10032,-0.10032 -2.13046,-0.13474 -5.90919,-0.10018 l -5.75637,0.0526 -1.875,0.47507 c -2.07748,0.52636 -5.600923,1.32133 -6.514623,1.46984 -0.82287,0.13375 -0.38061,0.39023 0.51462,0.29844 0.37125,-0.0381 1.366883,-0.13832 2.212503,-0.22279 z m 354.00749,-1.38358 c 0.2669,-0.2669 0.25958,-18.9235 -0.008,-19.12409 -0.25768,-0.19354 -49.9215,0.98307 -50.175,1.18871 -0.14598,0.11843 -0.1875,2.02279 -0.1875,8.59989 0,6.59351 0.0412,8.47442 0.1875,8.56914 0.10313,0.0667 11.2575,0.29717 24.7875,0.51205 13.53,0.21489 24.73838,0.40051 24.9075,0.4125 0.16913,0.012 0.3885,-0.0592 0.4875,-0.1582 z m -146.37841,-9.64456 c 48.87663,-4.90799 88.91758,-8.97465 88.97989,-9.03703 0.0623,-0.0624 0.25472,-1.19341 0.42756,-2.51341 0.17283,-1.32 0.44828,-3.23835 0.61209,-4.26301 0.17139,-1.072 0.24183,-1.91903 0.16592,-1.99495 -0.17771,-0.1777 -179.25604,17.6788 -179.52366,17.9009 -0.16209,0.13452 -0.20338,1.00013 -0.20338,4.26316 0,4.28104 0.027,4.5692 0.42855,4.56843 0.13555,-3e-4 40.23642,-4.01611 89.11303,-8.92409 z m 87.42559,8.73706 c 0.0847,-0.10312 0.26268,-1.9425 0.39563,-4.0875 0.27076,-4.36876 0.55959,-7.69433 0.98316,-11.32032 0.0832,-0.71242 0.0915,-1.32718 0.0189,-1.39978 -0.0726,-0.0726 -36.92176,3.56511 -83.90323,8.28283 -46.07557,4.62675 -83.90043,8.4133 -84.05523,8.41457 -0.23661,0.002 -0.24561,0.0255 -0.0564,0.1477 0.36781,0.2377 166.42195,0.20032 166.61717,-0.0375 z m 7.94658,-8.35374 c 0.0235,-5.14 -0.0166,-8.52164 -0.10225,-8.60725 -0.21428,-0.21428 -5.2976,-0.12744 -5.50293,0.094 -0.0915,0.0987 -0.24414,0.95573 -0.33914,1.90448 -0.095,0.94875 -0.23488,2.29875 -0.31086,3 -0.53041,4.89532 -0.94545,11.69984 -0.72949,11.96005 0.12643,0.15234 0.91066,0.18659 3.55407,0.15521 l 3.39184,-0.0403 0.0388,-8.46624 z M 130.3253,685.6396 c 0.70684,-0.0831 3.34391,-0.35427 5.86016,-0.60252 4.26544,-0.42082 10.65782,-1.05767 15.75,-1.56912 1.19625,-0.12015 16.34746,-1.64025 33.66936,-3.37801 18.93168,-1.89926 31.53414,-3.22395 31.59411,-3.32098 0.0549,-0.0888 0.0782,-0.27206 0.0519,-0.4073 -0.0263,-0.13525 -0.12128,-0.9884 -0.21101,-1.8959 -0.51499,-5.20851 -0.61757,-6.12503 -0.70056,-6.2593 -0.0925,-0.14973 -1.56154,-0.0805 -3.8038,0.17933 -0.61875,0.0717 -2.475,0.27965 -4.125,0.46212 -5.52868,0.61142 -19.42489,2.42279 -24.675,3.21639 -0.78375,0.11847 -2.33625,0.3501 -3.45,0.51473 -1.11375,0.16464 -2.46375,0.37263 -3,0.4622 -0.53625,0.0896 -1.61625,0.26125 -2.4,0.3815 -0.78375,0.12025 -1.79625,0.28331 -2.25,0.36236 -0.79213,0.13799 -1.70636,0.2915 -3.5625,0.59817 -0.47437,0.0784 -1.2675,0.21675 -1.7625,0.3075 -0.85873,0.15743 -1.30256,0.23306 -3.525,0.60068 -0.53625,0.0887 -1.3125,0.22065 -1.725,0.29323 -0.4125,0.0726 -1.155,0.1985 -1.65,0.27982 -0.495,0.0813 -1.20375,0.21652 -1.575,0.30042 -0.37125,0.0839 -1.18125,0.22975 -1.8,0.3241 -0.61875,0.0943 -1.53,0.26265 -2.025,0.374 -0.495,0.11135 -1.40625,0.28183 -2.025,0.37886 -1.04506,0.16387 -1.63155,0.2736 -4.425,0.82789 -0.5775,0.11459 -1.60687,0.31244 -2.2875,0.43967 -1.99492,0.37291 -3.61905,0.69022 -5.0625,0.98907 -0.7425,0.15372 -1.92375,0.38997 -2.625,0.525 -0.70125,0.13502 -1.8825,0.37066 -2.625,0.52364 -1.34089,0.27626 -3.19376,0.65677 -5.925,1.21678 -3.30378,0.6774 -7.32071,1.52231 -9.525,2.00346 -0.9075,0.19809 -2.49375,0.53871 -3.525,0.75693 -3.68391,0.77955 -4.5342,1.0025 -4.32621,1.13433 0.28555,0.18098 16.11054,0.16392 17.66605,-0.019 z m 87.71237,-0.0906 c 0.14586,-0.38011 -0.5709,-7.45475 -0.77824,-7.68151 -0.14974,-0.16377 -2.81941,0.0664 -15.31516,1.32058 -8.3236,0.8354 -25.52881,2.55977 -38.23381,3.83193 -25.73083,2.57645 -24.50954,2.44371 -24.21283,2.63151 0.43513,0.27542 78.43408,0.17361 78.54004,-0.10251 z m 1.21288,-4.04327 -0.0401,-3.88991 -0.38784,-0.0451 c -0.75606,-0.0879 -0.77164,0.0871 -0.36413,4.09049 0.20766,2.04006 0.4188,3.77592 0.4692,3.85746 0.28248,0.45706 0.35911,-0.49542 0.32286,-4.01296 z m -0.14509,-4.89491 c 0.13153,-0.13153 0.18,-1.32438 0.18,-4.42971 0,-4.81075 0.094,-4.49282 -1.27743,-4.32148 l -0.82257,0.10278 0,0.63064 c 0,0.34685 0.0626,1.16887 0.13908,1.8267 0.0765,0.65784 0.24953,2.27607 0.38453,3.59607 0.135,1.32 0.27279,2.48437 0.30621,2.5875 0.0775,0.23912 0.85322,0.24446 1.09018,0.008 z m 33.39615,-3.19102 c 17.65986,-1.77157 57.7251,-5.78735 89.03385,-8.92397 31.30875,-3.13661 57.24056,-5.74279 57.62626,-5.7915 0.81211,-0.10257 0.79654,-0.0758 1.11463,-1.91936 0.12992,-0.75303 0.3032,-1.70665 0.38504,-2.11915 0.60585,-3.05337 0.91012,-4.88893 0.82462,-4.97444 -0.0926,-0.0927 -181.26593,17.91034 -181.46231,18.0317 -0.15188,0.0939 -0.19645,8.29152 -0.0472,8.68047 0.11634,0.30318 -4.06002,0.68631 32.5251,-2.98375 z m -52.75365,-4.38238 c -0.14438,-0.0377 -0.38063,-0.0377 -0.525,0 -0.14438,0.0377 -0.0262,0.0686 0.2625,0.0686 0.28875,0 0.40687,-0.0309 0.2625,-0.0686 z m 1.0375,-0.1466 c -0.055,-0.055 -0.145,-0.055 -0.2,0 -0.055,0.055 -0.01,0.1 0.1,0.1 0.11,0 0.155,-0.045 0.1,-0.1 z m 203.93287,-0.69805 c 0.1997,-0.31401 0.1406,-8.41848 -0.0629,-8.62195 -0.28779,-0.28778 -3.77859,-0.24588 -4.02273,0.0483 -0.35281,0.42512 -1.49302,8.58855 -1.22301,8.75625 0.28008,0.17395 5.18925,0.005 5.30862,-0.18259 z m 27.26712,-0.4953 c 15.06774,-0.3447 23.69381,-0.59606 23.81495,-0.69395 0.1464,-0.11831 0.18079,-1.05158 0.15,-4.0706 l -0.04,-3.9171 -3.15,-0.0454 c -6.77386,-0.0977 -47.08683,0.42797 -47.20605,0.61552 -0.17632,0.27739 -0.14584,8.41801 0.0322,8.59604 0.0863,0.0863 0.7139,0.13072 1.4625,0.10356 0.72125,-0.0262 11.94261,-0.2908 24.93636,-0.58805 z M 626.643,660.89086 c 92.2171,-3.38248 167.80244,-6.15774 167.96744,-6.16725 0.165,-0.01 0.03,-0.0733 -0.3,-0.14171 -0.83425,-0.173 -337.29545,4.21373 -337.53749,4.40076 -0.20212,0.15619 -0.28572,7.75993 -0.0875,7.95816 0.17754,0.17755 0.12153,0.17954 169.95754,-6.04996 z m -221.99505,-2.48261 c 0.26481,-0.0819 0.27201,-8.47292 0.007,-8.73743 -0.24027,-0.24027 -1.83931,-0.23438 -2.03479,0.008 -0.18,0.22271 -0.55439,1.51002 -0.77433,2.6625 -0.0866,0.45375 -0.30138,1.5675 -0.4773,2.475 -0.57812,2.9825 -0.64319,3.54545 -0.42539,3.68006 0.18341,0.11335 3.29249,0.0398 3.70431,-0.0876 z m 28.2375,-0.0855 c 14.33123,-0.11022 22.79426,-0.22905 22.9125,-0.32171 0.14135,-0.11077 0.1875,-1.09796 0.1875,-4.01021 0,-2.90864 -0.0463,-3.90125 -0.1875,-4.01697 -0.23896,-0.19588 -49.90174,-0.47179 -50.175,-0.27875 -0.2023,0.14291 -0.28636,8.49686 -0.0875,8.69572 0.13525,0.13526 1.28088,0.1324 27.34999,-0.0681 z m 191.1,-2.38057 c 89.80125,-1.16079 164.0175,-2.16144 164.925,-2.22368 l 1.65,-0.11315 -1.425,-0.10263 c -2.57135,-0.18519 -332.16055,-3.67565 -332.3625,-3.51983 -0.20212,0.15596 -0.28573,7.75971 -0.0875,7.95794 0.1639,0.1639 -2.00471,0.18981 167.29999,-1.99865 z m -168.18,-6.93135 c 0.13344,-0.13344 0.18,-1.6 0.18,-5.67 0,-4.07 -0.0466,-5.53656 -0.18,-5.67 -0.26176,-0.26177 -49.92823,-0.26177 -50.19,0 -0.20365,0.20365 -0.26382,10.70598 -0.0632,11.0215 0.0847,0.13313 5.82486,0.20982 23.36021,0.31209 12.78637,0.0746 24.02757,0.14702 24.98044,0.161 1.17822,0.0173 1.79009,-0.0322 1.9125,-0.15459 z m -51.15,-0.3 c 0.22694,-0.22693 0.25979,-8.00299 0.0344,-8.14228 -0.0801,-0.0495 -0.1824,0.0984 -0.22739,0.32864 -0.045,0.23026 -0.15744,0.72239 -0.24991,1.09364 -0.0925,0.37125 -0.28466,1.18125 -0.4271,1.8 -0.36043,1.56572 -0.59119,2.49856 -0.83814,3.38818 -0.22828,0.82234 -0.27195,1.45172 -0.11185,1.61182 0.17275,0.17276 1.63135,0.10864 1.81999,-0.08 z"
         id="path6030"
         inkscape:connector-curvature="0" />
      <path
         style="fill:#ad7fa8;stroke:#ad7fa8"
         d="m 404.70075,755.50327 c -0.11782,-0.31176 -0.51394,-1.73457 -1.22832,-4.41205 -0.15769,-0.59101 -0.28671,-1.19372 -0.28671,-1.33936 0,-0.14564 -0.13002,-0.70834 -0.28893,-1.25045 -0.15891,-0.5421 -0.39877,-1.49189 -0.53304,-2.11064 -0.36583,-1.68607 -0.52234,-2.22878 -0.66888,-2.31934 -0.0729,-0.0451 -41.21641,-4.20062 -91.43,-9.23456 -50.21358,-5.03393 -91.69119,-9.19377 -92.17246,-9.24407 -0.78921,-0.0825 -0.8918,-0.0601 -1.04613,0.22826 -0.12084,0.22579 -0.31276,0.31882 -0.65333,0.31669 -0.83827,-0.005 -126.865695,-12.55545 -126.95258,-12.64234 -0.0456,-0.0456 0.03056,-1.18467 0.169251,-2.53128 0.138689,-1.3466 0.341476,-3.35961 0.450638,-4.47336 0.109161,-1.11375 0.381384,-3.88125 0.604938,-6.15 l 0.406464,-4.125 -0.849927,-8.38054 c -0.46746,-4.6093 -0.815658,-8.41481 -0.773773,-8.45669 0.08226,-0.0823 126.146349,-12.77743 126.944989,-12.78388 0.34087,-0.003 0.53229,0.0897 0.65302,0.31524 0.15521,0.29001 0.25489,0.31051 1.09277,0.22478 0.5071,-0.0519 41.99574,-4.17801 92.19699,-9.16916 78.36567,-7.79133 91.30124,-9.11031 91.46059,-9.32584 0.10207,-0.13807 0.22419,-0.49243 0.27138,-0.78747 0.10588,-0.66205 0.52152,-2.45398 1.27257,-5.48644 0.10216,-0.4125 0.25042,-1.02 0.32944,-1.35 0.079,-0.33 0.36023,-1.37625 0.6249,-2.325 l 0.4812,-1.725 25.90496,-0.0379 25.90495,-0.0379 0,5.98206 c 0,4.60583 0.0431,6.01648 0.1875,6.1317 0.18972,0.15142 375.31159,4.2308 380.06249,4.13311 1.27875,-0.0263 6.00375,-0.18257 10.5,-0.34727 4.49625,-0.16471 8.42684,-0.29931 8.73464,-0.29911 0.472,3e-4 0.57439,-0.0584 0.65377,-0.37464 0.0589,-0.23466 0.2003,-0.375 0.37785,-0.375 0.27768,0 0.28374,0.95393 0.28374,44.7 0,43.60667 -0.007,44.7 -0.28125,44.7 -0.19249,0 -0.30964,-0.142 -0.37125,-0.45 -0.0832,-0.41587 -0.13864,-0.44997 -0.73125,-0.44964 -0.35269,1.5e-4 -4.32,-0.1344 -8.81625,-0.29911 -4.49625,-0.1647 -9.22125,-0.32051 -10.5,-0.34624 -4.77552,-0.0961 -379.72353,3.98271 -379.91249,4.13279 -0.14437,0.11468 -0.1875,1.52469 -0.1875,6.13057 l 0,5.98163 -25.87872,0 -25.8787,0 -0.12755,-0.3375 z m 51.10497,-0.4425 c 0.26502,-0.26502 0.25782,-11.12377 -0.008,-11.32661 -0.28947,-0.2213 -50.10367,0.23204 -50.24698,0.45728 -0.19971,0.31389 -0.1383,10.66655 0.0645,10.86933 0.26177,0.26177 49.92824,0.26177 50.19,0 z m -50.97229,-6.84135 c -0.003,-4.43766 0.0454,-4.26029 -1.13663,-4.19934 l -0.88608,0.0457 0.0153,0.525 c 0.0135,0.46264 0.26874,1.66972 0.82479,3.9 0.54932,2.20329 0.735,2.96994 0.80987,3.34364 0.24261,1.21098 0.37489,-0.0718 0.37278,-3.61499 z m -0.17771,-5.00865 c 0.19043,-0.19042 0.27255,-8.25427 0.089,-8.73273 -0.0766,-0.19953 -0.40138,-0.23727 -2.04228,-0.23727 l -1.95123,0 0.10281,0.8625 c 0.0565,0.47437 0.16082,1.09875 0.23172,1.3875 0.14664,0.59726 0.33825,1.5789 0.68804,3.525 0.2886,1.60568 0.64062,2.92814 0.84847,3.1875 0.19388,0.24193 1.79319,0.24783 2.03352,0.007 z m -3.09535,-0.0446 c 0.0411,-0.0411 -0.0176,-0.49669 -0.13026,-1.0125 -0.11271,-0.51582 -0.30224,-1.5116 -0.42117,-2.21285 -0.11892,-0.70125 -0.3455,-1.91625 -0.50348,-2.7 -0.15799,-0.78375 -0.33162,-1.7401 -0.38584,-2.12523 -0.0542,-0.38513 -0.18224,-0.76965 -0.28446,-0.8545 -0.33245,-0.27589 -179.67542,-18.07008 -179.82035,-17.84156 -0.15916,0.25096 -0.16423,8.2337 -0.005,8.48386 0.084,0.1322 26.75218,2.86199 90.3352,9.24679 91.61089,9.19927 91.0845,9.14724 91.21575,9.01599 z m 32.90035,-0.0926 c 13.42575,-0.10995 21.21848,-0.22732 21.3375,-0.32135 0.14132,-0.11164 0.1875,-1.09979 0.1875,-4.0114 0,-2.91219 -0.0461,-3.89947 -0.1875,-4.01032 -0.32499,-0.25488 -50.06922,-0.5703 -50.22877,-0.31849 -0.15032,0.23724 -0.18255,8.57998 -0.0337,8.72881 0.14091,0.14092 4.84221,0.12999 28.92499,-0.0673 z m 190.65,-2.01471 c 89.3475,-0.94879 163.125,-1.77654 163.95,-1.83945 l 1.5,-0.11438 -1.875,-0.10277 c -2.34003,-0.12826 -327.39919,-4.34567 -330.075,-4.28249 l -1.95,0.0461 -0.0401,3.88153 c -0.0261,2.52991 0.0144,3.94711 0.11622,4.06985 0.11878,0.14314 0.84813,0.17374 3.04006,0.12752 1.58609,-0.0334 75.98628,-0.83708 165.33378,-1.78586 z m 231.48749,-2.6503 c 0.2757,-0.22713 0.2757,-83.85958 0,-84.08285 -0.11995,-0.0972 -4.13215,-0.18986 -11.1375,-0.25738 l -10.95,-0.10553 -188.84999,6.93015 c -134.62255,4.94018 -188.88165,6.97935 -188.9602,7.10151 -0.0606,0.0942 -0.11021,12.89511 -0.11021,28.44636 0,15.55125 0.0496,28.35192 0.11021,28.44594 0.0784,0.12164 54.19743,2.14238 187.6102,7.00517 l 187.49999,6.83423 12.3,-0.0816 c 8.09627,-0.0537 12.36408,-0.13436 12.4875,-0.23603 z m -63.18749,-0.26084 c 0.41249,-0.0643 0.62386,-0.12583 0.46969,-0.13686 -1.6602,-0.1187 -335.39705,-12.16786 -336.16969,-12.13699 l -1.05,0.042 -0.04,3.84207 c -0.0308,2.96146 0.004,3.87583 0.15,3.98941 0.31574,0.24487 335.21406,4.62252 336.63999,4.40042 z m -337.425,-8.3319 c 0,-2.84931 -0.0465,-3.82605 -0.1875,-3.9407 -0.21579,-0.17543 -49.6914,-1.50124 -50.10465,-1.34266 -0.33705,0.12934 -0.40156,8.50235 -0.0676,8.77949 0.24438,0.20282 49.89721,0.62577 50.17228,0.42738 0.14148,-0.10205 0.1875,-1.06502 0.1875,-3.92351 z m -51.33,3.495 c 0.13146,-0.13146 0.18,-1.31667 0.18,-4.395 0,-3.07833 -0.0485,-4.26354 -0.18,-4.395 -0.12621,-0.12621 -0.96004,-0.18 -2.79022,-0.18 l -2.61023,0 0.10419,1.0875 c 0.19802,2.06691 1.11144,7.6389 1.28691,7.85033 0.23181,0.27931 3.73412,0.30741 4.00935,0.0322 z m -5.09502,-0.16485 c 0.11723,-0.14125 0.0443,-0.97672 -0.26514,-3.0375 -0.23476,-1.56346 -0.47167,-3.2814 -0.52645,-3.81765 -0.19061,-1.86576 -0.28394,-2.04886 -1.09649,-2.151 -2.99053,-0.37591 -177.40921,-17.65334 -177.57424,-17.59002 -0.30394,0.11664 -0.31724,8.51749 -0.0139,8.76925 0.13492,0.11197 171.33677,17.32043 179.14536,18.0069 0.093,0.008 0.24189,-0.0728 0.33084,-0.17998 z m 56.42502,-22.21852 c 0,-10.55405 -0.0426,-13.86923 -0.18,-14.00663 -0.26176,-0.26177 -49.92823,-0.26177 -50.19,0 -0.20398,0.20398 -0.26643,26.3019 -0.0637,26.6206 0.14359,0.22574 49.95891,1.56655 50.2462,1.35242 0.14763,-0.11004 0.1875,-3.07961 0.1875,-13.96639 z m -236.73287,9.88837 c 0.0479,-4.60552 0.042,-4.65854 -0.52801,-4.7714 -0.62919,-0.12457 -0.75219,0.12969 -0.92949,1.9214 -0.0898,0.9075 -0.26358,2.595 -0.38617,3.75 -0.35651,3.35881 -0.40997,3.21784 1.20155,3.16841 l 0.6,-0.0184 0.0421,-4.05 z m -2.97971,3.76517 c 0.15844,-0.19091 0.26218,-1.02648 0.76542,-6.16517 0.0889,-0.9075 0.18265,-1.80145 0.2084,-1.98655 0.075,-0.53928 -0.17915,-0.62077 -2.69866,-0.86521 -1.31316,-0.1274 -3.0457,-0.29725 -3.85007,-0.37744 -0.80438,-0.0802 -2.12063,-0.21117 -2.925,-0.29108 -0.80438,-0.0799 -3.15,-0.31524 -5.2125,-0.52297 -2.0625,-0.20773 -7.8675,-0.78285 -12.9,-1.27803 -5.0325,-0.49519 -9.79125,-0.97073 -10.575,-1.05675 -0.78375,-0.086 -8.58,-0.86434 -17.325,-1.72957 -8.745,-0.86523 -19.62126,-1.94311 -24.16946,-2.39528 l -8.26946,-0.82212 -7.93054,0.002 c -4.3618,0.001 -8.02088,0.0595 -8.13129,0.12954 -0.20453,0.12964 1.08763,0.46792 4.92575,1.28956 1.03125,0.22077 2.6175,0.56156 3.525,0.75732 2.84407,0.61352 5.04338,1.07936 6.675,1.41387 0.86625,0.17759 2.1825,0.44744 2.925,0.59966 0.7425,0.15222 2.05875,0.42198 2.925,0.59946 0.86625,0.17748 2.1825,0.45182 2.925,0.60965 0.7425,0.15783 1.92375,0.39371 2.625,0.52418 0.70125,0.13048 1.8825,0.363 2.625,0.51672 1.32708,0.27475 2.72503,0.55008 5.1,1.00444 0.66,0.12627 1.63875,0.31938 2.175,0.42913 0.53625,0.10976 1.48125,0.27813 2.1,0.37417 0.61875,0.096 1.56375,0.26648 2.1,0.37877 0.53625,0.11229 1.4475,0.2819 2.025,0.3769 0.5775,0.095 1.48875,0.26121 2.025,0.36933 0.53625,0.10812 1.4475,0.27453 2.025,0.3698 0.5775,0.0953 1.35375,0.23092 1.725,0.30143 0.37125,0.0705 1.18125,0.207 1.8,0.30329 0.61875,0.0963 1.56375,0.26591 2.1,0.37692 1.37588,0.2848 2.60691,0.49962 3.825,0.66747 1.21135,0.16692 2.46765,0.37042 3.75,0.60746 0.495,0.0915 1.54125,0.26062 2.325,0.37582 0.78375,0.11522 1.86375,0.28276 2.4,0.37234 0.53625,0.0896 1.88625,0.29756 3,0.46219 1.11375,0.16464 2.7,0.40103 3.525,0.52531 6.7756,1.02074 21.04767,2.83471 27.75,3.52701 0.9075,0.0937 2.055,0.22185 2.55,0.28468 1.33857,0.16992 1.37389,0.1686 1.56241,-0.0585 z m 188.38258,-1.02017 c 0.26087,-0.26087 0.26087,-26.37913 0,-26.64 -0.26221,-0.26222 -6.92547,-0.25521 -7.12737,0.008 -0.28416,0.36973 0.20493,12.99797 0.71601,18.4875 0.14681,1.57678 0.23237,2.43377 0.61403,6.15 0.22056,2.1475 0.0372,2.00892 2.73003,2.06288 1.24977,0.025 2.41068,0.0605 2.5798,0.0788 0.16913,0.0183 0.3885,-0.0477 0.4875,-0.14671 z m -206.78249,-0.0694 c -0.10313,-0.0416 -0.27188,-0.0416 -0.375,0 -0.10313,0.0416 -0.0187,0.0757 0.1875,0.0757 0.20625,0 0.29062,-0.0341 0.1875,-0.0757 z m -1.3875,-0.20988 c -1.09201,-0.19273 -4.64096,-0.71895 -8.025,-1.18992 -1.7325,-0.24111 -3.825,-0.53995 -4.65,-0.66409 -0.825,-0.12414 -2.41125,-0.36041 -3.525,-0.52504 -1.11375,-0.16464 -2.46375,-0.37263 -3,-0.4622 -0.53625,-0.0896 -1.61625,-0.25712 -2.4,-0.37233 -0.78375,-0.11521 -1.83,-0.28434 -2.325,-0.37583 -1.28235,-0.23703 -2.53865,-0.44054 -3.75,-0.60746 -1.21809,-0.16785 -2.44912,-0.38267 -3.825,-0.66747 -0.53625,-0.11101 -1.48125,-0.28062 -2.1,-0.37691 -0.61875,-0.0963 -1.42875,-0.23278 -1.8,-0.3033 -0.37125,-0.0705 -1.1475,-0.20615 -1.725,-0.30142 -0.5775,-0.0953 -1.48875,-0.26169 -2.025,-0.36981 -0.53625,-0.10812 -1.4475,-0.27432 -2.025,-0.36933 -0.5775,-0.095 -1.48875,-0.26461 -2.025,-0.3769 -0.53625,-0.11228 -1.48125,-0.28273 -2.1,-0.37877 -0.61875,-0.096 -1.56375,-0.26441 -2.1,-0.37416 -0.53625,-0.10976 -1.53187,-0.30672 -2.2125,-0.4377 -3.05624,-0.58814 -3.79511,-0.73348 -5.0625,-0.99588 -0.7425,-0.15372 -1.92375,-0.38762 -2.625,-0.51977 -0.70125,-0.13216 -1.8825,-0.36842 -2.625,-0.52502 -0.7425,-0.15661 -2.05875,-0.42957 -2.925,-0.60659 -0.86625,-0.17702 -2.1825,-0.44641 -2.925,-0.59863 -0.7425,-0.15222 -2.05875,-0.42207 -2.925,-0.59966 -1.72401,-0.35345 -4.11551,-0.86076 -6.675,-1.41597 -1.90804,-0.4139 -4.30871,-0.92711 -6.975,-1.4911 -1.03125,-0.21813 -2.71875,-0.59875 -3.75,-0.8458 l -1.875,-0.4492 -8.35774,0.005 -8.35774,0.005 -0.04226,-1.7625 c -0.03943,-1.64424 -0.06225,-1.7625 -0.340196,-1.7625 -0.359322,0 -0.360738,0.008 -0.898798,5.31325 -0.224159,2.21004 -0.330992,3.86903 -0.254102,3.94592 0.155832,0.15583 104.674486,10.58897 106.000836,10.58109 l 0.9,-0.005 -0.675,-0.11914 z m 201.78904,-0.59078 c -0.0198,-0.37125 -0.13545,-1.58625 -0.25704,-2.7 -1.65657,-15.17373 -1.57521,-33.87888 0.21396,-49.19532 0.0832,-0.71242 0.0915,-1.32718 0.0189,-1.39978 -0.0916,-0.0916 -138.00022,13.64885 -169.0649,16.84467 -2.75952,0.28389 -6.09115,0.62088 -7.55956,0.76465 -0.81651,0.0799 -1.54213,0.18092 -1.6125,0.22441 -0.15575,0.0963 -0.16866,18.06788 -0.0131,18.30295 0.10736,0.16228 2.12247,0.41758 7.01021,0.88813 1.32,0.12708 40.16624,4.00325 86.32499,8.61372 46.15875,4.61047 84.16125,8.37118 84.45,8.35712 0.52422,-0.0255 0.52494,-0.0266 0.48905,-0.70055 z m -179.16904,-7.53 c 0.22141,-0.22141 0.25994,-7.70289 0.0404,-7.83859 -0.25456,-0.15734 -0.31379,0.17225 -0.68429,3.80803 -0.41709,4.09302 -0.42342,4.02341 0.38143,4.19316 0.0454,0.01 0.1635,-0.0636 0.2625,-0.1626 z m -1.70403,-0.4575 c 0.16933,-0.79717 0.71639,-7.1618 0.63403,-7.37643 -0.10787,-0.28111 -77.54875,-0.37125 -77.72228,-0.0905 -0.13261,0.21456 0.0489,0.23845 6.82228,0.8978 10.13004,0.98611 47.86318,4.73767 58.8,5.8461 11.89741,1.2058 11.37048,1.17257 11.46597,0.723 z m -113.49053,-8.34415 c 0.20473,-0.12977 -1.44415,-0.55731 -5.825443,-1.51048 -1.196248,-0.26026 -2.894765,-0.6461 -3.77448,-0.85743 -0.879716,-0.21133 -1.672841,-0.3389 -1.7625,-0.28348 -0.227252,0.14044 -0.212684,2.37337 0.01698,2.60304 0.21312,0.21312 11.012893,0.25915 11.345443,0.0484 z m 16.07456,-0.0183 c 0.12375,-0.08 0.19125,-0.14826 0.15,-0.15174 -0.0412,-0.003 -4.69875,-0.46925 -10.35,-1.03504 -9.33612,-0.9347 -12.309673,-1.12158 -9.814023,-0.61678 1.376263,0.27838 4.755263,1.04189 6.664023,1.50579 l 1.725,0.41923 5.7,0.012 c 3.44694,0.007 5.78894,-0.0455 5.925,-0.13343 z m 97.78962,0.01 c 0.3097,-0.19599 -1.72556,-0.44421 -6.21462,-0.75795 -0.99,-0.0692 -3.285,-0.26323 -5.1,-0.43121 -23.11723,-2.13943 -64.36952,-3.0909 -99.87713,-2.30365 -8.346073,0.18505 -9.229653,0.37205 -3.99787,0.84612 2.6693,0.24188 14.56479,1.42649 22.575,2.24814 l 4.95,0.50775 43.725,0.0133 c 25.87355,0.008 43.81262,-0.0421 43.93962,-0.12251 z m 1.47413,-9.99334 c -0.034,-7.50379 -0.0661,-8.53456 -0.26375,-8.48617 -0.12375,0.0303 -18.82125,1.90125 -41.55,4.15768 -44.89564,4.45708 -42.81383,4.23961 -42.375,4.42665 0.165,0.0703 18.89625,1.98534 41.625,4.25558 22.72875,2.27023 41.56125,4.18307 41.85,4.25074 0.78445,0.18384 0.75522,0.53624 0.71375,-8.60448 z m -22.08875,7.28375 c 0.165,-0.0709 0.24729,-0.13366 0.18287,-0.13946 -0.0644,-0.006 -15.22632,-1.52953 -33.69312,-3.38606 l -33.57599,-3.37553 -18.68041,1.85804 c -10.27422,1.02192 -18.754195,1.90364 -18.844379,1.95937 -0.228653,0.14132 -0.209127,1.66375 0.02353,1.83457 0.111999,0.0822 2.331741,0.0946 5.512496,0.0306 40.896343,-0.82204 68.772603,-0.52628 93.300003,0.98989 1.93875,0.11984 3.78262,0.21354 4.0975,0.20822 0.31487,-0.005 0.613,0.0308 0.6625,0.0803 0.12539,0.12539 0.65666,0.094 1.015,-0.06 z m 1.675,0.05 c -0.055,-0.055 -0.145,-0.055 -0.2,0 -0.055,0.055 -0.01,0.1 0.1,0.1 0.11,0 0.155,-0.045 0.1,-0.1 z m -107.125,-2.15 c 0,-1.05498 -0.309896,-1.16868 -0.448023,-0.16438 -0.108056,0.78567 -0.0184,1.11985 0.274269,1.0223 0.102712,-0.0342 0.173754,-0.38501 0.173754,-0.85792 z m 17.025,-3.37678 c 16.89965,-1.67 17.09619,-1.69317 16.125,-1.90082 -0.96347,-0.206 -32.179827,-3.28712 -32.334561,-3.19149 -0.07724,0.0477 -0.140439,0.70187 -0.140439,1.45363 0,1.08727 -0.05328,1.42571 -0.260508,1.6547 -0.247346,0.27331 -0.247346,0.29748 0,0.47834 0.213837,0.15637 0.260508,0.43163 0.260508,1.53646 0,1.24326 0.05597,1.54443 0.2875,1.54689 0.04812,4.5e-4 7.276247,-0.70946 16.0625,-1.57771 z m 295.91999,-2.20322 c 0.24962,-0.24961 0.26229,-26.60144 0.0129,-26.75559 -0.30076,-0.18588 -5.29119,-0.0664 -5.47429,0.13111 -0.0915,0.0987 -0.24414,0.95573 -0.33914,1.90448 -0.095,0.94875 -0.23461,2.29875 -0.31027,3 -0.7079,6.56151 -1.39409,21.22044 -1.01637,21.7125 0.20167,0.26271 6.86497,0.26972 7.1272,0.007 z m 51.15,0 c 0.26774,-0.26773 0.26036,-27.77291 -0.008,-27.97409 -0.25768,-0.19354 -49.9215,0.98307 -50.175,1.18871 -0.26775,0.21722 -0.27511,26.51776 -0.007,26.78538 0.26177,0.26177 49.92824,0.26177 50.19,0 z m -290.52874,-3.42037 c 19.09393,-1.8973 34.78768,-3.45543 34.87499,-3.46252 0.0873,-0.007 -0.0437,-0.0738 -0.29124,-0.14814 -0.2872,-0.0863 -0.6286,-0.0767 -0.94369,0.0266 -0.27152,0.089 -0.58241,0.12776 -0.69086,0.0862 -0.10844,-0.0416 -1.60753,0.0164 -3.33131,0.12904 -26.13159,1.70678 -53.29212,2.07173 -93.54792,1.25697 -6.750834,-0.13663 -8.560104,-0.13386 -8.7375,0.0134 -0.269265,0.22347 -0.308454,1.57886 -0.05026,1.73843 0.196404,0.12139 35.90243,3.76268 37.17654,3.79126 0.45375,0.0102 16.44731,-1.53383 35.54125,-3.43113 z m -73.519129,-1.19463 c 0.05086,-0.69747 -0.156398,-1.08118 -0.434025,-0.80356 -0.213576,0.21358 -0.01594,1.58206 0.21741,1.50544 0.09322,-0.0306 0.190698,-0.34646 0.216615,-0.70188 z m 60.402879,-1.2541 c 3.3,-0.0431 6.81,-0.0806 7.8,-0.0832 5.29914,-0.0141 22.39265,-0.70376 32.1,-1.29509 3.53215,-0.21516 5.00395,-0.31923 10.575,-0.74773 1.52625,-0.11739 3.41625,-0.25291 4.2,-0.30116 0.78375,-0.0482 1.72875,-0.15049 2.1,-0.22721 0.37125,-0.0767 2.12625,-0.24387 3.9,-0.37143 8.64911,-0.622 5.78028,-0.67082 -39.56538,-0.67323 l -43.09038,-0.002 -14.95962,1.49789 c -16.870683,1.68924 -16.380503,1.63435 -16.078613,1.80037 0.18601,0.1023 15.881523,0.38549 28.118993,0.50734 4.73066,0.0471 17.36921,-0.006 24.9,-0.10424 z m -60.407739,-2.54067 0.04226,-1.76069 8.100666,0 c 7.425263,0 8.203403,-0.0238 9.332743,-0.28491 1.32719,-0.30691 4.55243,-1.01772 7.26957,-1.60213 0.92813,-0.19963 2.44688,-0.52658 3.375,-0.72656 0.92813,-0.19999 2.53125,-0.54113 3.5625,-0.75811 1.03125,-0.21698 2.4825,-0.52262 3.225,-0.6792 0.7425,-0.15658 2.05875,-0.42755 2.925,-0.60215 0.86625,-0.17461 2.1825,-0.4444 2.925,-0.59954 2.56229,-0.53536 4.20425,-0.86998 5.475,-1.11578 0.70125,-0.13563 1.95,-0.3828 2.775,-0.54926 2.40032,-0.4843 3.5148,-0.70368 4.875,-0.9596 2.24228,-0.42188 3.64947,-0.69382 4.65,-0.8986 0.53625,-0.10975 1.48125,-0.27704 2.1,-0.37175 0.61875,-0.0947 1.53,-0.26331 2.025,-0.37466 0.495,-0.11135 1.40625,-0.28088 2.025,-0.37675 0.61875,-0.0959 1.42875,-0.24294 1.8,-0.32685 0.37125,-0.0839 1.04625,-0.21029 1.5,-0.28086 0.45375,-0.0706 1.23,-0.20254 1.725,-0.29329 0.495,-0.0908 1.305,-0.2315 1.8,-0.3128 1.90872,-0.31346 2.58055,-0.42781 3.45,-0.5872 0.495,-0.0908 1.27125,-0.22673 1.725,-0.30219 0.45375,-0.0755 1.23,-0.20471 1.725,-0.28721 0.495,-0.0825 1.33875,-0.22303 1.875,-0.3123 0.53625,-0.0893 1.5825,-0.25808 2.325,-0.37516 0.7425,-0.11707 1.78875,-0.28534 2.325,-0.37391 0.53625,-0.0886 1.88625,-0.29478 3,-0.45822 1.11375,-0.16344 2.66625,-0.39458 3.45,-0.51364 2.27593,-0.34575 6.51602,-0.9438 10.725,-1.51274 5.06526,-0.68467 4.92403,-0.66366 5.00517,-0.7448 0.19707,-0.19706 -105.658928,10.28918 -107.980169,10.69667 l -0.675,0.11849 0.03098,0.74501 c 0.05129,1.23346 0.765309,8.12733 0.874531,8.44359 0.03772,0.10922 0.186912,0.1759 0.331538,0.14818 0.229851,-0.044 0.268273,-0.27204 0.305214,-1.81108 z m 1.858795,1.37531 c 0.439419,-0.0902 1.845193,-0.40008 3.123943,-0.68863 5.211821,-1.17604 6.251051,-1.40249 6.814621,-1.48491 1.58175,-0.23133 -0.29087,-0.35805 -5.322123,-0.36016 -6.276101,-0.003 -5.842497,-0.10859 -5.842497,1.4277 0,1.3991 -0.03741,1.36535 1.226056,1.106 z m 107.973944,-0.061 c 0,-0.0412 -0.0337,-0.075 -0.075,-0.075 -0.0413,0 -0.075,0.0338 -0.075,0.075 0,0.0412 0.0337,0.075 0.075,0.075 0.0412,0 0.075,-0.0337 0.075,-0.075 z m -99.7875,-0.37142 c 2.19242,-0.219 4.41126,-0.44593 5.8875,-0.60213 0.70125,-0.0742 2.05125,-0.20985 3,-0.30145 0.94875,-0.0916 2.29875,-0.229 3,-0.30534 0.70125,-0.0763 2.085,-0.20926 3.075,-0.29539 2.20262,-0.19162 2.56989,-0.26439 2.36556,-0.46871 -0.10032,-0.10032 -2.13046,-0.13474 -5.90919,-0.10018 l -5.75637,0.0526 -1.875,0.47507 c -2.07748,0.52636 -5.600923,1.32133 -6.514623,1.46984 -0.82287,0.13375 -0.38061,0.39023 0.51462,0.29844 0.37125,-0.0381 1.366883,-0.13832 2.212503,-0.22279 z M 309.42731,677.4662 c 48.87663,-4.90799 88.91758,-8.97465 88.97989,-9.03703 0.0623,-0.0624 0.25472,-1.19341 0.42756,-2.51341 0.17283,-1.32 0.44828,-3.23835 0.61209,-4.26301 0.17139,-1.072 0.24183,-1.91903 0.16592,-1.99495 -0.17771,-0.1777 -179.25604,17.6788 -179.52366,17.9009 -0.21657,0.17974 -0.31532,8.52012 -0.10338,8.73206 0.055,0.055 0.20687,0.0998 0.3375,0.0995 0.13062,-3e-4 40.22747,-4.01611 89.10408,-8.92409 z m -179.10174,8.17339 c 0.70684,-0.0831 3.34391,-0.35427 5.86016,-0.60252 4.26544,-0.42082 10.65782,-1.05767 15.75,-1.56912 1.19625,-0.12015 16.34746,-1.64025 33.66936,-3.37801 17.32189,-1.73776 31.53421,-3.22406 31.58293,-3.30289 0.0487,-0.0788 0.039,-0.59962 -0.0216,-1.15731 -0.0606,-0.55769 -0.22291,-2.22898 -0.36068,-3.71398 -0.13776,-1.485 -0.29859,-2.93625 -0.35739,-3.225 l -0.10691,-0.525 -1.26536,0.0361 c -0.69594,0.0199 -1.8391,0.10158 -2.54035,0.18157 -0.70125,0.08 -2.59125,0.29211 -4.2,0.47138 -5.61285,0.62547 -19.43831,2.42921 -24.6,3.20945 -0.78375,0.11847 -2.33625,0.3501 -3.45,0.51473 -1.11375,0.16464 -2.46375,0.37263 -3,0.4622 -0.53625,0.0896 -1.61625,0.26125 -2.4,0.3815 -0.78375,0.12025 -1.79625,0.28331 -2.25,0.36236 -0.79213,0.13799 -1.70636,0.2915 -3.5625,0.59817 -0.47437,0.0784 -1.2675,0.21675 -1.7625,0.3075 -0.85873,0.15743 -1.30256,0.23306 -3.525,0.60068 -0.53625,0.0887 -1.3125,0.22065 -1.725,0.29323 -0.4125,0.0726 -1.155,0.1985 -1.65,0.27982 -0.495,0.0813 -1.20375,0.21652 -1.575,0.30042 -0.37125,0.0839 -1.18125,0.22975 -1.8,0.3241 -0.61875,0.0943 -1.53,0.26265 -2.025,0.374 -0.495,0.11135 -1.40625,0.28183 -2.025,0.37886 -1.04506,0.16387 -1.63155,0.2736 -4.425,0.82789 -0.5775,0.11459 -1.60687,0.31244 -2.2875,0.43967 -1.99492,0.37291 -3.61905,0.69022 -5.0625,0.98907 -0.7425,0.15372 -1.92375,0.38997 -2.625,0.525 -0.70125,0.13502 -1.8825,0.37066 -2.625,0.52364 -1.34089,0.27626 -3.19376,0.65677 -5.925,1.21678 -3.30378,0.6774 -7.32071,1.52231 -9.525,2.00346 -0.9075,0.19809 -2.49375,0.53871 -3.525,0.75693 -3.68391,0.77955 -4.5342,1.0025 -4.32621,1.13433 0.28555,0.18098 16.11054,0.16392 17.66605,-0.019 z m 87.71237,-0.0906 c 0.14586,-0.38011 -0.5709,-7.45475 -0.77824,-7.68151 -0.14974,-0.16377 -2.81941,0.0664 -15.31516,1.32058 -8.3236,0.8354 -25.52881,2.55977 -38.23381,3.83193 -25.73083,2.57645 -24.50954,2.44371 -24.21283,2.63151 0.43513,0.27542 78.43408,0.17361 78.54004,-0.10251 z m 1.21288,-4.04327 -0.0401,-3.88991 -0.38784,-0.0451 c -0.75606,-0.0879 -0.77164,0.0871 -0.36413,4.09049 0.20766,2.04006 0.4188,3.77592 0.4692,3.85746 0.28248,0.45706 0.35911,-0.49542 0.32286,-4.01296 z m -0.14509,-4.89491 c 0.13153,-0.13153 0.18,-1.32438 0.18,-4.42971 0,-4.81075 0.094,-4.49282 -1.27743,-4.32148 l -0.82257,0.10278 0,0.63064 c 0,0.34685 0.0626,1.16887 0.13908,1.8267 0.0765,0.65784 0.24953,2.27607 0.38453,3.59607 0.135,1.32 0.27279,2.48437 0.30621,2.5875 0.0775,0.23912 0.85322,0.24446 1.09018,0.008 z m 33.39615,-3.19102 c 17.65986,-1.77157 57.7251,-5.78735 89.03385,-8.92397 31.30875,-3.13661 57.24056,-5.74279 57.62626,-5.7915 0.81211,-0.10257 0.79654,-0.0758 1.11463,-1.91936 0.12992,-0.75303 0.3032,-1.70665 0.38504,-2.11915 0.60585,-3.05337 0.91012,-4.88893 0.82462,-4.97444 -0.0926,-0.0927 -181.26593,17.91034 -181.46231,18.0317 -0.15188,0.0939 -0.19645,8.29152 -0.0472,8.68047 0.11634,0.30318 -4.06002,0.68631 32.5251,-2.98375 z m -52.75365,-4.38238 c -0.14438,-0.0377 -0.38063,-0.0377 -0.525,0 -0.14438,0.0377 -0.0262,0.0686 0.2625,0.0686 0.28875,0 0.40687,-0.0309 0.2625,-0.0686 z m 1.0375,-0.1466 c -0.055,-0.055 -0.145,-0.055 -0.2,0 -0.055,0.055 -0.01,0.1 0.1,0.1 0.11,0 0.155,-0.045 0.1,-0.1 z m 203.93287,-0.69805 c 0.1997,-0.31401 0.1406,-8.41848 -0.0629,-8.62195 -0.28779,-0.28778 -3.77859,-0.24588 -4.02273,0.0483 -0.35281,0.42512 -1.49302,8.58855 -1.22301,8.75625 0.28008,0.17395 5.18925,0.005 5.30862,-0.18259 z m 27.26712,-0.4953 c 15.06774,-0.3447 23.69381,-0.59606 23.81495,-0.69395 0.1464,-0.11831 0.18079,-1.05158 0.15,-4.0706 l -0.04,-3.9171 -3.15,-0.0454 c -6.77386,-0.0977 -47.08683,0.42797 -47.20605,0.61552 -0.17632,0.27739 -0.14584,8.41801 0.0322,8.59604 0.0863,0.0863 0.7139,0.13072 1.4625,0.10356 0.72125,-0.0262 11.94261,-0.2908 24.93636,-0.58805 z m 194.65755,-6.80661 c 92.2171,-3.38248 167.80244,-6.15774 167.96744,-6.16725 0.165,-0.01 0.03,-0.0733 -0.3,-0.14171 -0.83425,-0.173 -337.29545,4.21373 -337.53749,4.40076 -0.20212,0.15619 -0.28572,7.75993 -0.0875,7.95816 0.17754,0.17755 0.12153,0.17954 169.95754,-6.04996 z m -221.99505,-2.48261 c 0.26481,-0.0819 0.27201,-8.47292 0.007,-8.73743 -0.24027,-0.24027 -1.83931,-0.23438 -2.03479,0.008 -0.18,0.22271 -0.55439,1.51002 -0.77433,2.6625 -0.0866,0.45375 -0.30138,1.5675 -0.4773,2.475 -0.57812,2.9825 -0.64319,3.54545 -0.42539,3.68006 0.18341,0.11335 3.29249,0.0398 3.70431,-0.0876 z m 28.2375,-0.0855 c 14.33123,-0.11022 22.79426,-0.22905 22.9125,-0.32171 0.14135,-0.11077 0.1875,-1.09796 0.1875,-4.01021 0,-2.90864 -0.0463,-3.90125 -0.1875,-4.01697 -0.23896,-0.19588 -49.90174,-0.47179 -50.175,-0.27875 -0.2023,0.14291 -0.28636,8.49686 -0.0875,8.69572 0.13525,0.13526 1.28088,0.1324 27.34999,-0.0681 z m 191.1,-2.38057 c 89.80125,-1.16079 164.0175,-2.16144 164.925,-2.22368 l 1.65,-0.11315 -1.425,-0.10263 c -2.57135,-0.18519 -332.16055,-3.67565 -332.3625,-3.51983 -0.20212,0.15596 -0.28573,7.75971 -0.0875,7.95794 0.1639,0.1639 -2.00471,0.18981 167.29999,-1.99865 z m -168.18,-6.93135 c 0.13344,-0.13344 0.18,-1.6 0.18,-5.67 0,-4.07 -0.0466,-5.53656 -0.18,-5.67 -0.26176,-0.26177 -49.92823,-0.26177 -50.19,0 -0.20365,0.20365 -0.26382,10.70598 -0.0632,11.0215 0.0847,0.13313 5.82486,0.20982 23.36021,0.31209 12.78637,0.0746 24.02757,0.14702 24.98044,0.161 1.17822,0.0173 1.79009,-0.0322 1.9125,-0.15459 z m -51.15,-0.3 c 0.22694,-0.22693 0.25979,-8.00299 0.0344,-8.14228 -0.0801,-0.0495 -0.1824,0.0984 -0.22739,0.32864 -0.045,0.23026 -0.15744,0.72239 -0.24991,1.09364 -0.0925,0.37125 -0.28466,1.18125 -0.4271,1.8 -0.36043,1.56572 -0.59119,2.49856 -0.83814,3.38818 -0.22828,0.82234 -0.27195,1.45172 -0.11185,1.61182 0.17275,0.17276 1.63135,0.10864 1.81999,-0.08 z"
         id="path6028"
         inkscape:connector-curvature="0" />
      <path
         style="fill:#000000;stroke:#000000"
         d="m 404.70115,755.50354 c -0.11782,-0.31176 -0.51394,-1.73457 -1.22832,-4.41205 -0.15769,-0.59101 -0.28671,-1.20689 -0.28671,-1.36864 0,-0.16175 -0.10618,-0.58945 -0.23596,-0.95045 -0.12978,-0.361 -0.2921,-0.96011 -0.36071,-1.33136 -0.0686,-0.37125 -0.23463,-1.1475 -0.36894,-1.725 -0.13432,-0.5775 -0.30307,-1.35375 -0.375,-1.725 -0.0719,-0.37125 -0.2413,-1.1475 -0.37636,-1.725 -0.13508,-0.5775 -0.33627,-1.59 -0.44709,-2.25 -0.11084,-0.66 -0.33867,-1.90875 -0.50631,-2.775 -0.82502,-4.26335 -1.81001,-10.75299 -2.19698,-14.475 -0.0429,-0.4125 -0.17575,-1.6275 -0.29526,-2.7 -1.66257,-14.92088 -1.57968,-33.90162 0.21546,-49.33325 0.17021,-1.4632 0.21309,-1.59175 0.531,-1.59175 0.2564,0 0.27707,0.82597 0.0638,2.55 -0.67695,5.47316 -1.1534,12.43976 -1.33185,19.47471 -0.0734,2.89278 -0.0633,4.66989 0.0271,4.78779 0.2015,0.26271 6.86484,0.26973 7.12707,0.007 0.13731,-0.13731 0.18,-3.35667 0.18,-13.575 0,-13.295 0.002,-13.395 0.3,-13.395 0.29777,0 0.3,0.1 0.3,13.395 0,10.21833 0.0427,13.43769 0.18,13.575 0.26177,0.26177 49.92824,0.26177 50.19,0 0.13743,-0.13743 0.18,-3.49 0.18,-14.175 0,-13.895 0.002,-13.995 0.3,-13.995 0.29933,0 0.3,0.1 0.3,44.025 l 0,44.025 -25.87872,0 -25.8787,0 -0.12755,-0.3375 z m 51.10497,-0.4425 c 0.26192,-0.26191 0.26192,-57.87809 0,-58.14 -0.26176,-0.26177 -49.92823,-0.26177 -50.19,0 -0.26191,0.26191 -0.26191,57.87809 0,58.14 0.26177,0.26177 49.92824,0.26177 50.19,0 z m -50.97,-30.47385 c 0,-21.17812 -0.0413,-27.52746 -0.18,-27.66615 -0.26221,-0.26222 -6.92547,-0.25521 -7.12737,0.008 -0.28414,0.36971 0.20487,12.99672 0.71598,18.4875 0.36729,3.94571 0.63971,6.47663 0.98483,9.15 0.40426,3.13149 1.59006,10.58401 2.00482,12.6 0.0679,0.33 0.23282,1.2075 0.36648,1.95 0.13368,0.7425 0.30342,1.62 0.37721,1.95 0.0738,0.33 0.30292,1.37625 0.50917,2.325 0.42422,1.95127 0.9144,4.09913 1.16394,5.1 0.54932,2.20329 0.735,2.96994 0.80987,3.34364 0.33019,1.64815 0.37507,-1.61254 0.37507,-27.24749 z m 451.94999,-26.94615 c 0,-43.4 0,-43.5 0.3,-43.5 0.29931,0 0.3,0.1 0.3,43.5 0,43.4 0,43.5 -0.3,43.5 -0.29931,0 -0.3,-0.1 -0.3,-43.5 z m -704.3685,22.20415 c -34.59144,-3.44641 -62.931132,-6.3038 -62.977094,-6.34976 -0.04596,-0.046 0.02691,-1.15138 0.161934,-2.45648 0.135025,-1.3051 0.344903,-3.45291 0.466396,-4.77291 0.271457,-2.94935 0.304922,-3.10968 0.635142,-3.04303 0.344853,0.0696 0.320451,0.83512 -0.180298,5.65628 -0.229619,2.21074 -0.340296,3.86901 -0.263363,3.94595 0.125798,0.1258 122.219793,12.32233 125.320703,12.51886 1.38221,0.0876 1.46723,0.11192 1.425,0.40755 -0.0751,0.52582 0.50005,0.57842 -64.58842,-5.90646 z m 66.86852,-3.2953 c 0,-8.39779 -0.0515,-9.68227 -0.36777,-9.17055 -0.0753,0.1218 -0.83174,7.06239 -0.8321,7.63463 -8e-5,0.11944 -0.13397,0.17893 -0.33763,0.15 -0.25676,-0.0365 -0.33079,-0.13765 -0.30944,-0.42293 0.0154,-0.20625 0.17645,-1.90564 0.3578,-3.77643 0.18135,-1.87078 0.2888,-3.5081 0.23877,-3.63848 -0.0826,-0.21528 -3.84885,-0.23671 -41.0078,-0.23332 -40.61806,0.004 -44.44183,-0.0379 -44.44183,-0.48318 0,-0.0647 19.15313,-0.14071 42.5625,-0.16901 24.68366,-0.0298 42.87754,-0.10882 43.3125,-0.18802 1.30448,-0.23752 1.04758,-0.65704 -0.45,-0.73484 -0.66,-0.0343 -1.875,-0.13544 -2.7,-0.22479 -0.825,-0.0893 -20.34238,-2.05015 -43.37196,-4.35733 l -41.87196,-4.19488 -18.67657,1.85765 c -10.27211,1.02171 -18.750356,1.90326 -18.84054,1.95899 -0.09117,0.0564 -0.163971,0.53032 -0.163971,1.06749 0,0.86615 -0.03105,0.96615 -0.3,0.96615 -0.266336,0 -0.3,-0.1 -0.3,-0.89115 0,-0.49013 -0.07199,-0.93564 -0.15998,-0.99002 -0.240966,-0.14892 -0.280906,-0.05 -0.386038,0.95582 -0.08887,0.85023 -0.125979,0.92535 -0.457148,0.92535 -0.322488,0 -0.352294,-0.0513 -0.283158,-0.4875 0.573644,-3.61913 0.574505,-7.82022 0.0023,-11.325 -0.07142,-0.43745 -0.04238,-0.4875 0.282833,-0.4875 0.332074,0 0.37104,0.0762 0.465337,0.90965 0.131763,1.16464 0.44303,1.12833 0.50582,-0.059 0.06966,-1.31716 0.630015,-1.26996 0.630015,0.0531 0,0.80176 0.03807,0.9172 0.3375,1.02326 0.185625,0.0658 8.7075,0.95127 18.9375,1.96781 l 18.6,1.84826 44.025,-4.39275 c 24.21375,-2.41601 44.37836,-4.41441 44.81025,-4.44089 l 0.78526,-0.0481 0.0397,9.25687 c 0.09,20.95917 -0.006,29.28187 -0.33838,29.28187 -0.29259,0 -0.29688,-0.13204 -0.29688,-9.14115 z m -0.0362,-20.1926 c -0.034,-7.50379 -0.0661,-8.53456 -0.26375,-8.48617 -0.12375,0.0303 -18.82125,1.90125 -41.55,4.15768 -44.89564,4.45708 -42.81383,4.23961 -42.375,4.42665 0.165,0.0703 18.89625,1.98534 41.625,4.25558 22.72875,2.27023 41.56125,4.18307 41.85,4.25074 0.78445,0.18384 0.75522,0.53624 0.71375,-8.60448 z m -110.51375,1.80697 c 16.89965,-1.67 17.09619,-1.69317 16.125,-1.90082 -0.96347,-0.206 -32.179828,-3.28712 -32.334562,-3.19149 -0.07724,0.0477 -0.140439,0.70187 -0.140439,1.45363 0,1.08727 -0.05328,1.42571 -0.260508,1.6547 -0.247346,0.27331 -0.247346,0.29748 0,0.47834 0.213837,0.15637 0.260508,0.43163 0.260508,1.53646 0,1.24326 0.05597,1.54443 0.2875,1.54689 0.04812,4.5e-4 7.276247,-0.70946 16.062501,-1.57771 z m 107.7,26.48295 c 0,-0.0906 0.0993,-1.15841 0.22061,-2.37294 0.12133,-1.21452 0.29347,-2.95073 0.38252,-3.85823 0.23538,-2.39858 0.28138,-2.625 0.53337,-2.625 0.45994,0 0.4661,-0.18941 -0.20961,6.45 -0.24063,2.36431 -0.26699,2.47714 -0.58939,2.52293 -0.18563,0.0264 -0.3375,-0.0262 -0.3375,-0.11676 z M 91.786129,705.29104 c 0,-1.7 0.01667,-1.8 0.3,-1.8 0.277272,0 0.3,0.1 0.3,1.32 0,1.83909 -0.664151,1.68 7.013577,1.68 6.406314,0 7.986424,0.0926 7.986424,0.46781 0,0.0746 -3.40047,0.13219 -7.800004,0.13219 l -7.799997,0 0,-1.8 z m 18.487501,1.61299 c -1.06092,-0.34034 -0.2936,-0.41365 4.5,-0.42996 2.74313,-0.009 5.73,-0.0352 6.6375,-0.0576 0.9075,-0.0223 2.15625,0.0152 2.775,0.0834 0.61875,0.0682 1.61438,0.16847 2.2125,0.22278 0.59813,0.0543 1.0875,0.15941 1.0875,0.23353 0,0.19555 -16.59711,0.14518 -17.2125,-0.0522 z m 114.37675,-0.66908 c 0.18658,-0.0359 0.45659,-0.0345 0.6,0.003 0.1434,0.0375 -0.009,0.0669 -0.33925,0.0652 -0.33,-0.002 -0.44734,-0.0324 -0.26075,-0.0683 z m -7.11425,-0.14391 c 0.055,-0.055 0.145,-0.055 0.2,0 0.055,0.055 0.01,0.1 -0.1,0.1 -0.11,0 -0.155,-0.045 -0.1,-0.1 z m 5.61425,-0.006 c 0.18658,-0.0359 0.45658,-0.0345 0.6,0.003 0.14341,0.0375 -0.009,0.0669 -0.33925,0.0652 -0.33,-0.002 -0.44734,-0.0324 -0.26075,-0.0683 z m -7.34238,-0.14638 c 0.10828,-0.0433 0.23766,-0.038 0.2875,0.0118 0.0499,0.0498 -0.0387,0.0853 -0.19687,0.0788 -0.17474,-0.007 -0.21029,-0.0427 -0.0906,-0.0906 z m 6.14063,0.003 c 0.10312,-0.0416 0.27187,-0.0416 0.375,0 0.10312,0.0416 0.0187,0.0757 -0.1875,0.0757 -0.20625,0 -0.29063,-0.034 -0.1875,-0.0757 z m -7.34063,-0.15312 c 0.10829,-0.0433 0.23766,-0.038 0.2875,0.0118 0.0498,0.0498 -0.0387,0.0853 -0.19687,0.0788 -0.17474,-0.007 -0.21028,-0.0428 -0.0906,-0.0906 z m -124.241375,-16.585 c -0.171788,-1.0078 -0.987567,-9.75543 -0.916401,-9.8266 0.113774,-0.11377 126.387006,-12.79015 126.985906,-12.74792 0.92657,0.0653 0.84255,0.71202 -0.0925,0.71202 -0.7982,0 -124.396354,12.37989 -125.457491,12.56612 l -0.675,0.11847 0.03545,0.8202 c 0.0195,0.45112 0.102792,1.46146 0.185098,2.24521 0.711092,6.77119 0.704843,6.6 0.240959,6.6 -0.134444,0 -0.255891,-0.19348 -0.306009,-0.4875 z m 1.419504,-1.6015 0,-1.811 7.499997,0 c 4.226474,0 7.500004,0.0577 7.500004,0.13219 0,0.37206 -1.57557,0.46781 -7.698054,0.46781 -7.314316,0 -6.669757,-0.15852 -6.732895,1.65582 -0.03708,1.06556 -0.08559,1.2738 -0.306552,1.31602 -0.238275,0.0455 -0.2625,-0.11697 -0.2625,-1.76084 z M 215.208,686.88857 c 0.10828,-0.0433 0.23766,-0.038 0.2875,0.0118 0.0498,0.0498 -0.0387,0.0853 -0.19687,0.0788 -0.17474,-0.007 -0.21029,-0.0427 -0.0906,-0.0906 z m 1.29216,-0.18759 c 0.76167,-0.28323 -2.91827,-0.30994 -42.7063,-0.30994 -24.02294,0 -42.40584,-0.0566 -42.32523,-0.13023 0.48612,-0.44426 4.54922,-0.48676 45.32799,-0.47422 38.02778,0.0117 41.15294,-0.006 41.24031,-0.23369 0.052,-0.13549 -0.0717,-1.90922 -0.27486,-3.94161 -0.20317,-2.03239 -0.34114,-3.77963 -0.30662,-3.88275 0.0895,-0.26742 0.63068,-0.23278 0.63068,0.0404 0,0.57612 0.76029,7.61742 0.83566,7.73938 0.28439,0.46015 0.36434,-0.41885 0.36434,-4.00581 0,-3.4406 0.0309,-3.98272 0.23147,-4.05968 0.36403,-0.13969 0.35945,-0.19534 0.37341,4.53155 l 0.0133,4.49169 -0.87158,0.0938 c -1.72792,0.18591 -2.81598,0.24655 -2.53254,0.14116 z m 6.95784,0.0376 c 0.10828,-0.0433 0.23766,-0.038 0.2875,0.0118 0.0498,0.0498 -0.0387,0.0853 -0.19687,0.0788 -0.17474,-0.007 -0.21029,-0.0427 -0.0906,-0.0906 z m 1.04063,-0.15339 c 0.18562,-0.0358 0.48937,-0.0358 0.675,0 0.18562,0.0358 0.0337,0.065 -0.3375,0.065 -0.37125,0 -0.52313,-0.0293 -0.3375,-0.065 z m 1.50175,-0.15023 c 0.18659,-0.0359 0.45659,-0.0345 0.6,0.003 0.1434,0.0375 -0.009,0.0669 -0.33925,0.0652 -0.33,-0.002 -0.44735,-0.0324 -0.26075,-0.0683 z m -116.81425,-0.16763 c 0,-0.3986 1.55701,-0.47628 9.54642,-0.47628 7.65291,0 9.42194,0.0926 7.10358,0.37167 -1.37231,0.16521 -16.65,0.26121 -16.65,0.10461 z m 108.08675,-9.81378 c -0.076,-0.48232 -0.18605,-1.53122 -0.6157,-5.86939 -0.28013,-2.82843 -0.28683,-2.67341 0.11304,-2.61604 0.31349,0.045 0.34536,0.16356 0.51682,1.92293 0.10051,1.03125 0.29662,2.93361 0.43581,4.22748 0.13919,1.29386 0.21248,2.45823 0.16288,2.5875 -0.16004,0.41706 -0.53143,0.26406 -0.61285,-0.25248 z m 2.01325,-4.2265 c 0,-4.49713 0.006,-4.586 0.3022,-4.586 0.4401,0 0.40077,9.03675 -0.0397,9.1215 -0.24538,0.0472 -0.2625,-0.24864 -0.2625,-4.5355 z m 179.24999,-3.84163 c 0,-0.377 0.64331,-5.07763 0.95096,-6.94865 0.29836,-1.81451 0.3508,-1.97452 0.66154,-2.01865 0.18563,-0.0264 0.3375,-0.004 0.3375,0.0505 0,0.0541 -0.2313,1.66197 -0.51399,3.57294 -0.28269,1.91096 -0.56956,3.91323 -0.6375,4.44948 -0.10795,0.85226 -0.166,0.98103 -0.46101,1.02293 -0.18594,0.0264 -0.3375,-0.0313 -0.3375,-0.12856 z m 6.3,-4.49437 c 0,-4.4 0.007,-4.5 0.3,-4.5 0.29334,0 0.3,0.1 0.3,4.5 0,4.4 -0.007,4.5 -0.3,4.5 -0.29334,0 -0.3,-0.1 -0.3,-4.5 z m 51.15,-0.9 c 0,-4.1 0.007,-4.2 0.3,-4.2 0.29286,0 0.3,0.1 0.3,4.2 0,4.1 -0.007,4.2 -0.3,4.2 -0.29286,0 -0.3,-0.1 -0.3,-4.2 z m -55.94737,-4.60207 c 0.003,-0.26747 0.35686,-2.38661 0.59737,-3.57293 0.11532,-0.56881 0.47156,-2.46764 0.7509,-4.00253 0.16865,-0.92655 0.39449,-1.32247 0.75438,-1.32247 0.35426,0 0.369,0.23597 0.0789,1.26182 -0.11871,0.41975 -0.2867,1.13443 -0.37329,1.58818 -0.0866,0.45375 -0.30104,1.5675 -0.47652,2.475 -0.17549,0.9075 -0.39563,2.1225 -0.48921,2.7 -0.16784,1.03577 -0.85088,1.74345 -0.84252,0.87293 z m 4.9005,0.1552 c -0.30048,-0.30049 -0.10802,-9.05313 0.19908,-9.05313 0.29712,0 0.30153,0.0759 0.2625,4.52505 -0.0378,4.30438 -0.0977,4.89199 -0.46158,4.52808 z m 51.04687,-4.55313 c 0,-4.1 0.007,-4.2 0.3,-4.2 0.29286,0 0.3,0.1 0.3,4.2 0,4.1 -0.007,4.2 -0.3,4.2 -0.29286,0 -0.3,-0.1 -0.3,-4.2 z m 400.79999,-1.875 c 0,-0.275 0.08,-0.375 0.3,-0.375 0.22001,0 0.3,0.1 0.3,0.375 0,0.275 -0.08,0.375 -0.3,0.375 -0.22,0 -0.3,-0.1 -0.3,-0.375 z m -400.79999,-8.595 c 0,-4.21 -0.0463,-5.71635 -0.18,-5.85 -0.26176,-0.26177 -49.92823,-0.26177 -50.19,0 -0.13348,0.13348 -0.18,1.60667 -0.18,5.7 0,5.42 -0.005,5.52 -0.3,5.52 -0.29271,0 -0.3,-0.1 -0.3,-4.11615 0,-3.71244 -0.0916,-4.74341 -0.35928,-4.04572 -0.0499,0.13002 -0.0907,0.36731 -0.0907,0.5273 0,0.15999 -0.13053,0.77885 -0.29005,1.37523 -0.15954,0.59639 -0.42201,1.62434 -0.58326,2.28434 -0.16127,0.66 -0.37779,1.5375 -0.48117,1.95 -0.10338,0.4125 -0.22904,1.02 -0.27924,1.35 -0.0797,0.52365 -0.14621,0.60628 -0.52301,0.64932 -0.40746,0.0465 -0.42525,0.0255 -0.31645,-0.375 0.0634,-0.23338 0.16659,-0.69432 0.22933,-1.02432 0.26306,-1.38362 0.95729,-4.26833 1.35626,-5.63564 0.15817,-0.54211 0.28852,-1.11586 0.28965,-1.275 10e-4,-0.15915 0.22486,-1.03186 0.49719,-1.93936 l 0.49513,-1.65 25.90281,-0.0379 25.90281,-0.0379 0,6.15043 c 0,6.05042 -0.005,6.15042 -0.3,6.15042 -0.2947,0 -0.3,-0.1 -0.3,-5.67 z"
         id="path6024"
         inkscape:connector-curvature="0" />
    </g>
  </g>
</svg>
