<?xml version="1.0" encoding="UTF-8" standalone="no"?>
<!-- Created with Inkscape (http://www.inkscape.org/) -->

<svg
   xmlns:dc="http://purl.org/dc/elements/1.1/"
   xmlns:cc="http://creativecommons.org/ns#"
   xmlns:rdf="http://www.w3.org/1999/02/22-rdf-syntax-ns#"
   xmlns:svg="http://www.w3.org/2000/svg"
   xmlns="http://www.w3.org/2000/svg"
   xmlns:sodipodi="http://sodipodi.sourceforge.net/DTD/sodipodi-0.dtd"
   xmlns:inkscape="http://www.inkscape.org/namespaces/inkscape"
   width="161.8293mm"
   height="180.68967mm"
   viewBox="0 0 573.41091 640.23897"
   id="svg2"
   version="1.1"
   inkscape:version="0.91 r13725"
   sodipodi:docname="processV.svg">
  <defs
     id="defs4" />
  <sodipodi:namedview
     id="base"
     pagecolor="#b1b1b1"
     bordercolor="#666666"
     borderopacity="1.0"
     inkscape:pageopacity="1"
     inkscape:pageshadow="2"
     inkscape:zoom="0.7"
     inkscape:cx="249.74851"
     inkscape:cy="298.29488"
     inkscape:document-units="px"
     inkscape:current-layer="layer1"
     showgrid="false"
     showguides="true"
     inkscape:guide-bbox="true"
     inkscape:object-paths="false"
     inkscape:snap-intersection-paths="false"
     inkscape:object-nodes="true"
     inkscape:snap-smooth-nodes="false"
     inkscape:window-width="1304"
     inkscape:window-height="745"
     inkscape:window-x="54"
     inkscape:window-y="-8"
     inkscape:window-maximized="1"
     inkscape:snap-nodes="true"
     inkscape:snap-object-midpoints="false"
     inkscape:snap-center="false"
     inkscape:snap-midpoints="false"
     fit-margin-top="0"
     fit-margin-left="0"
     fit-margin-right="0"
     fit-margin-bottom="0">
    <sodipodi:guide
       position="120.91085,162.20898"
       orientation="0,1"
       id="guide4303" />
  </sodipodi:namedview>
  <metadata
     id="metadata7">
    <rdf:RDF>
      <cc:Work
         rdf:about="">
        <dc:format>image/svg+xml</dc:format>
        <dc:type
           rdf:resource="http://purl.org/dc/dcmitype/StillImage" />
        <dc:title></dc:title>
      </cc:Work>
    </rdf:RDF>
  </metadata>
  <g
     inkscape:label="Ebene 1"
     inkscape:groupmode="layer"
     id="layer1"
     transform="translate(-79.803443,-269.15361)">
    <rect
       style="opacity:1;fill:#ffffff;fill-opacity:1;stroke:none;stroke-width:2;stroke-miterlimit:4;stroke-dasharray:6, 6;stroke-dashoffset:0;stroke-opacity:1"
       id="rect5122"
       width="581.42853"
       height="644.28564"
       x="77.660599"
       y="270.1069" />
    <rect
       style="opacity:1;fill:#ad7fa8;fill-opacity:1;stroke:#000000;stroke-width:0.68536574;stroke-miterlimit:4;stroke-dasharray:none;stroke-dashoffset:0;stroke-opacity:1"
       id="rect4136"
       width="84.997528"
       height="13.034116"
       x="341.60437"
       y="301.64825" />
    <path
       inkscape:connector-curvature="0"
       style="opacity:1;fill:#ad7fa8;fill-opacity:1;stroke:#000000;stroke-width:0.68536574;stroke-miterlimit:4;stroke-dasharray:none;stroke-dashoffset:0;stroke-opacity:1"
       d="m 269.5863,269.49629 a 42.084023,42.084023 0 0 0 -42.08306,42.08439 42.084023,42.084023 0 0 0 21.44846,36.65101 l 41.21565,0 a 42.084023,42.084023 0 0 0 21.50335,-36.65101 42.084023,42.084023 0 0 0 -42.0844,-42.08439 z"
       id="path4140" />
    <rect
       style="opacity:1;fill:#ad7fa8;fill-opacity:1;stroke:#000000;stroke-width:0.68536574;stroke-miterlimit:4;stroke-dasharray:none;stroke-dashoffset:0;stroke-opacity:1"
       id="rect4136-4"
       width="84.997528"
       height="13.034116"
       x="341.60437"
       y="395.11792" />
    <path
       inkscape:connector-curvature="0"
       style="opacity:1;fill:#ad7fa8;fill-opacity:1;stroke:#000000;stroke-width:0.68536574;stroke-miterlimit:4;stroke-dasharray:none;stroke-dashoffset:0;stroke-opacity:1"
       d="m 269.5863,362.96597 a 42.084023,42.084023 0 0 0 -42.08306,42.0844 42.084023,42.084023 0 0 0 21.44846,36.651 l 41.21565,0 a 42.084023,42.084023 0 0 0 21.50335,-36.651 42.084023,42.084023 0 0 0 -42.0844,-42.0844 z"
       id="path4140-6" />
    <rect
       style="opacity:1;fill:#c17d11;fill-opacity:1;stroke:#000000;stroke-width:0.39541808;stroke-miterlimit:4;stroke-dasharray:none;stroke-dashoffset:0;stroke-opacity:1"
       id="rect4136-2-4"
       width="85.287476"
       height="4.323853"
       x="341.31439"
       y="390.79407" />
    <path
       inkscape:connector-curvature="0"
       style="opacity:1;fill:#c17d11;fill-opacity:1;stroke:#000000;stroke-width:0.68536574;stroke-miterlimit:4;stroke-dasharray:none;stroke-dashoffset:0;stroke-opacity:1"
       d="m 269.5863,362.96597 a 42.084023,42.084023 0 0 0 -42.08306,42.0844 42.084023,42.084023 0 0 0 21.44846,36.651 l 41.21565,0 a 42.084023,42.084023 0 0 0 21.50335,-36.651 42.084023,42.084023 0 0 0 -42.0844,-42.0844 z"
       id="path4140-4-4" />
    <rect
       style="opacity:1;fill:#ad7fa8;fill-opacity:1;stroke:#000000;stroke-width:0.68536574;stroke-miterlimit:4;stroke-dasharray:none;stroke-dashoffset:0;stroke-opacity:1"
       id="rect4136-4-2"
       width="84.997528"
       height="13.034116"
       x="341.60437"
       y="488.5874" />
    <path
       inkscape:connector-curvature="0"
       style="opacity:1;fill:#ad7fa8;fill-opacity:1;stroke:#000000;stroke-width:0.68536574;stroke-miterlimit:4;stroke-dasharray:none;stroke-dashoffset:0;stroke-opacity:1"
       d="m 269.5863,456.43544 a 42.084023,42.084023 0 0 0 -42.08306,42.08439 42.084023,42.084023 0 0 0 21.44847,36.65101 l 41.21565,0 a 42.084023,42.084023 0 0 0 21.50335,-36.65101 42.084023,42.084023 0 0 0 -42.08441,-42.08439 z"
       id="path4140-6-6" />
    <rect
       style="opacity:1;fill:#c17d11;fill-opacity:1;stroke:#000000;stroke-width:0.39541808;stroke-miterlimit:4;stroke-dasharray:none;stroke-dashoffset:0;stroke-opacity:1"
       id="rect4136-2-4-8"
       width="85.287476"
       height="4.323853"
       x="341.31439"
       y="484.26352" />
    <path
       inkscape:connector-curvature="0"
       style="opacity:1;fill:#c17d11;fill-opacity:1;stroke:#000000;stroke-width:0.68536574;stroke-miterlimit:4;stroke-dasharray:none;stroke-dashoffset:0;stroke-opacity:1"
       d="m 269.5863,456.43544 a 42.084023,42.084023 0 0 0 -42.08306,42.08439 42.084023,42.084023 0 0 0 21.44847,36.65101 l 41.21565,0 a 42.084023,42.084023 0 0 0 21.50335,-36.65101 42.084023,42.084023 0 0 0 -42.08441,-42.08439 z"
       id="path4140-4-4-5" />
    <path
       inkscape:connector-curvature="0"
       style="opacity:0.75800003;fill:#ef2929;fill-opacity:1;stroke:#000000;stroke-width:0.68536574;stroke-miterlimit:4;stroke-dasharray:none;stroke-dashoffset:0;stroke-opacity:1"
       d="m 269.58669,456.43589 a 42.084023,42.084023 0 0 0 -42.08306,42.0844 42.084023,42.084023 0 0 0 21.44846,36.651 l 41.21564,0 a 42.084023,42.084023 0 0 0 21.50335,-36.651 42.084023,42.084023 0 0 0 -42.08439,-42.0844 z m -0.22756,14.24544 a 21.939199,21.939199 0 0 1 21.93973,21.93973 21.939199,21.939199 0 0 1 -16.0646,21.11515 l 0,17.02839 -11.75027,0 0,-17.0043 a 21.939199,21.939199 0 0 1 -16.0646,-21.13924 21.939199,21.939199 0 0 1 21.93974,-21.93973 z m 0,13.15446 a 8.7850437,8.7850437 0 0 0 -8.78527,8.78527 8.7850437,8.7850437 0 0 0 8.78527,8.78526 8.7850437,8.7850437 0 0 0 8.78526,-8.78526 8.7850437,8.7850437 0 0 0 -8.78526,-8.78527 z"
       id="path4140-4-4-5-7" />
    <rect
       style="opacity:1;fill:#ef2929;fill-opacity:1;stroke:#000000;stroke-width:0.1871831;stroke-miterlimit:4;stroke-dasharray:none;stroke-dashoffset:0;stroke-opacity:1"
       id="rect4136-2-4-8-0"
       width="19.111969"
       height="4.323853"
       x="374.40216"
       y="479.93967" />
    <rect
       style="opacity:1;fill:#ef2929;fill-opacity:1;stroke:#000000;stroke-width:0.1871831;stroke-miterlimit:4;stroke-dasharray:none;stroke-dashoffset:0;stroke-opacity:1"
       id="rect4136-2-4-8-0-8"
       width="19.111969"
       height="4.323853"
       x="341.31439"
       y="479.93967" />
    <rect
       style="opacity:1;fill:#ef2929;fill-opacity:1;stroke:#000000;stroke-width:0.1871831;stroke-miterlimit:4;stroke-dasharray:none;stroke-dashoffset:0;stroke-opacity:1"
       id="rect4136-2-4-8-0-6"
       width="19.111969"
       height="4.323853"
       x="407.4899"
       y="479.93967" />
    <rect
       style="opacity:1;fill:#ad7fa8;fill-opacity:1;stroke:#000000;stroke-width:0.68536574;stroke-miterlimit:4;stroke-dasharray:none;stroke-dashoffset:0;stroke-opacity:1"
       id="rect4136-4-2-6"
       width="84.997528"
       height="13.034116"
       x="341.60437"
       y="582.05743" />
    <path
       inkscape:connector-curvature="0"
       style="opacity:1;fill:#ad7fa8;fill-opacity:1;stroke:#000000;stroke-width:0.68536574;stroke-miterlimit:4;stroke-dasharray:none;stroke-dashoffset:0;stroke-opacity:1"
       d="m 269.5863,549.9054 a 42.084023,42.084023 0 0 0 -42.08306,42.0844 42.084023,42.084023 0 0 0 21.44846,36.651 l 41.21565,0 a 42.084023,42.084023 0 0 0 21.50335,-36.651 42.084023,42.084023 0 0 0 -42.0844,-42.0844 z"
       id="path4140-6-6-8" />
    <rect
       style="opacity:1;fill:#c17d11;fill-opacity:1;stroke:#000000;stroke-width:0.39541808;stroke-miterlimit:4;stroke-dasharray:none;stroke-dashoffset:0;stroke-opacity:1"
       id="rect4136-2-4-8-1"
       width="85.287476"
       height="4.323853"
       x="341.31439"
       y="577.73352" />
    <path
       inkscape:connector-curvature="0"
       style="opacity:1;fill:#c17d11;fill-opacity:1;stroke:#000000;stroke-width:0.68536574;stroke-miterlimit:4;stroke-dasharray:none;stroke-dashoffset:0;stroke-opacity:1"
       d="m 269.5863,549.9054 a 42.084023,42.084023 0 0 0 -42.08306,42.0844 42.084023,42.084023 0 0 0 21.44846,36.651 l 41.21565,0 a 42.084023,42.084023 0 0 0 21.50335,-36.651 42.084023,42.084023 0 0 0 -42.0844,-42.0844 z"
       id="path4140-4-4-5-6" />
    <path
       inkscape:connector-curvature="0"
       style="opacity:1;fill:#888a85;fill-opacity:1;stroke:#000000;stroke-width:0.68536574;stroke-miterlimit:4;stroke-dasharray:none;stroke-dashoffset:0;stroke-opacity:1"
       d="m 269.35912,564.15107 a 21.939199,21.939199 0 0 0 -21.93973,21.93973 21.939199,21.939199 0 0 0 16.06459,21.13925 l 0,17.0043 11.75028,0 0,-17.02839 a 21.939199,21.939199 0 0 0 16.0646,-21.11516 21.939199,21.939199 0 0 0 -21.93974,-21.93973 z m 0,13.15446 a 8.7850437,8.7850437 0 0 1 8.78527,8.78527 8.7850437,8.7850437 0 0 1 -8.78527,8.78526 8.7850437,8.7850437 0 0 1 -8.78526,-8.78526 8.7850437,8.7850437 0 0 1 8.78526,-8.78527 z"
       id="path4252" />
    <rect
       style="opacity:1;fill:#888a85;fill-opacity:1;stroke:#000000;stroke-width:0.11231408;stroke-miterlimit:4;stroke-dasharray:none;stroke-dashoffset:0;stroke-opacity:1"
       id="rect4136-2-4-8-0-8-2-2"
       width="14.023538"
       height="2.1215534"
       x="360.4025"
       y="575.6358" />
    <rect
       style="opacity:1;fill:#888a85;fill-opacity:1;stroke:#000000;stroke-width:0.10777784;stroke-miterlimit:4;stroke-dasharray:none;stroke-dashoffset:0;stroke-opacity:1"
       id="rect4136-2-4-8-0-8-2-2-3"
       width="14.028075"
       height="1.9530087"
       x="393.48795"
       y="575.80664" />
    <rect
       style="opacity:1;fill:#ad7fa8;fill-opacity:1;stroke:#000000;stroke-width:0.68536574;stroke-miterlimit:4;stroke-dasharray:none;stroke-dashoffset:0;stroke-opacity:1"
       id="rect4136-4-2-6-2-5"
       width="84.997528"
       height="13.034116"
       x="341.31439"
       y="768.9967" />
    <path
       inkscape:connector-curvature="0"
       style="opacity:1;fill:#ad7fa8;fill-opacity:1;stroke:#000000;stroke-width:0.68536574;stroke-miterlimit:4;stroke-dasharray:none;stroke-dashoffset:0;stroke-opacity:1"
       d="m 269.5863,736.8448 a 42.084023,42.084023 0 0 0 -42.08306,42.08439 42.084023,42.084023 0 0 0 21.44847,36.65101 l 41.21564,0 A 42.084023,42.084023 0 0 0 311.6707,778.92919 42.084023,42.084023 0 0 0 269.5863,736.8448 Z"
       id="path4140-6-6-8-0-2" />
    <rect
       style="opacity:1;fill:#c17d11;fill-opacity:1;stroke:#000000;stroke-width:0.39541808;stroke-miterlimit:4;stroke-dasharray:none;stroke-dashoffset:0;stroke-opacity:1"
       id="rect4136-2-4-8-1-6-4"
       width="85.287476"
       height="4.323853"
       x="341.31439"
       y="764.67285" />
    <path
       inkscape:connector-curvature="0"
       style="opacity:1;fill:#c17d11;fill-opacity:1;stroke:#000000;stroke-width:0.68536574;stroke-miterlimit:4;stroke-dasharray:none;stroke-dashoffset:0;stroke-opacity:1"
       d="m 269.5863,736.8448 a 42.084023,42.084023 0 0 0 -42.08306,42.08439 42.084023,42.084023 0 0 0 21.44847,36.65101 l 41.21564,0 A 42.084023,42.084023 0 0 0 311.6707,778.92919 42.084023,42.084023 0 0 0 269.5863,736.8448 Z"
       id="path4140-4-4-5-6-6-7" />
    <path
       inkscape:connector-curvature="0"
       style="opacity:1;fill:#888a85;fill-opacity:1;stroke:#000000;stroke-width:0.68536574;stroke-miterlimit:4;stroke-dasharray:none;stroke-dashoffset:0;stroke-opacity:1"
       d="m 269.35912,751.09047 a 21.939199,21.939199 0 0 0 -21.93973,21.93973 21.939199,21.939199 0 0 0 16.06459,21.13925 l 0,17.0043 11.75028,0 0,-17.0284 a 21.939199,21.939199 0 0 0 16.0646,-21.11515 21.939199,21.939199 0 0 0 -21.93974,-21.93973 z m 0,13.15446 a 8.7850437,8.7850437 0 0 1 8.78527,8.78527 8.7850437,8.7850437 0 0 1 -8.78527,8.78526 8.7850437,8.7850437 0 0 1 -8.78526,-8.78526 8.7850437,8.7850437 0 0 1 8.78526,-8.78527 z"
       id="path4252-5-4" />
    <rect
       style="opacity:1;fill:#c17d11;fill-opacity:1;stroke:#000000;stroke-width:0.39541808;stroke-miterlimit:4;stroke-dasharray:none;stroke-dashoffset:0;stroke-opacity:1"
       id="rect4136-2-4-8-1-6-7-7"
       width="85.287476"
       height="4.323853"
       x="341.31436"
       y="760.349" />
    <rect
       style="opacity:1;fill:#888a85;fill-opacity:1;stroke:#000000;stroke-width:0.11231408;stroke-miterlimit:4;stroke-dasharray:none;stroke-dashoffset:0;stroke-opacity:1"
       id="rect4136-2-4-8-0-8-2-2-2-4"
       width="14.023538"
       height="2.1215534"
       x="360.4025"
       y="762.5752" />
    <rect
       style="opacity:1;fill:#888a85;fill-opacity:1;stroke:#000000;stroke-width:0.10777784;stroke-miterlimit:4;stroke-dasharray:none;stroke-dashoffset:0;stroke-opacity:1"
       id="rect4136-2-4-8-0-8-2-2-3-6-6"
       width="14.028075"
       height="1.9530087"
       x="393.48801"
       y="762.74597" />
    <path
       inkscape:connector-curvature="0"
       style="opacity:0.5;fill:#c17d11;fill-opacity:1;stroke:#000000;stroke-width:0.68536574;stroke-miterlimit:4;stroke-dasharray:none;stroke-dashoffset:0;stroke-opacity:1"
       d="m 269.5863,736.8448 a 42.084023,42.084023 0 0 0 -42.08306,42.08439 42.084023,42.084023 0 0 0 21.44847,36.65101 l 41.21564,0 A 42.084023,42.084023 0 0 0 311.6707,778.92919 42.084023,42.084023 0 0 0 269.5863,736.8448 Z"
       id="path4140-4-4-6-1" />
    <path
       inkscape:connector-curvature="0"
       style="opacity:0.75099996;fill:#ef2929;fill-opacity:1;stroke:#000000;stroke-width:0.685;stroke-miterlimit:4;stroke-dasharray:none;stroke-dashoffset:0;stroke-opacity:1"
       d="m 244.4874,747.84192 0,64.82618 48.53711,0 0,-64.82618 -48.53711,0 z m 24.62695,10.17774 a 14.642857,14.642857 0 0 1 14.64258,14.64453 14.642857,14.642857 0 0 1 -14.64258,14.64258 14.642857,14.642857 0 0 1 -14.64257,-14.64258 14.642857,14.642857 0 0 1 14.64257,-14.64453 z"
       id="rect4286-7-9" />
    <rect
       style="opacity:1;fill:#ef2929;fill-opacity:1;stroke:#000000;stroke-width:0.17515576;stroke-miterlimit:4;stroke-dasharray:none;stroke-dashoffset:0;stroke-opacity:1"
       id="rect4136-2-4-8-1-6-4-4"
       width="16.734823"
       height="4.323853"
       x="400.35773"
       y="756.02515" />
    <rect
       style="opacity:1;fill:#ef2929;fill-opacity:1;stroke:#000000;stroke-width:0.17515576;stroke-miterlimit:4;stroke-dasharray:none;stroke-dashoffset:0;stroke-opacity:1"
       id="rect4136-2-4-8-1-6-4-4-0"
       width="16.734823"
       height="4.323853"
       x="350.42572"
       y="756.02515" />
    <rect
       style="opacity:1;fill:#ad7fa8;fill-opacity:1;stroke:#000000;stroke-width:0.68536574;stroke-miterlimit:4;stroke-dasharray:none;stroke-dashoffset:0;stroke-opacity:1"
       id="rect4136-4-2-6-2"
       width="84.997528"
       height="13.034116"
       x="341.60431"
       y="675.52698" />
    <path
       inkscape:connector-curvature="0"
       style="opacity:1;fill:#ad7fa8;fill-opacity:1;stroke:#000000;stroke-width:0.68536574;stroke-miterlimit:4;stroke-dasharray:none;stroke-dashoffset:0;stroke-opacity:1"
       d="m 269.5863,643.37507 a 42.084023,42.084023 0 0 0 -42.08306,42.08439 42.084023,42.084023 0 0 0 21.44846,36.65101 l 41.21565,0 a 42.084023,42.084023 0 0 0 21.50335,-36.65101 42.084023,42.084023 0 0 0 -42.0844,-42.08439 z"
       id="path4140-6-6-8-0" />
    <rect
       style="opacity:1;fill:#c17d11;fill-opacity:1;stroke:#000000;stroke-width:0.39541808;stroke-miterlimit:4;stroke-dasharray:none;stroke-dashoffset:0;stroke-opacity:1"
       id="rect4136-2-4-8-1-6"
       width="85.287476"
       height="4.323853"
       x="341.31439"
       y="671.20312" />
    <path
       inkscape:connector-curvature="0"
       style="opacity:1;fill:#c17d11;fill-opacity:1;stroke:#000000;stroke-width:0.68536574;stroke-miterlimit:4;stroke-dasharray:none;stroke-dashoffset:0;stroke-opacity:1"
       d="m 269.5863,643.37507 a 42.084023,42.084023 0 0 0 -42.08306,42.08439 42.084023,42.084023 0 0 0 21.44846,36.65101 l 41.21565,0 a 42.084023,42.084023 0 0 0 21.50335,-36.65101 42.084023,42.084023 0 0 0 -42.0844,-42.08439 z"
       id="path4140-4-4-5-6-6" />
    <path
       inkscape:connector-curvature="0"
       style="opacity:1;fill:#888a85;fill-opacity:1;stroke:#000000;stroke-width:0.68536574;stroke-miterlimit:4;stroke-dasharray:none;stroke-dashoffset:0;stroke-opacity:1"
       d="m 269.35912,657.62074 a 21.939199,21.939199 0 0 0 -21.93974,21.93973 21.939199,21.939199 0 0 0 16.0646,21.13925 l 0,17.0043 11.75028,0 0,-17.02839 a 21.939199,21.939199 0 0 0 16.06459,-21.11516 21.939199,21.939199 0 0 0 -21.93973,-21.93973 z m 0,13.15446 a 8.7850437,8.7850437 0 0 1 8.78526,8.78527 8.7850437,8.7850437 0 0 1 -8.78526,8.78526 8.7850437,8.7850437 0 0 1 -8.78526,-8.78526 8.7850437,8.7850437 0 0 1 8.78526,-8.78527 z"
       id="path4252-5" />
    <rect
       style="opacity:1;fill:#c17d11;fill-opacity:1;stroke:#000000;stroke-width:0.39541808;stroke-miterlimit:4;stroke-dasharray:none;stroke-dashoffset:0;stroke-opacity:1"
       id="rect4136-2-4-8-1-6-7"
       width="85.287476"
       height="4.323853"
       x="341.31436"
       y="666.87927" />
    <rect
       style="opacity:1;fill:#888a85;fill-opacity:1;stroke:#000000;stroke-width:0.11231408;stroke-miterlimit:4;stroke-dasharray:none;stroke-dashoffset:0;stroke-opacity:1"
       id="rect4136-2-4-8-0-8-2-2-2"
       width="14.023538"
       height="2.1215534"
       x="360.4025"
       y="669.10547" />
    <rect
       style="opacity:1;fill:#888a85;fill-opacity:1;stroke:#000000;stroke-width:0.10777784;stroke-miterlimit:4;stroke-dasharray:none;stroke-dashoffset:0;stroke-opacity:1"
       id="rect4136-2-4-8-0-8-2-2-3-6"
       width="14.028075"
       height="1.9530087"
       x="393.48798"
       y="669.27625" />
    <path
       inkscape:connector-curvature="0"
       style="opacity:0.5;fill:#c17d11;fill-opacity:1;stroke:#000000;stroke-width:0.68536574;stroke-miterlimit:4;stroke-dasharray:none;stroke-dashoffset:0;stroke-opacity:1"
       d="m 269.5863,643.37507 a 42.084023,42.084023 0 0 0 -42.08306,42.08439 42.084023,42.084023 0 0 0 21.44846,36.65101 l 41.21565,0 a 42.084023,42.084023 0 0 0 21.50335,-36.65101 42.084023,42.084023 0 0 0 -42.0844,-42.08439 z"
       id="path4140-4-4-6" />
    <rect
       style="opacity:1;fill:#ad7fa8;fill-opacity:1;stroke:#000000;stroke-width:0.68536574;stroke-miterlimit:4;stroke-dasharray:none;stroke-dashoffset:0;stroke-opacity:1"
       id="rect4136-4-2-6-2-5-9"
       width="84.997528"
       height="13.034116"
       x="341.31439"
       y="862.46637" />
    <path
       inkscape:connector-curvature="0"
       style="opacity:1;fill:#ad7fa8;fill-opacity:1;stroke:#000000;stroke-width:0.68536574;stroke-miterlimit:4;stroke-dasharray:none;stroke-dashoffset:0;stroke-opacity:1"
       d="m 269.5863,830.3145 a 42.084023,42.084023 0 0 0 -42.08306,42.08439 42.084023,42.084023 0 0 0 21.44847,36.65103 l 41.21564,0 A 42.084023,42.084023 0 0 0 311.6707,872.39889 42.084023,42.084023 0 0 0 269.5863,830.3145 Z"
       id="path4140-6-6-8-0-2-2" />
    <rect
       style="opacity:1;fill:#c17d11;fill-opacity:1;stroke:#000000;stroke-width:0.21096557;stroke-miterlimit:4;stroke-dasharray:none;stroke-dashoffset:0;stroke-opacity:1"
       id="rect4136-2-4-8-1-6-4-0"
       width="24.140104"
       height="4.3483777"
       x="350.29819"
       y="858.13025" />
    <path
       inkscape:connector-curvature="0"
       style="opacity:1;fill:#888a85;fill-opacity:1;stroke:#000000;stroke-width:0.68536574;stroke-miterlimit:4;stroke-dasharray:none;stroke-dashoffset:0;stroke-opacity:1"
       d="m 269.35912,844.56016 a 21.939199,21.939199 0 0 0 -21.93973,21.93973 21.939199,21.939199 0 0 0 16.06459,21.13927 l 0,17.00434 11.75028,0 0,-17.02839 a 21.939199,21.939199 0 0 0 16.0646,-21.11522 21.939199,21.939199 0 0 0 -21.93974,-21.93973 z m 0,13.15447 a 8.7850437,8.7850437 0 0 1 8.78527,8.78526 8.7850437,8.7850437 0 0 1 -8.78527,8.78527 8.7850437,8.7850437 0 0 1 -8.78526,-8.78527 8.7850437,8.7850437 0 0 1 8.78526,-8.78526 z"
       id="path4252-5-4-5" />
    <rect
       style="opacity:1;fill:#c17d11;fill-opacity:1;stroke:#000000;stroke-width:0.17515576;stroke-miterlimit:4;stroke-dasharray:none;stroke-dashoffset:0;stroke-opacity:1"
       id="rect4136-2-4-8-1-6-4-4-3"
       width="16.734823"
       height="4.323853"
       x="400.26752"
       y="853.81866" />
    <rect
       style="opacity:1;fill:#c17d11;fill-opacity:1;stroke:#000000;stroke-width:0.17515576;stroke-miterlimit:4;stroke-dasharray:none;stroke-dashoffset:0;stroke-opacity:1"
       id="rect4136-2-4-8-1-6-4-4-0-5"
       width="16.734823"
       height="4.323853"
       x="350.33554"
       y="853.81866" />
    <rect
       style="opacity:1;fill:#888a85;fill-opacity:1;stroke:#000000;stroke-width:0.11231408;stroke-miterlimit:4;stroke-dasharray:none;stroke-dashoffset:0;stroke-opacity:1"
       id="rect4136-2-4-8-0-8-2-2-2-4-9"
       width="14.023538"
       height="2.1215534"
       x="360.4025"
       y="856.04486" />
    <rect
       style="opacity:1;fill:#888a85;fill-opacity:1;stroke:#000000;stroke-width:0.10777784;stroke-miterlimit:4;stroke-dasharray:none;stroke-dashoffset:0;stroke-opacity:1"
       id="rect4136-2-4-8-0-8-2-2-3-6-6-8"
       width="14.028075"
       height="1.9530087"
       x="393.48801"
       y="856.21564" />
    <rect
       style="opacity:1;fill:#c17d11;fill-opacity:1;stroke:#000000;stroke-width:0.20889187;stroke-miterlimit:4;stroke-dasharray:none;stroke-dashoffset:0;stroke-opacity:1"
       id="rect4136-2-4-8-1-6-4-0-5"
       width="23.802105"
       height="4.323853"
       x="393.20026"
       y="858.14252" />
    <rect
       style="opacity:1;fill:#ffffff;fill-opacity:1;stroke:#000000;stroke-width:0.69940186;stroke-miterlimit:4;stroke-dasharray:none;stroke-dashoffset:0;stroke-opacity:1"
       id="rect4413"
       width="84.677582"
       height="84.677582"
       x="122.97424"
       y="456.7713" />
    <path
       inkscape:connector-curvature="0"
       style="opacity:1;fill:#000000;fill-opacity:1;stroke:#000000;stroke-width:0.68536574;stroke-miterlimit:4;stroke-dasharray:none;stroke-dashoffset:0;stroke-opacity:1"
       d="m 165.31304,470.78186 a 21.939199,21.939199 0 0 0 -21.93974,21.93973 21.939199,21.939199 0 0 0 16.0646,21.13925 l 0,17.0043 11.75028,0 0,-17.02839 a 21.939199,21.939199 0 0 0 16.06459,-21.11516 21.939199,21.939199 0 0 0 -21.93973,-21.93973 z m 0,13.15447 a 8.7850437,8.7850437 0 0 1 8.78526,8.78526 8.7850437,8.7850437 0 0 1 -8.78526,8.78527 8.7850437,8.7850437 0 0 1 -8.78527,-8.78527 8.7850437,8.7850437 0 0 1 8.78527,-8.78526 z"
       id="path4252-9" />
    <rect
       style="opacity:1;fill:#ffffff;fill-opacity:1;stroke:#000000;stroke-width:0.69940186;stroke-miterlimit:4;stroke-dasharray:none;stroke-dashoffset:0;stroke-opacity:1"
       id="rect4413-7"
       width="84.677582"
       height="84.677582"
       x="122.16537"
       y="736.29559" />
    <text
       xml:space="preserve"
       style="font-style:normal;font-weight:normal;font-size:16.41121101px;line-height:125%;font-family:sans-serif;letter-spacing:0px;word-spacing:0px;fill:#000000;fill-opacity:1;stroke:none;stroke-width:1px;stroke-linecap:butt;stroke-linejoin:miter;stroke-opacity:1"
       x="78.240852"
       y="311.79044"
       id="text4596-7-3"
       sodipodi:linespacing="125%"><tspan
         sodipodi:role="line"
         id="tspan4598-68-4"
         x="78.240852"
         y="311.79044"
         style="font-size:16.41121101px">#1</tspan></text>
    <text
       xml:space="preserve"
       style="font-style:normal;font-weight:normal;font-size:16.41121101px;line-height:125%;font-family:sans-serif;letter-spacing:0px;word-spacing:0px;fill:#000000;fill-opacity:1;stroke:none;stroke-width:1px;stroke-linecap:butt;stroke-linejoin:miter;stroke-opacity:1"
       x="78.240852"
       y="405.9906"
       id="text4596-7-0"
       sodipodi:linespacing="125%"><tspan
         sodipodi:role="line"
         id="tspan4598-68-49"
         x="78.240852"
         y="405.9906"
         style="font-size:16.41121101px">#2</tspan></text>
    <text
       xml:space="preserve"
       style="font-style:normal;font-weight:normal;font-size:16.41121101px;line-height:125%;font-family:sans-serif;letter-spacing:0px;word-spacing:0px;fill:#000000;fill-opacity:1;stroke:none;stroke-width:1px;stroke-linecap:butt;stroke-linejoin:miter;stroke-opacity:1"
       x="78.240852"
       y="499.93375"
       id="text4596-7-7"
       sodipodi:linespacing="125%"><tspan
         sodipodi:role="line"
         id="tspan4598-68-7"
         x="78.240852"
         y="499.93375"
         style="font-size:16.41121101px">#3</tspan></text>
    <text
       xml:space="preserve"
       style="font-style:normal;font-weight:normal;font-size:16.41121101px;line-height:125%;font-family:sans-serif;letter-spacing:0px;word-spacing:0px;fill:#000000;fill-opacity:1;stroke:none;stroke-width:1px;stroke-linecap:butt;stroke-linejoin:miter;stroke-opacity:1"
       x="78.240852"
       y="594.01666"
       id="text4596-7-8"
       sodipodi:linespacing="125%"><tspan
         sodipodi:role="line"
         id="tspan4598-68-1"
         x="78.240852"
         y="594.01666"
         style="font-size:16.41121101px">#4</tspan></text>
    <text
       xml:space="preserve"
       style="font-style:normal;font-weight:normal;font-size:16.41121101px;line-height:125%;font-family:sans-serif;letter-spacing:0px;word-spacing:0px;fill:#000000;fill-opacity:1;stroke:none;stroke-width:1px;stroke-linecap:butt;stroke-linejoin:miter;stroke-opacity:1"
       x="78.240852"
       y="687.9599"
       id="text4596-7-4"
       sodipodi:linespacing="125%"><tspan
         sodipodi:role="line"
         id="tspan4598-68-6"
         x="78.240852"
         y="687.9599"
         style="font-size:16.41121101px">#5</tspan></text>
    <text
       xml:space="preserve"
       style="font-style:normal;font-weight:normal;font-size:16.41121101px;line-height:125%;font-family:sans-serif;letter-spacing:0px;word-spacing:0px;fill:#000000;fill-opacity:1;stroke:none;stroke-width:1px;stroke-linecap:butt;stroke-linejoin:miter;stroke-opacity:1"
       x="78.240852"
       y="782.16901"
       id="text4596-7-2"
       sodipodi:linespacing="125%"><tspan
         sodipodi:role="line"
         id="tspan4598-68-3"
         x="78.240852"
         y="782.16901"
         style="font-size:16.41121101px">#6</tspan></text>
    <text
       xml:space="preserve"
       style="font-style:normal;font-weight:normal;font-size:16.41121101px;line-height:125%;font-family:sans-serif;letter-spacing:0px;word-spacing:0px;fill:#000000;fill-opacity:1;stroke:none;stroke-width:1px;stroke-linecap:butt;stroke-linejoin:miter;stroke-opacity:1"
       x="78.240852"
       y="876.26544"
       id="text4596-7-44"
       sodipodi:linespacing="125%"><tspan
         sodipodi:role="line"
         id="tspan4598-68-32"
         x="78.240852"
         y="876.26544"
         style="font-size:16.41121101px">#7</tspan></text>
    <flowRoot
       xml:space="preserve"
       id="flowRoot4732"
       style="font-style:normal;font-weight:normal;font-size:40px;line-height:125%;font-family:sans-serif;letter-spacing:0px;word-spacing:0px;fill:#000000;fill-opacity:1;stroke:none;stroke-width:1px;stroke-linecap:butt;stroke-linejoin:miter;stroke-opacity:1"><flowRegion
         id="flowRegion4734"><rect
           id="rect4736"
           width="75.714287"
           height="734.28571"
           x="14.285714"
           y="183.79077" /></flowRegion><flowPara
         id="flowPara4738" /></flowRoot>    <flowRoot
       xml:space="preserve"
       id="flowRoot4778"
       style="font-style:normal;font-weight:normal;font-size:40px;line-height:125%;font-family:sans-serif;letter-spacing:0px;word-spacing:0px;fill:#000000;fill-opacity:1;stroke:none;stroke-width:1px;stroke-linecap:butt;stroke-linejoin:miter;stroke-opacity:1"><flowRegion
         id="flowRegion4780"><rect
           id="rect4782"
           width="179.80716"
           height="56.568542"
           x="514.16766"
           y="396.77319" /></flowRegion><flowPara
         id="flowPara4784" /></flowRoot>    <text
       xml:space="preserve"
       style="font-style:normal;font-weight:normal;font-size:16.41121101px;line-height:125%;font-family:sans-serif;letter-spacing:0px;word-spacing:0px;fill:#000000;fill-opacity:1;stroke:none;stroke-width:1px;stroke-linecap:butt;stroke-linejoin:miter;stroke-opacity:1"
       x="458.798"
       y="307.9212"
       id="text4596-93"
       sodipodi:linespacing="125%"><tspan
         sodipodi:role="line"
         id="tspan4598-06"
         x="458.798"
         y="307.9212"
         style="font-size:12.30840778px">Polished silicon wafer</tspan></text>
    <text
       xml:space="preserve"
       style="font-style:normal;font-weight:normal;font-size:16.41121101px;line-height:125%;font-family:sans-serif;letter-spacing:0px;word-spacing:0px;fill:#000000;fill-opacity:1;stroke:none;stroke-width:1px;stroke-linecap:butt;stroke-linejoin:miter;stroke-opacity:1"
       x="458.798"
       y="394.06854"
       id="text4596-93-6"
       sodipodi:linespacing="125%"><tspan
         sodipodi:role="line"
         id="tspan4598-06-3"
         x="458.798"
         y="394.06854"
         style="font-size:12.30840778px">Spin coating of </tspan><tspan
         sodipodi:role="line"
         x="458.798"
         y="409.45404"
         style="font-size:12.30840778px"
         id="tspan4776">first layer of polyimide</tspan></text>
    <text
       xml:space="preserve"
       style="font-style:normal;font-weight:normal;font-size:16.41121101px;line-height:125%;font-family:sans-serif;letter-spacing:0px;word-spacing:0px;fill:#000000;fill-opacity:1;stroke:none;stroke-width:1px;stroke-linecap:butt;stroke-linejoin:miter;stroke-opacity:1"
       x="458.798"
       y="481.3277"
       id="text4596-93-6-4"
       sodipodi:linespacing="125%"><tspan
         sodipodi:role="line"
         x="458.798"
         y="481.3277"
         style="font-size:12.30840778px"
         id="tspan4776-5">Spin coating of <tspan
   id="tspan4975"
   style="font-weight:bold">negative</tspan> resist</tspan><tspan
         sodipodi:role="line"
         x="458.798"
         y="496.7132"
         style="font-size:12.30840778px"
         id="tspan4811" /><tspan
         sodipodi:role="line"
         x="458.798"
         y="512.09869"
         style="font-size:12.30840778px"
         id="tspan4809">Patterning with Mask 1 (Metal)</tspan></text>
    <text
       xml:space="preserve"
       style="font-style:normal;font-weight:normal;font-size:16.41121101px;line-height:125%;font-family:sans-serif;letter-spacing:0px;word-spacing:0px;fill:#000000;fill-opacity:1;stroke:none;stroke-width:1px;stroke-linecap:butt;stroke-linejoin:miter;stroke-opacity:1"
       x="458.798"
       y="577.4906"
       id="text4596-93-6-4-0"
       sodipodi:linespacing="125%"><tspan
         sodipodi:role="line"
         x="458.798"
         y="577.4906"
         style="font-size:12.30840778px"
         id="tspan4809-2">Evaporation of Platinum</tspan><tspan
         sodipodi:role="line"
         x="458.798"
         y="592.8761"
         style="font-size:12.30840778px"
         id="tspan4842" /><tspan
         sodipodi:role="line"
         x="458.798"
         y="608.2616"
         style="font-size:12.30840778px"
         id="tspan4844">Lift-off</tspan></text>
    <text
       xml:space="preserve"
       style="font-style:normal;font-weight:normal;font-size:16.41121101px;line-height:125%;font-family:sans-serif;letter-spacing:0px;word-spacing:0px;fill:#000000;fill-opacity:1;stroke:none;stroke-width:1px;stroke-linecap:butt;stroke-linejoin:miter;stroke-opacity:1"
       x="458.798"
       y="679.0235"
       id="text4596-93-6-4-0-7"
       sodipodi:linespacing="125%"><tspan
         sodipodi:role="line"
         x="458.798"
         y="679.0235"
         style="font-size:12.30840778px"
         id="tspan4844-6">Spin coating of second</tspan><tspan
         sodipodi:role="line"
         x="458.798"
         y="694.409"
         style="font-size:12.30840778px"
         id="tspan4898">layer of polyimide</tspan></text>
    <text
       xml:space="preserve"
       style="font-style:normal;font-weight:normal;font-size:16.41121101px;line-height:125%;font-family:sans-serif;letter-spacing:0px;word-spacing:0px;fill:#000000;fill-opacity:1;stroke:none;stroke-width:1px;stroke-linecap:butt;stroke-linejoin:miter;stroke-opacity:1"
       x="458.798"
       y="766.28265"
       id="text4596-93-6-4-0-9"
       sodipodi:linespacing="125%"><tspan
         sodipodi:role="line"
         x="458.798"
         y="766.28265"
         style="font-size:12.30840778px"
         id="tspan4844-5">Spin coating of <tspan
   id="tspan4977"
   style="font-weight:bold">positive</tspan> resist</tspan><tspan
         sodipodi:role="line"
         x="458.798"
         y="781.66815"
         style="font-size:12.30840778px"
         id="tspan4904" /><tspan
         sodipodi:role="line"
         x="458.798"
         y="797.05365"
         style="font-size:12.30840778px"
         id="tspan4906">Patterning of Mask 2 (PI)</tspan></text>
    <text
       xml:space="preserve"
       style="font-style:normal;font-weight:normal;font-size:16.41121101px;line-height:125%;font-family:sans-serif;letter-spacing:0px;word-spacing:0px;fill:#000000;fill-opacity:1;stroke:none;stroke-width:1px;stroke-linecap:butt;stroke-linejoin:miter;stroke-opacity:1"
       x="458.798"
       y="861.26764"
       id="text4596-93-6-4-0-2"
       sodipodi:linespacing="125%"><tspan
         sodipodi:role="line"
         x="458.798"
         y="861.26764"
         style="font-size:12.30840778px"
         id="tspan4809-2-6">Reactive Ion Etching of PI</tspan><tspan
         sodipodi:role="line"
         x="458.798"
         y="876.65314"
         style="font-size:12.30840778px"
         id="tspan4842-4" /><tspan
         sodipodi:role="line"
         x="458.798"
         y="892.03864"
         style="font-size:12.30840778px"
         id="tspan4844-8">Release by peeling</tspan></text>
    <path
       inkscape:connector-curvature="0"
       id="path4979"
       d="m 216.86774,492.12365 105.21361,0 0,3.22741"
       style="fill:none;fill-rule:evenodd;stroke:#000000;stroke-width:1.80735052;stroke-linecap:butt;stroke-linejoin:miter;stroke-miterlimit:4;stroke-dasharray:5.42205169, 5.42205169;stroke-dashoffset:0;stroke-opacity:1" />
    <path
       inkscape:connector-curvature="0"
       id="path4979-4"
       d="m 216.86774,585.81532 105.21361,0 0,3.22741"
       style="fill:none;fill-rule:evenodd;stroke:#000000;stroke-width:1.80735052;stroke-linecap:butt;stroke-linejoin:miter;stroke-miterlimit:4;stroke-dasharray:5.42205169, 5.42205169;stroke-dashoffset:0;stroke-opacity:1" />
    <path
       inkscape:connector-curvature="0"
       id="path4979-1"
       d="m 216.86774,679.50706 105.21361,0 0,3.22741"
       style="fill:none;fill-rule:evenodd;stroke:#000000;stroke-width:1.80735052;stroke-linecap:butt;stroke-linejoin:miter;stroke-miterlimit:4;stroke-dasharray:5.42205169, 5.42205169;stroke-dashoffset:0;stroke-opacity:1" />
    <path
       inkscape:connector-curvature="0"
       id="path4979-8"
       d="m 216.86774,773.19874 105.21361,0 0,3.22741"
       style="fill:none;fill-rule:evenodd;stroke:#000000;stroke-width:1.80735052;stroke-linecap:butt;stroke-linejoin:miter;stroke-miterlimit:4;stroke-dasharray:5.42205169, 5.42205169;stroke-dashoffset:0;stroke-opacity:1" />
    <path
       inkscape:connector-curvature="0"
       id="path4979-3"
       d="m 216.86774,866.89044 105.21361,0 0,3.22741"
       style="fill:none;fill-rule:evenodd;stroke:#000000;stroke-width:1.80735052;stroke-linecap:butt;stroke-linejoin:miter;stroke-miterlimit:4;stroke-dasharray:5.42205169, 5.42205169;stroke-dashoffset:0;stroke-opacity:1" />
    <path
       inkscape:connector-curvature="0"
       id="path4979-9"
       d="m 216.86774,398.43191 105.21361,0 0,3.22741"
       style="fill:none;fill-rule:evenodd;stroke:#000000;stroke-width:1.80735052;stroke-linecap:butt;stroke-linejoin:miter;stroke-miterlimit:4;stroke-dasharray:5.42205169, 5.42205169;stroke-dashoffset:0;stroke-opacity:1" />
    <path
       inkscape:connector-curvature="0"
       id="path4979-2"
       d="m 216.86774,304.7402 105.21361,0 0,3.22741"
       style="fill:none;fill-rule:evenodd;stroke:#000000;stroke-width:1.80735052;stroke-linecap:butt;stroke-linejoin:miter;stroke-miterlimit:4;stroke-dasharray:5.42205169, 5.42205169;stroke-dashoffset:0;stroke-opacity:1" />
    <flowRoot
       xml:space="preserve"
       id="flowRoot4967"
       style="font-style:normal;font-weight:normal;font-size:12.5px;line-height:125%;font-family:sans-serif;letter-spacing:0px;word-spacing:0px;fill:#000000;fill-opacity:1;stroke:none;stroke-width:1px;stroke-linecap:butt;stroke-linejoin:miter;stroke-opacity:1"><flowRegion
         id="flowRegion4969"><rect
           id="rect4971"
           width="777.14288"
           height="71.428574"
           x="142.85715"
           y="63.790771" /></flowRegion><flowPara
         id="flowPara4973" /></flowRoot>    <text
       xml:space="preserve"
       style="font-style:normal;font-weight:normal;font-size:16.41121101px;line-height:125%;font-family:sans-serif;letter-spacing:0px;word-spacing:0px;fill:#000000;fill-opacity:1;stroke:none;stroke-width:1px;stroke-linecap:butt;stroke-linejoin:miter;stroke-opacity:1"
       x="121.29899"
       y="552.34912"
       id="text4596-93-9"
       sodipodi:linespacing="125%"><tspan
         sodipodi:role="line"
         id="tspan4598-06-32"
         x="121.29899"
         y="552.34912"
         style="font-size:12.30840778px">Mask 1: Metal</tspan></text>
    <text
       xml:space="preserve"
       style="font-style:normal;font-weight:normal;font-size:16.41121101px;line-height:125%;font-family:sans-serif;letter-spacing:0px;word-spacing:0px;fill:#000000;fill-opacity:1;stroke:none;stroke-width:1px;stroke-linecap:butt;stroke-linejoin:miter;stroke-opacity:1"
       x="128.26123"
       y="831.81287"
       id="text4596-93-9-3"
       sodipodi:linespacing="125%"><tspan
         sodipodi:role="line"
         id="tspan4598-06-32-9"
         x="128.26123"
         y="831.81287"
         style="font-size:12.30840778px">Mask 2: PI</tspan></text>
    <path
       style="opacity:1;fill:#000000;fill-opacity:1;stroke:none;stroke-width:2;stroke-miterlimit:4;stroke-dasharray:6, 6;stroke-dashoffset:0;stroke-opacity:1"
       d="m 139.83789,747.18359 0,64.82618 48.53711,0 0,-64.82618 -48.53711,0 z m 24.62695,10.17774 a 14.642857,14.642857 0 0 1 14.64258,14.64453 14.642857,14.642857 0 0 1 -14.64258,14.64258 14.642857,14.642857 0 0 1 -14.64257,-14.64258 14.642857,14.642857 0 0 1 14.64257,-14.64453 z"
       id="rect4286-7"
       inkscape:connector-curvature="0" />
    <path
       inkscape:connector-curvature="0"
       style="opacity:0.75099996;fill:#c17d11;fill-opacity:1;stroke:#000000;stroke-width:0.685;stroke-miterlimit:4;stroke-dasharray:none;stroke-dashoffset:0;stroke-opacity:1"
       d="m 244.48733,841.31122 0,64.82618 48.53711,0 0,-64.82618 -48.53711,0 z m 24.62695,10.17774 a 14.642857,14.642857 0 0 1 14.64258,14.64453 14.642857,14.642857 0 0 1 -14.64258,14.64258 14.642857,14.642857 0 0 1 -14.64257,-14.64258 14.642857,14.642857 0 0 1 14.64257,-14.64453 z"
       id="rect4286-7-9-9" />
  </g>
</svg>
