<?xml version="1.0" encoding="UTF-8" standalone="no"?>
<!-- Created with Inkscape (http://www.inkscape.org/) -->

<svg
   xmlns:dc="http://purl.org/dc/elements/1.1/"
   xmlns:cc="http://creativecommons.org/ns#"
   xmlns:rdf="http://www.w3.org/1999/02/22-rdf-syntax-ns#"
   xmlns:svg="http://www.w3.org/2000/svg"
   xmlns="http://www.w3.org/2000/svg"
   xmlns:sodipodi="http://sodipodi.sourceforge.net/DTD/sodipodi-0.dtd"
   xmlns:inkscape="http://www.inkscape.org/namespaces/inkscape"
   width="144.89497mm"
   height="72.166756mm"
   viewBox="0 0 513.40737 255.70898"
   id="svg4461"
   version="1.1"
   inkscape:version="0.91 r13725"
   sodipodi:docname="processH.svg"
   inkscape:export-filename="E:\2015_Sergio\04_Pictures Videos Drawings\20160425 PI Cuff Process Sketch\20160503 PI Cuff Process Sketch Landscape.png"
   inkscape:export-xdpi="600"
   inkscape:export-ydpi="600">
  <defs
     id="defs4463" />
  <sodipodi:namedview
     id="base"
     pagecolor="#ffffff"
     bordercolor="#666666"
     borderopacity="1.0"
     inkscape:pageopacity="0.0"
     inkscape:pageshadow="2"
     inkscape:zoom="1.4"
     inkscape:cx="310.3826"
     inkscape:cy="126.23437"
     inkscape:document-units="px"
     inkscape:current-layer="layer1"
     showgrid="false"
     inkscape:window-width="1920"
     inkscape:window-height="1058"
     inkscape:window-x="1912"
     inkscape:window-y="-8"
     inkscape:window-maximized="1"
     fit-margin-top="0"
     fit-margin-left="0"
     fit-margin-right="0"
     fit-margin-bottom="0" />
  <metadata
     id="metadata4466">
    <rdf:RDF>
      <cc:Work
         rdf:about="">
        <dc:format>image/svg+xml</dc:format>
        <dc:type
           rdf:resource="http://purl.org/dc/dcmitype/StillImage" />
        <dc:title></dc:title>
      </cc:Work>
    </rdf:RDF>
  </metadata>
  <g
     inkscape:label="Ebene 1"
     inkscape:groupmode="layer"
     id="layer1"
     transform="translate(-19.432487,-522.05736)">
    <rect
       style="opacity:1;fill:#ad7fa8;fill-opacity:1;stroke:#000000;stroke-width:0.48672894;stroke-miterlimit:4;stroke-dasharray:none;stroke-dashoffset:0;stroke-opacity:1"
       id="rect4136"
       width="60.363033"
       height="9.2564907"
       x="108.01717"
       y="545.30139" />
    <path
       inkscape:connector-curvature="0"
       style="opacity:1;fill:#ad7fa8;fill-opacity:1;stroke:#000000;stroke-width:0.48672894;stroke-miterlimit:4;stroke-dasharray:none;stroke-dashoffset:0;stroke-opacity:1"
       d="m 56.871832,522.46788 a 29.88698,29.88698 0 0 0 -29.886285,29.88724 29.88698,29.88698 0 0 0 15.232137,26.0286 l 29.270275,0 A 29.88698,29.88698 0 0 0 86.75908,552.35512 29.88698,29.88698 0 0 0 56.871832,522.46788 Z"
       id="path4140" />
    <rect
       style="opacity:1;fill:#ad7fa8;fill-opacity:1;stroke:#000000;stroke-width:0.48672894;stroke-miterlimit:4;stroke-dasharray:none;stroke-dashoffset:0;stroke-opacity:1"
       id="rect4136-4"
       width="60.363033"
       height="9.2564907"
       x="108.01717"
       y="611.68115" />
    <path
       inkscape:connector-curvature="0"
       style="opacity:1;fill:#ad7fa8;fill-opacity:1;stroke:#000000;stroke-width:0.48672894;stroke-miterlimit:4;stroke-dasharray:none;stroke-dashoffset:0;stroke-opacity:1"
       d="m 56.871832,588.84762 a 29.88698,29.88698 0 0 0 -29.886285,29.88725 29.88698,29.88698 0 0 0 15.232137,26.02858 l 29.270275,0 A 29.88698,29.88698 0 0 0 86.75908,618.73487 29.88698,29.88698 0 0 0 56.871832,588.84762 Z"
       id="path4140-6" />
    <rect
       style="opacity:1;fill:#c17d11;fill-opacity:1;stroke:#000000;stroke-width:0.28081566;stroke-miterlimit:4;stroke-dasharray:none;stroke-dashoffset:0;stroke-opacity:1"
       id="rect4136-2-4"
       width="60.568954"
       height="3.070688"
       x="107.81128"
       y="608.61041" />
    <path
       inkscape:connector-curvature="0"
       style="opacity:1;fill:#c17d11;fill-opacity:1;stroke:#000000;stroke-width:0.48672894;stroke-miterlimit:4;stroke-dasharray:none;stroke-dashoffset:0;stroke-opacity:1"
       d="m 56.871832,588.84762 a 29.88698,29.88698 0 0 0 -29.886285,29.88725 29.88698,29.88698 0 0 0 15.232137,26.02858 l 29.270275,0 A 29.88698,29.88698 0 0 0 86.75908,618.73487 29.88698,29.88698 0 0 0 56.871832,588.84762 Z"
       id="path4140-4-4" />
    <rect
       style="opacity:1;fill:#ad7fa8;fill-opacity:1;stroke:#000000;stroke-width:0.48672894;stroke-miterlimit:4;stroke-dasharray:none;stroke-dashoffset:0;stroke-opacity:1"
       id="rect4136-4-2"
       width="60.363033"
       height="9.2564907"
       x="108.01717"
       y="678.06073" />
    <path
       inkscape:connector-curvature="0"
       style="opacity:1;fill:#ad7fa8;fill-opacity:1;stroke:#000000;stroke-width:0.48672894;stroke-miterlimit:4;stroke-dasharray:none;stroke-dashoffset:0;stroke-opacity:1"
       d="m 56.871832,655.2272 a 29.88698,29.88698 0 0 0 -29.886285,29.88725 29.88698,29.88698 0 0 0 15.232145,26.02859 l 29.270278,0 A 29.88698,29.88698 0 0 0 86.759091,685.11445 29.88698,29.88698 0 0 0 56.871832,655.2272 Z"
       id="path4140-6-6" />
    <rect
       style="opacity:1;fill:#c17d11;fill-opacity:1;stroke:#000000;stroke-width:0.28081566;stroke-miterlimit:4;stroke-dasharray:none;stroke-dashoffset:0;stroke-opacity:1"
       id="rect4136-2-4-8"
       width="60.568954"
       height="3.070688"
       x="107.81128"
       y="674.98999" />
    <path
       inkscape:connector-curvature="0"
       style="opacity:1;fill:#c17d11;fill-opacity:1;stroke:#000000;stroke-width:0.48672894;stroke-miterlimit:4;stroke-dasharray:none;stroke-dashoffset:0;stroke-opacity:1"
       d="m 56.871832,655.2272 a 29.88698,29.88698 0 0 0 -29.886285,29.88725 29.88698,29.88698 0 0 0 15.232145,26.02859 l 29.270278,0 A 29.88698,29.88698 0 0 0 86.759091,685.11445 29.88698,29.88698 0 0 0 56.871832,655.2272 Z"
       id="path4140-4-4-5" />
    <path
       inkscape:connector-curvature="0"
       style="opacity:0.75800003;fill:#ef2929;fill-opacity:1;stroke:#000000;stroke-width:0.48672894;stroke-miterlimit:4;stroke-dasharray:none;stroke-dashoffset:0;stroke-opacity:1"
       d="m 56.872111,655.22753 a 29.88698,29.88698 0 0 0 -29.886296,29.88725 29.88698,29.88698 0 0 0 15.232147,26.02858 l 29.270266,0 A 29.88698,29.88698 0 0 0 86.759349,685.11478 29.88698,29.88698 0 0 0 56.872111,655.22753 Z m -0.161608,10.11674 a 15.58065,15.58065 0 0 1 15.581024,15.58102 15.58065,15.58065 0 0 1 -11.408653,14.99543 l 0,12.09313 -8.34474,0 0,-12.07602 A 15.58065,15.58065 0 0 1 41.129477,680.92529 15.58065,15.58065 0 0 1 56.710503,665.34427 Z m 0,9.34196 a 6.2389098,6.2389098 0 0 0 -6.239063,6.23906 6.2389098,6.2389098 0 0 0 6.239063,6.23906 6.2389098,6.2389098 0 0 0 6.239069,-6.23906 6.2389098,6.2389098 0 0 0 -6.239069,-6.23906 z"
       id="path4140-4-4-5-7" />
    <rect
       style="opacity:1;fill:#ef2929;fill-opacity:1;stroke:#000000;stroke-width:0.13293259;stroke-miterlimit:4;stroke-dasharray:none;stroke-dashoffset:0;stroke-opacity:1"
       id="rect4136-2-4-8-0"
       width="13.572824"
       height="3.070688"
       x="131.30934"
       y="671.91931" />
    <rect
       style="opacity:1;fill:#ef2929;fill-opacity:1;stroke:#000000;stroke-width:0.13293259;stroke-miterlimit:4;stroke-dasharray:none;stroke-dashoffset:0;stroke-opacity:1"
       id="rect4136-2-4-8-0-8"
       width="13.572824"
       height="3.070688"
       x="107.81128"
       y="671.91931" />
    <rect
       style="opacity:1;fill:#ef2929;fill-opacity:1;stroke:#000000;stroke-width:0.13293259;stroke-miterlimit:4;stroke-dasharray:none;stroke-dashoffset:0;stroke-opacity:1"
       id="rect4136-2-4-8-0-6"
       width="13.572824"
       height="3.070688"
       x="154.80739"
       y="671.91931" />
    <rect
       style="opacity:1;fill:#ad7fa8;fill-opacity:1;stroke:#000000;stroke-width:0.48672894;stroke-miterlimit:4;stroke-dasharray:none;stroke-dashoffset:0;stroke-opacity:1"
       id="rect4136-4-2-6"
       width="60.363033"
       height="9.2564907"
       x="108.01717"
       y="744.44067" />
    <path
       inkscape:connector-curvature="0"
       style="opacity:1;fill:#ad7fa8;fill-opacity:1;stroke:#000000;stroke-width:0.48672894;stroke-miterlimit:4;stroke-dasharray:none;stroke-dashoffset:0;stroke-opacity:1"
       d="m 56.871832,721.60714 a 29.88698,29.88698 0 0 0 -29.886285,29.88725 29.88698,29.88698 0 0 0 15.232137,26.02859 l 29.270275,0 A 29.88698,29.88698 0 0 0 86.75908,751.49439 29.88698,29.88698 0 0 0 56.871832,721.60714 Z"
       id="path4140-6-6-8" />
    <rect
       style="opacity:1;fill:#c17d11;fill-opacity:1;stroke:#000000;stroke-width:0.28081566;stroke-miterlimit:4;stroke-dasharray:none;stroke-dashoffset:0;stroke-opacity:1"
       id="rect4136-2-4-8-1"
       width="60.568954"
       height="3.070688"
       x="107.81128"
       y="741.37" />
    <path
       inkscape:connector-curvature="0"
       style="opacity:1;fill:#c17d11;fill-opacity:1;stroke:#000000;stroke-width:0.48672894;stroke-miterlimit:4;stroke-dasharray:none;stroke-dashoffset:0;stroke-opacity:1"
       d="m 56.871832,721.60714 a 29.88698,29.88698 0 0 0 -29.886285,29.88725 29.88698,29.88698 0 0 0 15.232137,26.02859 l 29.270275,0 A 29.88698,29.88698 0 0 0 86.75908,751.49439 29.88698,29.88698 0 0 0 56.871832,721.60714 Z"
       id="path4140-4-4-5-6" />
    <path
       inkscape:connector-curvature="0"
       style="opacity:1;fill:#888a85;fill-opacity:1;stroke:#000000;stroke-width:0.48672894;stroke-miterlimit:4;stroke-dasharray:none;stroke-dashoffset:0;stroke-opacity:1"
       d="m 56.710503,731.72405 a 15.58065,15.58065 0 0 0 -15.581026,15.58102 15.58065,15.58065 0 0 0 11.40865,15.01255 l 0,12.07602 8.344747,0 0,-12.09312 A 15.58065,15.58065 0 0 0 72.291527,747.30507 15.58065,15.58065 0 0 0 56.710503,731.72405 Z m 0,9.34197 a 6.2389098,6.2389098 0 0 1 6.239069,6.23905 6.2389098,6.2389098 0 0 1 -6.239069,6.23907 6.2389098,6.2389098 0 0 1 -6.239063,-6.23907 6.2389098,6.2389098 0 0 1 6.239063,-6.23905 z"
       id="path4252" />
    <rect
       style="opacity:1;fill:#888a85;fill-opacity:1;stroke:#000000;stroke-width:0.07976253;stroke-miterlimit:4;stroke-dasharray:none;stroke-dashoffset:0;stroke-opacity:1"
       id="rect4136-2-4-8-0-8-2-2"
       width="9.9591522"
       height="1.506672"
       x="121.36716"
       y="739.88019" />
    <rect
       style="opacity:1;fill:#888a85;fill-opacity:1;stroke:#000000;stroke-width:0.07654103;stroke-miterlimit:4;stroke-dasharray:none;stroke-dashoffset:0;stroke-opacity:1"
       id="rect4136-2-4-8-0-8-2-2-3"
       width="9.9623747"
       height="1.3869759"
       x="144.86359"
       y="740.00159" />
    <rect
       style="opacity:1;fill:#ad7fa8;fill-opacity:1;stroke:#000000;stroke-width:0.48672894;stroke-miterlimit:4;stroke-dasharray:none;stroke-dashoffset:0;stroke-opacity:1"
       id="rect4136-4-2-6-2-5"
       width="60.363033"
       height="9.2564907"
       x="375.00723"
       y="611.51392" />
    <path
       inkscape:connector-curvature="0"
       style="opacity:1;fill:#ad7fa8;fill-opacity:1;stroke:#000000;stroke-width:0.48672894;stroke-miterlimit:4;stroke-dasharray:none;stroke-dashoffset:0;stroke-opacity:1"
       d="m 324.06793,588.68049 a 29.88698,29.88698 0 0 0 -29.88631,29.88725 29.88698,29.88698 0 0 0 15.23215,26.02859 l 29.27028,0 a 29.88698,29.88698 0 0 0 15.27111,-26.02859 29.88698,29.88698 0 0 0 -29.88723,-29.88725 z"
       id="path4140-6-6-8-0-2" />
    <rect
       style="opacity:1;fill:#c17d11;fill-opacity:1;stroke:#000000;stroke-width:0.28081566;stroke-miterlimit:4;stroke-dasharray:none;stroke-dashoffset:0;stroke-opacity:1"
       id="rect4136-2-4-8-1-6-4"
       width="60.568954"
       height="3.070688"
       x="375.00723"
       y="608.4433" />
    <path
       inkscape:connector-curvature="0"
       style="opacity:1;fill:#c17d11;fill-opacity:1;stroke:#000000;stroke-width:0.48672894;stroke-miterlimit:4;stroke-dasharray:none;stroke-dashoffset:0;stroke-opacity:1"
       d="m 324.06793,588.68049 a 29.88698,29.88698 0 0 0 -29.88631,29.88725 29.88698,29.88698 0 0 0 15.23215,26.02859 l 29.27028,0 a 29.88698,29.88698 0 0 0 15.27111,-26.02859 29.88698,29.88698 0 0 0 -29.88723,-29.88725 z"
       id="path4140-4-4-5-6-6-7" />
    <path
       inkscape:connector-curvature="0"
       style="opacity:1;fill:#888a85;fill-opacity:1;stroke:#000000;stroke-width:0.48672894;stroke-miterlimit:4;stroke-dasharray:none;stroke-dashoffset:0;stroke-opacity:1"
       d="m 323.90659,598.7974 a 15.58065,15.58065 0 0 0 -15.58103,15.58103 15.58065,15.58065 0 0 0 11.40866,15.01254 l 0,12.07602 8.34474,0 0,-12.09313 a 15.58065,15.58065 0 0 0 11.40866,-14.99543 15.58065,15.58065 0 0 0 -15.58103,-15.58103 z m 0,9.34195 a 6.2389098,6.2389098 0 0 1 6.23906,6.23908 6.2389098,6.2389098 0 0 1 -6.23906,6.23906 6.2389098,6.2389098 0 0 1 -6.23906,-6.23906 6.2389098,6.2389098 0 0 1 6.23906,-6.23908 z"
       id="path4252-5-4" />
    <rect
       style="opacity:1;fill:#c17d11;fill-opacity:1;stroke:#000000;stroke-width:0.28081566;stroke-miterlimit:4;stroke-dasharray:none;stroke-dashoffset:0;stroke-opacity:1"
       id="rect4136-2-4-8-1-6-7-7"
       width="60.568954"
       height="3.070688"
       x="375.00723"
       y="605.37256" />
    <rect
       style="opacity:1;fill:#888a85;fill-opacity:1;stroke:#000000;stroke-width:0.07976253;stroke-miterlimit:4;stroke-dasharray:none;stroke-dashoffset:0;stroke-opacity:1"
       id="rect4136-2-4-8-0-8-2-2-2-4"
       width="9.9591522"
       height="1.506672"
       x="388.56314"
       y="606.95355" />
    <rect
       style="opacity:1;fill:#888a85;fill-opacity:1;stroke:#000000;stroke-width:0.07654103;stroke-miterlimit:4;stroke-dasharray:none;stroke-dashoffset:0;stroke-opacity:1"
       id="rect4136-2-4-8-0-8-2-2-3-6-6"
       width="9.9623747"
       height="1.3869759"
       x="412.05966"
       y="607.07489" />
    <path
       inkscape:connector-curvature="0"
       style="opacity:0.5;fill:#c17d11;fill-opacity:1;stroke:#000000;stroke-width:0.48672894;stroke-miterlimit:4;stroke-dasharray:none;stroke-dashoffset:0;stroke-opacity:1"
       d="m 324.06793,588.68049 a 29.88698,29.88698 0 0 0 -29.88631,29.88725 29.88698,29.88698 0 0 0 15.23215,26.02859 l 29.27028,0 a 29.88698,29.88698 0 0 0 15.27111,-26.02859 29.88698,29.88698 0 0 0 -29.88723,-29.88725 z"
       id="path4140-4-4-6-1" />
    <path
       inkscape:connector-curvature="0"
       style="opacity:0.75099996;fill:#ef2929;fill-opacity:1;stroke:#000000;stroke-width:0.48646921;stroke-miterlimit:4;stroke-dasharray:none;stroke-dashoffset:0;stroke-opacity:1"
       d="m 306.24333,596.49036 0,46.03787 34.4698,0 0,-46.03787 -34.4698,0 z m 17.48943,7.22797 a 10.398976,10.398976 0 0 1 10.39878,10.40017 10.398976,10.398976 0 0 1 -10.39878,10.39878 10.398976,10.398976 0 0 1 -10.39877,-10.39878 10.398976,10.398976 0 0 1 10.39877,-10.40017 z"
       id="rect4286-7-9" />
    <rect
       style="opacity:1;fill:#ef2929;fill-opacity:1;stroke:#000000;stroke-width:0.12439106;stroke-miterlimit:4;stroke-dasharray:none;stroke-dashoffset:0;stroke-opacity:1"
       id="rect4136-2-4-8-1-6-4-4"
       width="11.884636"
       height="3.070688"
       x="416.93826"
       y="602.30182" />
    <rect
       style="opacity:1;fill:#ef2929;fill-opacity:1;stroke:#000000;stroke-width:0.12439106;stroke-miterlimit:4;stroke-dasharray:none;stroke-dashoffset:0;stroke-opacity:1"
       id="rect4136-2-4-8-1-6-4-4-0"
       width="11.884636"
       height="3.070688"
       x="381.47787"
       y="602.30182" />
    <rect
       style="opacity:1;fill:#ad7fa8;fill-opacity:1;stroke:#000000;stroke-width:0.48672894;stroke-miterlimit:4;stroke-dasharray:none;stroke-dashoffset:0;stroke-opacity:1"
       id="rect4136-4-2-6-2"
       width="60.363033"
       height="9.2564907"
       x="375.21317"
       y="545.13422" />
    <path
       inkscape:connector-curvature="0"
       style="opacity:1;fill:#ad7fa8;fill-opacity:1;stroke:#000000;stroke-width:0.48672894;stroke-miterlimit:4;stroke-dasharray:none;stroke-dashoffset:0;stroke-opacity:1"
       d="m 324.06793,522.30072 a 29.88698,29.88698 0 0 0 -29.88631,29.88724 29.88698,29.88698 0 0 0 15.23215,26.02859 l 29.27028,0 a 29.88698,29.88698 0 0 0 15.27111,-26.02859 29.88698,29.88698 0 0 0 -29.88723,-29.88724 z"
       id="path4140-6-6-8-0" />
    <rect
       style="opacity:1;fill:#c17d11;fill-opacity:1;stroke:#000000;stroke-width:0.28081566;stroke-miterlimit:4;stroke-dasharray:none;stroke-dashoffset:0;stroke-opacity:1"
       id="rect4136-2-4-8-1-6"
       width="60.568954"
       height="3.070688"
       x="375.00723"
       y="542.06348" />
    <path
       inkscape:connector-curvature="0"
       style="opacity:1;fill:#c17d11;fill-opacity:1;stroke:#000000;stroke-width:0.48672894;stroke-miterlimit:4;stroke-dasharray:none;stroke-dashoffset:0;stroke-opacity:1"
       d="m 324.06793,522.30072 a 29.88698,29.88698 0 0 0 -29.88631,29.88724 29.88698,29.88698 0 0 0 15.23215,26.02859 l 29.27028,0 a 29.88698,29.88698 0 0 0 15.27111,-26.02859 29.88698,29.88698 0 0 0 -29.88723,-29.88724 z"
       id="path4140-4-4-5-6-6" />
    <path
       inkscape:connector-curvature="0"
       style="opacity:1;fill:#888a85;fill-opacity:1;stroke:#000000;stroke-width:0.48672894;stroke-miterlimit:4;stroke-dasharray:none;stroke-dashoffset:0;stroke-opacity:1"
       d="m 323.90659,532.41763 a 15.58065,15.58065 0 0 0 -15.58104,15.58102 15.58065,15.58065 0 0 0 11.40867,15.01255 l 0,12.07601 8.34474,0 0,-12.09312 a 15.58065,15.58065 0 0 0 11.40865,-14.99544 15.58065,15.58065 0 0 0 -15.58102,-15.58102 z m 0,9.34195 a 6.2389098,6.2389098 0 0 1 6.23905,6.23907 6.2389098,6.2389098 0 0 1 -6.23905,6.23907 6.2389098,6.2389098 0 0 1 -6.23906,-6.23907 6.2389098,6.2389098 0 0 1 6.23906,-6.23907 z"
       id="path4252-5" />
    <rect
       style="opacity:1;fill:#c17d11;fill-opacity:1;stroke:#000000;stroke-width:0.28081566;stroke-miterlimit:4;stroke-dasharray:none;stroke-dashoffset:0;stroke-opacity:1"
       id="rect4136-2-4-8-1-6-7"
       width="60.568954"
       height="3.070688"
       x="375.00723"
       y="538.9928" />
    <rect
       style="opacity:1;fill:#888a85;fill-opacity:1;stroke:#000000;stroke-width:0.07976253;stroke-miterlimit:4;stroke-dasharray:none;stroke-dashoffset:0;stroke-opacity:1"
       id="rect4136-2-4-8-0-8-2-2-2"
       width="9.9591522"
       height="1.506672"
       x="388.56314"
       y="540.57373" />
    <rect
       style="opacity:1;fill:#888a85;fill-opacity:1;stroke:#000000;stroke-width:0.07654103;stroke-miterlimit:4;stroke-dasharray:none;stroke-dashoffset:0;stroke-opacity:1"
       id="rect4136-2-4-8-0-8-2-2-3-6"
       width="9.9623747"
       height="1.3869759"
       x="412.0596"
       y="540.69507" />
    <path
       inkscape:connector-curvature="0"
       style="opacity:0.5;fill:#c17d11;fill-opacity:1;stroke:#000000;stroke-width:0.48672894;stroke-miterlimit:4;stroke-dasharray:none;stroke-dashoffset:0;stroke-opacity:1"
       d="m 324.06793,522.30072 a 29.88698,29.88698 0 0 0 -29.88631,29.88724 29.88698,29.88698 0 0 0 15.23215,26.02859 l 29.27028,0 a 29.88698,29.88698 0 0 0 15.27111,-26.02859 29.88698,29.88698 0 0 0 -29.88723,-29.88724 z"
       id="path4140-4-4-6" />
    <rect
       style="opacity:1;fill:#ad7fa8;fill-opacity:1;stroke:#000000;stroke-width:0.48672894;stroke-miterlimit:4;stroke-dasharray:none;stroke-dashoffset:0;stroke-opacity:1"
       id="rect4136-4-2-6-2-5-9"
       width="60.363033"
       height="9.2564907"
       x="375.00723"
       y="677.89368" />
    <path
       inkscape:connector-curvature="0"
       style="opacity:1;fill:#ad7fa8;fill-opacity:1;stroke:#000000;stroke-width:0.48672894;stroke-miterlimit:4;stroke-dasharray:none;stroke-dashoffset:0;stroke-opacity:1"
       d="m 324.06793,655.06025 a 29.88698,29.88698 0 0 0 -29.88631,29.88724 29.88698,29.88698 0 0 0 15.23215,26.02861 l 29.27028,0 a 29.88698,29.88698 0 0 0 15.27111,-26.02861 29.88698,29.88698 0 0 0 -29.88723,-29.88724 z"
       id="path4140-6-6-8-0-2-2" />
    <rect
       style="opacity:1;fill:#c17d11;fill-opacity:1;stroke:#000000;stroke-width:0.14982226;stroke-miterlimit:4;stroke-dasharray:none;stroke-dashoffset:0;stroke-opacity:1"
       id="rect4136-2-4-8-1-6-4-0"
       width="17.143673"
       height="3.088105"
       x="381.38733"
       y="674.81433" />
    <path
       inkscape:connector-curvature="0"
       style="opacity:1;fill:#888a85;fill-opacity:1;stroke:#000000;stroke-width:0.48672894;stroke-miterlimit:4;stroke-dasharray:none;stroke-dashoffset:0;stroke-opacity:1"
       d="m 323.90659,665.17715 a 15.58065,15.58065 0 0 0 -15.58103,15.58103 15.58065,15.58065 0 0 0 11.40866,15.01255 l 0,12.07604 8.34474,0 0,-12.09312 a 15.58065,15.58065 0 0 0 11.40866,-14.99547 15.58065,15.58065 0 0 0 -15.58103,-15.58103 z m 0,9.34196 a 6.2389098,6.2389098 0 0 1 6.23906,6.23907 6.2389098,6.2389098 0 0 1 -6.23906,6.23906 6.2389098,6.2389098 0 0 1 -6.23906,-6.23906 6.2389098,6.2389098 0 0 1 6.23906,-6.23907 z"
       id="path4252-5-4-5" />
    <rect
       style="opacity:1;fill:#c17d11;fill-opacity:1;stroke:#000000;stroke-width:0.12439106;stroke-miterlimit:4;stroke-dasharray:none;stroke-dashoffset:0;stroke-opacity:1"
       id="rect4136-2-4-8-1-6-4-4-3"
       width="11.884636"
       height="3.070688"
       x="416.87421"
       y="671.75232" />
    <rect
       style="opacity:1;fill:#c17d11;fill-opacity:1;stroke:#000000;stroke-width:0.12439106;stroke-miterlimit:4;stroke-dasharray:none;stroke-dashoffset:0;stroke-opacity:1"
       id="rect4136-2-4-8-1-6-4-4-0-5"
       width="11.884636"
       height="3.070688"
       x="381.41385"
       y="671.75232" />
    <rect
       style="opacity:1;fill:#888a85;fill-opacity:1;stroke:#000000;stroke-width:0.07976253;stroke-miterlimit:4;stroke-dasharray:none;stroke-dashoffset:0;stroke-opacity:1"
       id="rect4136-2-4-8-0-8-2-2-2-4-9"
       width="9.9591522"
       height="1.506672"
       x="388.56314"
       y="673.33325" />
    <rect
       style="opacity:1;fill:#888a85;fill-opacity:1;stroke:#000000;stroke-width:0.07654103;stroke-miterlimit:4;stroke-dasharray:none;stroke-dashoffset:0;stroke-opacity:1"
       id="rect4136-2-4-8-0-8-2-2-3-6-6-8"
       width="9.9623747"
       height="1.3869759"
       x="412.05966"
       y="673.45459" />
    <rect
       style="opacity:1;fill:#c17d11;fill-opacity:1;stroke:#000000;stroke-width:0.14834957;stroke-miterlimit:4;stroke-dasharray:none;stroke-dashoffset:0;stroke-opacity:1"
       id="rect4136-2-4-8-1-6-4-0-5"
       width="16.903639"
       height="3.070688"
       x="411.85526"
       y="674.823" />
    <text
       xml:space="preserve"
       style="font-style:normal;font-variant:normal;font-weight:bold;font-stretch:normal;font-size:11.65481567px;line-height:125%;font-family:sans-serif;-inkscape-font-specification:'sans-serif Bold';letter-spacing:0px;word-spacing:0px;fill:#000000;fill-opacity:1;stroke:none;stroke-width:1px;stroke-linecap:butt;stroke-linejoin:miter;stroke-opacity:1"
       x="126.23842"
       y="565.40955"
       id="text4596-7-3"
       sodipodi:linespacing="125%"><tspan
         sodipodi:role="line"
         id="tspan4598-68-4"
         x="126.23842"
         y="565.40955"
         style="font-style:normal;font-variant:normal;font-weight:bold;font-stretch:normal;font-size:11.65481567px;font-family:sans-serif;-inkscape-font-specification:'sans-serif Bold'">#1</tspan></text>
    <text
       xml:space="preserve"
       style="font-style:normal;font-variant:normal;font-weight:bold;font-stretch:normal;font-size:11.65481567px;line-height:125%;font-family:sans-serif;-inkscape-font-specification:'sans-serif Bold';letter-spacing:0px;word-spacing:0px;fill:#000000;fill-opacity:1;stroke:none;stroke-width:1px;stroke-linecap:butt;stroke-linejoin:miter;stroke-opacity:1"
       x="126.23842"
       y="632.30804"
       id="text4596-7-0"
       sodipodi:linespacing="125%"><tspan
         sodipodi:role="line"
         id="tspan4598-68-49"
         x="126.23842"
         y="632.30804"
         style="font-style:normal;font-variant:normal;font-weight:bold;font-stretch:normal;font-size:11.65481567px;font-family:sans-serif;-inkscape-font-specification:'sans-serif Bold'">#2</tspan></text>
    <text
       xml:space="preserve"
       style="font-style:normal;font-variant:normal;font-weight:bold;font-stretch:normal;font-size:11.65481567px;line-height:125%;font-family:sans-serif;-inkscape-font-specification:'sans-serif Bold';letter-spacing:0px;word-spacing:0px;fill:#000000;fill-opacity:1;stroke:none;stroke-width:1px;stroke-linecap:butt;stroke-linejoin:miter;stroke-opacity:1"
       x="126.23842"
       y="699.02399"
       id="text4596-7-7"
       sodipodi:linespacing="125%"><tspan
         sodipodi:role="line"
         id="tspan4598-68-7"
         x="126.23842"
         y="699.02399"
         style="font-style:normal;font-variant:normal;font-weight:bold;font-stretch:normal;font-size:11.65481567px;font-family:sans-serif;-inkscape-font-specification:'sans-serif Bold'">#3</tspan></text>
    <text
       xml:space="preserve"
       style="font-style:normal;font-variant:normal;font-weight:bold;font-stretch:normal;font-size:11.65481567px;line-height:125%;font-family:sans-serif;-inkscape-font-specification:'sans-serif Bold';letter-spacing:0px;word-spacing:0px;fill:#000000;fill-opacity:1;stroke:none;stroke-width:1px;stroke-linecap:butt;stroke-linejoin:miter;stroke-opacity:1"
       x="126.23842"
       y="765.83929"
       id="text4596-7-8"
       sodipodi:linespacing="125%"><tspan
         sodipodi:role="line"
         id="tspan4598-68-1"
         x="126.23842"
         y="765.83929"
         style="font-style:normal;font-variant:normal;font-weight:bold;font-stretch:normal;font-size:11.65481567px;font-family:sans-serif;-inkscape-font-specification:'sans-serif Bold'">#4</tspan></text>
    <text
       xml:space="preserve"
       style="font-style:normal;font-variant:normal;font-weight:bold;font-stretch:normal;font-size:11.65481567px;line-height:125%;font-family:sans-serif;-inkscape-font-specification:'sans-serif Bold';letter-spacing:0px;word-spacing:0px;fill:#000000;fill-opacity:1;stroke:none;stroke-width:1px;stroke-linecap:butt;stroke-linejoin:miter;stroke-opacity:1"
       x="393.95129"
       y="564.71826"
       id="text4596-7-4"
       sodipodi:linespacing="125%"><tspan
         sodipodi:role="line"
         id="tspan4598-68-6"
         x="393.95129"
         y="564.71826"
         style="font-style:normal;font-variant:normal;font-weight:bold;font-stretch:normal;font-size:11.65481567px;font-family:sans-serif;-inkscape-font-specification:'sans-serif Bold'">#5</tspan></text>
    <text
       xml:space="preserve"
       style="font-style:normal;font-variant:normal;font-weight:bold;font-stretch:normal;font-size:11.65481567px;line-height:125%;font-family:sans-serif;-inkscape-font-specification:'sans-serif Bold';letter-spacing:0px;word-spacing:0px;fill:#000000;fill-opacity:1;stroke:none;stroke-width:1px;stroke-linecap:butt;stroke-linejoin:miter;stroke-opacity:1"
       x="393.95129"
       y="631.62311"
       id="text4596-7-2"
       sodipodi:linespacing="125%"><tspan
         sodipodi:role="line"
         id="tspan4598-68-3"
         x="393.95129"
         y="631.62311"
         style="font-style:normal;font-variant:normal;font-weight:bold;font-stretch:normal;font-size:11.65481567px;font-family:sans-serif;-inkscape-font-specification:'sans-serif Bold'">#6</tspan></text>
    <text
       xml:space="preserve"
       style="font-style:normal;font-variant:normal;font-weight:bold;font-stretch:normal;font-size:11.65481567px;line-height:125%;font-family:sans-serif;-inkscape-font-specification:'sans-serif Bold';letter-spacing:0px;word-spacing:0px;fill:#000000;fill-opacity:1;stroke:none;stroke-width:1px;stroke-linecap:butt;stroke-linejoin:miter;stroke-opacity:1"
       x="393.95129"
       y="698.44794"
       id="text4596-7-44"
       sodipodi:linespacing="125%"><tspan
         sodipodi:role="line"
         id="tspan4598-68-32"
         x="393.95129"
         y="698.44794"
         style="font-style:normal;font-variant:normal;font-weight:bold;font-stretch:normal;font-size:11.65481567px;font-family:sans-serif;-inkscape-font-specification:'sans-serif Bold'">#7</tspan></text>
    <text
       xml:space="preserve"
       style="font-style:normal;font-weight:normal;font-size:11.65481567px;line-height:125%;font-family:sans-serif;letter-spacing:0px;word-spacing:0px;fill:#000000;fill-opacity:1;stroke:none;stroke-width:1px;stroke-linecap:butt;stroke-linejoin:miter;stroke-opacity:1"
       x="175.24506"
       y="549.75629"
       id="text4596-93"
       sodipodi:linespacing="125%"><tspan
         sodipodi:role="line"
         id="tspan4598-06"
         x="175.24506"
         y="549.75629"
         style="font-size:8.74111176px">Polished silicon </tspan><tspan
         sodipodi:role="line"
         x="175.24506"
         y="560.68268"
         style="font-size:8.74111176px"
         id="tspan4282">wafer.</tspan></text>
    <text
       xml:space="preserve"
       style="font-style:normal;font-weight:normal;font-size:11.65481567px;line-height:125%;font-family:sans-serif;letter-spacing:0px;word-spacing:0px;fill:#000000;fill-opacity:1;stroke:none;stroke-width:1px;stroke-linecap:butt;stroke-linejoin:miter;stroke-opacity:1"
       x="175.24506"
       y="610.93585"
       id="text4596-93-6"
       sodipodi:linespacing="125%"><tspan
         sodipodi:role="line"
         id="tspan4598-06-3"
         x="175.24506"
         y="610.93585"
         style="font-size:8.74111176px">Spin coating</tspan><tspan
         sodipodi:role="line"
         x="175.24506"
         y="621.86224"
         style="font-size:8.74111176px"
         id="tspan4776">first layer of </tspan><tspan
         sodipodi:role="line"
         x="175.24506"
         y="632.78864"
         style="font-size:8.74111176px"
         id="tspan4280">polyimide.</tspan></text>
    <text
       xml:space="preserve"
       style="font-style:normal;font-weight:normal;font-size:11.65481567px;line-height:125%;font-family:sans-serif;letter-spacing:0px;word-spacing:0px;fill:#000000;fill-opacity:1;stroke:none;stroke-width:1px;stroke-linecap:butt;stroke-linejoin:miter;stroke-opacity:1"
       x="175.24506"
       y="672.90503"
       id="text4596-93-6-4"
       sodipodi:linespacing="125%"><tspan
         sodipodi:role="line"
         x="175.24506"
         y="672.90503"
         style="font-size:8.74111176px"
         id="tspan4776-5">Spin coating of </tspan><tspan
         sodipodi:role="line"
         x="175.24506"
         y="683.83142"
         style="font-size:8.74111176px"
         id="tspan4811"><tspan
   style="font-weight:bold"
   id="tspan4270">negative </tspan>resist.</tspan><tspan
         sodipodi:role="line"
         x="175.24506"
         y="694.75781"
         style="font-size:8.74111176px"
         id="tspan4809">Patterning with </tspan><tspan
         sodipodi:role="line"
         x="175.24506"
         y="705.6842"
         style="font-size:8.74111176px"
         id="tspan4266">Mask 1 (Metal).</tspan></text>
    <text
       xml:space="preserve"
       style="font-style:normal;font-weight:normal;font-size:11.65481567px;line-height:125%;font-family:sans-serif;letter-spacing:0px;word-spacing:0px;fill:#000000;fill-opacity:1;stroke:none;stroke-width:1px;stroke-linecap:butt;stroke-linejoin:miter;stroke-opacity:1"
       x="175.24506"
       y="741.19745"
       id="text4596-93-6-4-0"
       sodipodi:linespacing="125%"><tspan
         sodipodi:role="line"
         x="175.24506"
         y="741.19745"
         style="font-size:8.74111176px"
         id="tspan4809-2">Evaporation of </tspan><tspan
         sodipodi:role="line"
         x="175.24506"
         y="752.12384"
         style="font-size:8.74111176px"
         id="tspan4276">Platinum.</tspan><tspan
         sodipodi:role="line"
         x="175.24506"
         y="763.05023"
         style="font-size:8.74111176px"
         id="tspan4844">Lift-off.</tspan></text>
    <text
       xml:space="preserve"
       style="font-style:normal;font-weight:normal;font-size:11.65481567px;line-height:125%;font-family:sans-serif;letter-spacing:0px;word-spacing:0px;fill:#000000;fill-opacity:1;stroke:none;stroke-width:1px;stroke-linecap:butt;stroke-linejoin:miter;stroke-opacity:1"
       x="442.44107"
       y="547.61731"
       id="text4596-93-6-4-0-7"
       sodipodi:linespacing="125%"><tspan
         sodipodi:role="line"
         x="442.44107"
         y="547.61731"
         style="font-size:8.74111176px"
         id="tspan4844-6">Spin coating of </tspan><tspan
         sodipodi:role="line"
         x="442.44107"
         y="558.5437"
         style="font-size:8.74111176px"
         id="tspan4898">second layer of </tspan><tspan
         sodipodi:role="line"
         x="442.44107"
         y="569.47009"
         style="font-size:8.74111176px"
         id="tspan4288">polyimide.</tspan></text>
    <text
       xml:space="preserve"
       style="font-style:normal;font-weight:normal;font-size:11.65481567px;line-height:125%;font-family:sans-serif;letter-spacing:0px;word-spacing:0px;fill:#000000;fill-opacity:1;stroke:none;stroke-width:1px;stroke-linecap:butt;stroke-linejoin:miter;stroke-opacity:1"
       x="442.44107"
       y="609.58649"
       id="text4596-93-6-4-0-9"
       sodipodi:linespacing="125%"><tspan
         sodipodi:role="line"
         x="442.44107"
         y="609.58649"
         style="font-size:8.74111176px"
         id="tspan4844-5">Spin coating of </tspan><tspan
         sodipodi:role="line"
         x="442.44107"
         y="620.51288"
         style="font-size:8.74111176px"
         id="tspan4290"><tspan
   style="font-weight:bold"
   id="tspan4292">positive</tspan> resist.</tspan><tspan
         sodipodi:role="line"
         x="442.44107"
         y="631.43927"
         style="font-size:8.74111176px"
         id="tspan4906">Patterning of Mask </tspan><tspan
         sodipodi:role="line"
         x="442.44107"
         y="642.36566"
         style="font-size:8.74111176px"
         id="tspan4298">2 (PI).</tspan></text>
    <text
       xml:space="preserve"
       style="font-style:normal;font-weight:normal;font-size:11.65481567px;line-height:125%;font-family:sans-serif;letter-spacing:0px;word-spacing:0px;fill:#000000;fill-opacity:1;stroke:none;stroke-width:1px;stroke-linecap:butt;stroke-linejoin:miter;stroke-opacity:1"
       x="442.44107"
       y="677.04242"
       id="text4596-93-6-4-0-2"
       sodipodi:linespacing="125%"><tspan
         sodipodi:role="line"
         x="442.44107"
         y="677.04242"
         style="font-size:8.74111176px"
         id="tspan4809-2-6">Reactive Ion Etching </tspan><tspan
         sodipodi:role="line"
         x="442.44107"
         y="687.96881"
         style="font-size:8.74111176px"
         id="tspan4842-4">of PI.</tspan><tspan
         sodipodi:role="line"
         x="442.44107"
         y="698.8952"
         style="font-size:8.74111176px"
         id="tspan4844-8">Release by peeling.</tspan></text>
    <path
       inkscape:connector-curvature="0"
       id="path4979"
       d="m 19.432487,680.57205 74.719967,0 0,2.29202"
       style="fill:none;fill-rule:evenodd;stroke:#000000;stroke-width:1.28353333;stroke-linecap:butt;stroke-linejoin:miter;stroke-miterlimit:4;stroke-dasharray:3.85060027, 3.85060027;stroke-dashoffset:0;stroke-opacity:1" />
    <path
       inkscape:connector-curvature="0"
       id="path4979-4"
       d="m 19.432487,747.10944 74.719967,0 0,2.29203"
       style="fill:none;fill-rule:evenodd;stroke:#000000;stroke-width:1.28353333;stroke-linecap:butt;stroke-linejoin:miter;stroke-miterlimit:4;stroke-dasharray:3.85060027, 3.85060027;stroke-dashoffset:0;stroke-opacity:1" />
    <path
       inkscape:connector-curvature="0"
       id="path4979-1"
       d="m 286.62858,547.96072 74.71997,0 0,2.29203"
       style="fill:none;fill-rule:evenodd;stroke:#000000;stroke-width:1.28353333;stroke-linecap:butt;stroke-linejoin:miter;stroke-miterlimit:4;stroke-dasharray:3.85060027, 3.85060027;stroke-dashoffset:0;stroke-opacity:1" />
    <path
       inkscape:connector-curvature="0"
       id="path4979-8"
       d="m 286.62858,614.49812 74.71997,0 0,2.29203"
       style="fill:none;fill-rule:evenodd;stroke:#000000;stroke-width:1.28353333;stroke-linecap:butt;stroke-linejoin:miter;stroke-miterlimit:4;stroke-dasharray:3.85060027, 3.85060027;stroke-dashoffset:0;stroke-opacity:1" />
    <path
       inkscape:connector-curvature="0"
       id="path4979-3"
       d="m 286.62858,681.03553 74.71997,0 0,2.29203"
       style="fill:none;fill-rule:evenodd;stroke:#000000;stroke-width:1.28353333;stroke-linecap:butt;stroke-linejoin:miter;stroke-miterlimit:4;stroke-dasharray:3.85060027, 3.85060027;stroke-dashoffset:0;stroke-opacity:1" />
    <path
       inkscape:connector-curvature="0"
       id="path4979-9"
       d="m 19.432487,614.03461 74.719967,0 0,2.29202"
       style="fill:none;fill-rule:evenodd;stroke:#000000;stroke-width:1.28353333;stroke-linecap:butt;stroke-linejoin:miter;stroke-miterlimit:4;stroke-dasharray:3.85060027, 3.85060027;stroke-dashoffset:0;stroke-opacity:1" />
    <path
       inkscape:connector-curvature="0"
       id="path4979-2"
       d="m 19.432487,547.49719 74.719967,0 0,2.29203"
       style="fill:none;fill-rule:evenodd;stroke:#000000;stroke-width:1.28353333;stroke-linecap:butt;stroke-linejoin:miter;stroke-miterlimit:4;stroke-dasharray:3.85060027, 3.85060027;stroke-dashoffset:0;stroke-opacity:1" />
    <path
       inkscape:connector-curvature="0"
       style="opacity:0.75099996;fill:#c17d11;fill-opacity:1;stroke:#000000;stroke-width:0.48646921;stroke-miterlimit:4;stroke-dasharray:none;stroke-dashoffset:0;stroke-opacity:1"
       d="m 306.24329,662.86984 0,46.03786 34.46979,0 0,-46.03786 -34.46979,0 z m 17.48942,7.22795 a 10.398976,10.398976 0 0 1 10.39878,10.40017 10.398976,10.398976 0 0 1 -10.39878,10.39878 10.398976,10.398976 0 0 1 -10.39878,-10.39878 10.398976,10.398976 0 0 1 10.39878,-10.40017 z"
       id="rect4286-7-9-9" />
    <flowRoot
       xml:space="preserve"
       id="flowRoot4302"
       style="font-style:normal;font-variant:normal;font-weight:normal;font-stretch:normal;font-size:11.25px;line-height:121.00000381%;font-family:Arial;-inkscape-font-specification:'Arial, Normal';text-align:start;letter-spacing:0px;word-spacing:0px;writing-mode:lr-tb;text-anchor:start;fill:#000000;fill-opacity:1;stroke:none;stroke-width:1px;stroke-linecap:butt;stroke-linejoin:miter;stroke-opacity:1"
       transform="translate(18.747947,524.29845)"><flowRegion
         id="flowRegion4304"><rect
           id="rect4306"
           width="38.57143"
           height="270"
           x="608.57141"
           y="-20.301088" /></flowRegion><flowPara
         id="flowPara4308"></flowPara></flowRoot>    <flowRoot
       xml:space="preserve"
       id="flowRoot4310"
       style="font-style:normal;font-variant:normal;font-weight:normal;font-stretch:normal;font-size:11.25px;line-height:121.00000381%;font-family:Arial;-inkscape-font-specification:'Arial, Normal';text-align:start;letter-spacing:0px;word-spacing:0px;writing-mode:lr-tb;text-anchor:start;fill:#000000;fill-opacity:1;stroke:none;stroke-width:1px;stroke-linecap:butt;stroke-linejoin:miter;stroke-opacity:1"
       transform="translate(18.747947,524.29845)"><flowRegion
         id="flowRegion4312"><rect
           id="rect4314"
           width="691.42859"
           height="32.142857"
           x="322.14285"
           y="-13.158231" /></flowRegion><flowPara
         id="flowPara4316"></flowPara></flowRoot>    <flowRoot
       xml:space="preserve"
       id="flowRoot4318"
       style="font-style:normal;font-variant:normal;font-weight:normal;font-stretch:normal;font-size:11.25px;line-height:121.00000381%;font-family:Arial;-inkscape-font-specification:'Arial, Normal';text-align:start;letter-spacing:0px;word-spacing:0px;writing-mode:lr-tb;text-anchor:start;fill:#000000;fill-opacity:1;stroke:none;stroke-width:1px;stroke-linecap:butt;stroke-linejoin:miter;stroke-opacity:1"
       transform="translate(18.747947,524.29845)"><flowRegion
         id="flowRegion4320"><rect
           id="rect4322"
           width="697.85712"
           height="54.285713"
           x="261.42856"
           y="-26.729658" /></flowRegion><flowPara
         id="flowPara4324"></flowPara></flowRoot>  </g>
</svg>
