<?xml version="1.0" encoding="UTF-8" standalone="no"?>
<!-- Created with Inkscape (http://www.inkscape.org/) -->

<svg
   xmlns:dc="http://purl.org/dc/elements/1.1/"
   xmlns:cc="http://creativecommons.org/ns#"
   xmlns:rdf="http://www.w3.org/1999/02/22-rdf-syntax-ns#"
   xmlns:svg="http://www.w3.org/2000/svg"
   xmlns="http://www.w3.org/2000/svg"
   xmlns:sodipodi="http://sodipodi.sourceforge.net/DTD/sodipodi-0.dtd"
   xmlns:inkscape="http://www.inkscape.org/namespaces/inkscape"
   width="289.37967mm"
   height="97.281693mm"
   viewBox="0 0 1025.361 344.69891"
   id="svg4461"
   version="1.1"
   inkscape:version="0.91 r13725"
   sodipodi:docname="process.svg"
   inkscape:export-filename="E:\2015_Sergio\04_Pictures Videos Drawings\20160425 PI Cuff Process Sketch\20160503 PI Cuff Process Sketch Landscape.png"
   inkscape:export-xdpi="600"
   inkscape:export-ydpi="600">
  <defs
     id="defs4463" />
  <sodipodi:namedview
     id="base"
     pagecolor="#ffffff"
     bordercolor="#666666"
     borderopacity="1.0"
     inkscape:pageopacity="0.0"
     inkscape:pageshadow="2"
     inkscape:zoom="0.49497475"
     inkscape:cx="555.18519"
     inkscape:cy="368.7234"
     inkscape:document-units="px"
     inkscape:current-layer="layer1"
     showgrid="false"
     inkscape:window-width="1304"
     inkscape:window-height="745"
     inkscape:window-x="54"
     inkscape:window-y="-8"
     inkscape:window-maximized="1"
     fit-margin-top="0"
     fit-margin-left="0"
     fit-margin-right="0"
     fit-margin-bottom="0" />
  <metadata
     id="metadata4466">
    <rdf:RDF>
      <cc:Work
         rdf:about="">
        <dc:format>image/svg+xml</dc:format>
        <dc:type
           rdf:resource="http://purl.org/dc/dcmitype/StillImage" />
        <dc:title></dc:title>
      </cc:Work>
    </rdf:RDF>
  </metadata>
  <g
     inkscape:label="Ebene 1"
     inkscape:groupmode="layer"
     id="layer1"
     transform="translate(-18.748008,-524.29845)">
    <rect
       style="opacity:1;fill:#ad7fa8;fill-opacity:1;stroke:#000000;stroke-width:0.59572691;stroke-miterlimit:4;stroke-dasharray:none;stroke-dashoffset:0;stroke-opacity:1"
       id="rect4136"
       width="73.880722"
       height="11.329387"
       x="246.30806"
       y="584.47424" />
    <path
       inkscape:connector-curvature="0"
       style="opacity:1;fill:#ad7fa8;fill-opacity:1;stroke:#000000;stroke-width:0.59572691;stroke-miterlimit:4;stroke-dasharray:none;stroke-dashoffset:0;stroke-opacity:1"
       d="m 183.70922,556.52742 a 36.579864,36.579864 0 0 0 -36.57902,36.58018 36.579864,36.579864 0 0 0 18.64322,31.85744 l 35.82506,0 a 36.579864,36.579864 0 0 0 18.69093,-31.85744 36.579864,36.579864 0 0 0 -36.58019,-36.58018 z"
       id="path4140" />
    <rect
       style="opacity:1;fill:#ad7fa8;fill-opacity:1;stroke:#000000;stroke-width:0.59572691;stroke-miterlimit:4;stroke-dasharray:none;stroke-dashoffset:0;stroke-opacity:1"
       id="rect4136-4"
       width="73.880722"
       height="11.329387"
       x="246.30806"
       y="665.71906" />
    <path
       inkscape:connector-curvature="0"
       style="opacity:1;fill:#ad7fa8;fill-opacity:1;stroke:#000000;stroke-width:0.59572691;stroke-miterlimit:4;stroke-dasharray:none;stroke-dashoffset:0;stroke-opacity:1"
       d="m 183.70922,637.77222 a 36.579864,36.579864 0 0 0 -36.57902,36.58019 36.579864,36.579864 0 0 0 18.64322,31.85743 l 35.82506,0 a 36.579864,36.579864 0 0 0 18.69093,-31.85743 36.579864,36.579864 0 0 0 -36.58019,-36.58019 z"
       id="path4140-6" />
    <rect
       style="opacity:1;fill:#c17d11;fill-opacity:1;stroke:#000000;stroke-width:0.34370145;stroke-miterlimit:4;stroke-dasharray:none;stroke-dashoffset:0;stroke-opacity:1"
       id="rect4136-2-4"
       width="74.132751"
       height="3.7583373"
       x="246.05602"
       y="661.96069" />
    <path
       inkscape:connector-curvature="0"
       style="opacity:1;fill:#c17d11;fill-opacity:1;stroke:#000000;stroke-width:0.59572691;stroke-miterlimit:4;stroke-dasharray:none;stroke-dashoffset:0;stroke-opacity:1"
       d="m 183.70922,637.77222 a 36.579864,36.579864 0 0 0 -36.57902,36.58019 36.579864,36.579864 0 0 0 18.64322,31.85743 l 35.82506,0 a 36.579864,36.579864 0 0 0 18.69093,-31.85743 36.579864,36.579864 0 0 0 -36.58019,-36.58019 z"
       id="path4140-4-4" />
    <rect
       style="opacity:1;fill:#ad7fa8;fill-opacity:1;stroke:#000000;stroke-width:0.59572691;stroke-miterlimit:4;stroke-dasharray:none;stroke-dashoffset:0;stroke-opacity:1"
       id="rect4136-4-2"
       width="73.880722"
       height="11.329387"
       x="246.30806"
       y="746.96368" />
    <path
       inkscape:connector-curvature="0"
       style="opacity:1;fill:#ad7fa8;fill-opacity:1;stroke:#000000;stroke-width:0.59572691;stroke-miterlimit:4;stroke-dasharray:none;stroke-dashoffset:0;stroke-opacity:1"
       d="m 183.70922,719.01684 a 36.579864,36.579864 0 0 0 -36.57902,36.58019 36.579864,36.579864 0 0 0 18.64323,31.85743 l 35.82506,0 a 36.579864,36.579864 0 0 0 18.69093,-31.85743 36.579864,36.579864 0 0 0 -36.5802,-36.58019 z"
       id="path4140-6-6" />
    <rect
       style="opacity:1;fill:#c17d11;fill-opacity:1;stroke:#000000;stroke-width:0.34370145;stroke-miterlimit:4;stroke-dasharray:none;stroke-dashoffset:0;stroke-opacity:1"
       id="rect4136-2-4-8"
       width="74.132751"
       height="3.7583373"
       x="246.05602"
       y="743.20526" />
    <path
       inkscape:connector-curvature="0"
       style="opacity:1;fill:#c17d11;fill-opacity:1;stroke:#000000;stroke-width:0.59572691;stroke-miterlimit:4;stroke-dasharray:none;stroke-dashoffset:0;stroke-opacity:1"
       d="m 183.70922,719.01684 a 36.579864,36.579864 0 0 0 -36.57902,36.58019 36.579864,36.579864 0 0 0 18.64323,31.85743 l 35.82506,0 a 36.579864,36.579864 0 0 0 18.69093,-31.85743 36.579864,36.579864 0 0 0 -36.5802,-36.58019 z"
       id="path4140-4-4-5" />
    <path
       inkscape:connector-curvature="0"
       style="opacity:0.75800003;fill:#ef2929;fill-opacity:1;stroke:#000000;stroke-width:0.59572691;stroke-miterlimit:4;stroke-dasharray:none;stroke-dashoffset:0;stroke-opacity:1"
       d="m 183.70956,719.01724 a 36.579864,36.579864 0 0 0 -36.57903,36.58019 36.579864,36.579864 0 0 0 18.64323,31.85742 l 35.82505,0 a 36.579864,36.579864 0 0 0 18.69093,-31.85742 36.579864,36.579864 0 0 0 -36.58018,-36.58019 z m -0.1978,12.38228 a 19.069777,19.069777 0 0 1 19.07024,19.07024 19.069777,19.069777 0 0 1 -13.96351,18.3535 l 0,14.80125 -10.21346,0 0,-14.78031 a 19.069777,19.069777 0 0 1 -13.96351,-18.37444 19.069777,19.069777 0 0 1 19.07024,-19.07024 z m 0,11.43399 a 7.63605,7.63605 0 0 0 -7.63624,7.63625 7.63605,7.63605 0 0 0 7.63624,7.63623 7.63605,7.63605 0 0 0 7.63624,-7.63623 7.63605,7.63605 0 0 0 -7.63624,-7.63625 z"
       id="path4140-4-4-5-7" />
    <rect
       style="opacity:1;fill:#ef2929;fill-opacity:1;stroke:#000000;stroke-width:0.16270147;stroke-miterlimit:4;stroke-dasharray:none;stroke-dashoffset:0;stroke-opacity:1"
       id="rect4136-2-4-8-0"
       width="16.61232"
       height="3.7583373"
       x="274.81625"
       y="739.44696" />
    <rect
       style="opacity:1;fill:#ef2929;fill-opacity:1;stroke:#000000;stroke-width:0.16270147;stroke-miterlimit:4;stroke-dasharray:none;stroke-dashoffset:0;stroke-opacity:1"
       id="rect4136-2-4-8-0-8"
       width="16.61232"
       height="3.7583373"
       x="246.05602"
       y="739.44696" />
    <rect
       style="opacity:1;fill:#ef2929;fill-opacity:1;stroke:#000000;stroke-width:0.16270147;stroke-miterlimit:4;stroke-dasharray:none;stroke-dashoffset:0;stroke-opacity:1"
       id="rect4136-2-4-8-0-6"
       width="16.61232"
       height="3.7583373"
       x="303.57645"
       y="739.44696" />
    <rect
       style="opacity:1;fill:#ad7fa8;fill-opacity:1;stroke:#000000;stroke-width:0.59572691;stroke-miterlimit:4;stroke-dasharray:none;stroke-dashoffset:0;stroke-opacity:1"
       id="rect4136-4-2-6"
       width="73.880722"
       height="11.329387"
       x="246.30806"
       y="828.2088" />
    <path
       inkscape:connector-curvature="0"
       style="opacity:1;fill:#ad7fa8;fill-opacity:1;stroke:#000000;stroke-width:0.59572691;stroke-miterlimit:4;stroke-dasharray:none;stroke-dashoffset:0;stroke-opacity:1"
       d="m 183.70922,800.26189 a 36.579864,36.579864 0 0 0 -36.57902,36.58019 36.579864,36.579864 0 0 0 18.64322,31.85743 l 35.82506,0 a 36.579864,36.579864 0 0 0 18.69093,-31.85743 36.579864,36.579864 0 0 0 -36.58019,-36.58019 z"
       id="path4140-6-6-8" />
    <rect
       style="opacity:1;fill:#c17d11;fill-opacity:1;stroke:#000000;stroke-width:0.34370145;stroke-miterlimit:4;stroke-dasharray:none;stroke-dashoffset:0;stroke-opacity:1"
       id="rect4136-2-4-8-1"
       width="74.132751"
       height="3.7583373"
       x="246.05602"
       y="824.45038" />
    <path
       inkscape:connector-curvature="0"
       style="opacity:1;fill:#c17d11;fill-opacity:1;stroke:#000000;stroke-width:0.59572691;stroke-miterlimit:4;stroke-dasharray:none;stroke-dashoffset:0;stroke-opacity:1"
       d="m 183.70922,800.26189 a 36.579864,36.579864 0 0 0 -36.57902,36.58019 36.579864,36.579864 0 0 0 18.64322,31.85743 l 35.82506,0 a 36.579864,36.579864 0 0 0 18.69093,-31.85743 36.579864,36.579864 0 0 0 -36.58019,-36.58019 z"
       id="path4140-4-4-5-6" />
    <path
       inkscape:connector-curvature="0"
       style="opacity:1;fill:#888a85;fill-opacity:1;stroke:#000000;stroke-width:0.59572691;stroke-miterlimit:4;stroke-dasharray:none;stroke-dashoffset:0;stroke-opacity:1"
       d="m 183.51176,812.64437 a 19.069777,19.069777 0 0 0 -19.07024,19.07024 19.069777,19.069777 0 0 0 13.9635,18.37445 l 0,14.78032 10.21347,0 0,-14.80125 A 19.069777,19.069777 0 0 0 202.582,831.71461 19.069777,19.069777 0 0 0 183.51176,812.64437 Z m 0,11.434 a 7.63605,7.63605 0 0 1 7.63624,7.63624 7.63605,7.63605 0 0 1 -7.63624,7.63624 7.63605,7.63605 0 0 1 -7.63624,-7.63624 7.63605,7.63605 0 0 1 7.63624,-7.63624 z"
       id="path4252" />
    <rect
       style="opacity:1;fill:#888a85;fill-opacity:1;stroke:#000000;stroke-width:0.09762455;stroke-miterlimit:4;stroke-dasharray:none;stroke-dashoffset:0;stroke-opacity:1"
       id="rect4136-2-4-8-0-8-2-2"
       width="12.189403"
       height="1.8440759"
       x="262.64761"
       y="822.62701" />
    <rect
       style="opacity:1;fill:#888a85;fill-opacity:1;stroke:#000000;stroke-width:0.0936816;stroke-miterlimit:4;stroke-dasharray:none;stroke-dashoffset:0;stroke-opacity:1"
       id="rect4136-2-4-8-0-8-2-2-3"
       width="12.193347"
       height="1.6975751"
       x="291.40582"
       y="822.77551" />
    <rect
       style="opacity:1;fill:#ad7fa8;fill-opacity:1;stroke:#000000;stroke-width:0.59572691;stroke-miterlimit:4;stroke-dasharray:none;stroke-dashoffset:0;stroke-opacity:1"
       id="rect4136-4-2-6-2-5"
       width="73.880722"
       height="11.329387"
       x="777.51587"
       y="662.88184" />
    <path
       inkscape:connector-curvature="0"
       style="opacity:1;fill:#ad7fa8;fill-opacity:1;stroke:#000000;stroke-width:0.59572691;stroke-miterlimit:4;stroke-dasharray:none;stroke-dashoffset:0;stroke-opacity:1"
       d="m 715.1692,634.93509 a 36.579864,36.579864 0 0 0 -36.57903,36.58019 36.579864,36.579864 0 0 0 18.64323,31.85743 l 35.82506,0 a 36.579864,36.579864 0 0 0 18.69093,-31.85743 36.579864,36.579864 0 0 0 -36.58019,-36.58019 z"
       id="path4140-6-6-8-0-2" />
    <rect
       style="opacity:1;fill:#c17d11;fill-opacity:1;stroke:#000000;stroke-width:0.34370145;stroke-miterlimit:4;stroke-dasharray:none;stroke-dashoffset:0;stroke-opacity:1"
       id="rect4136-2-4-8-1-6-4"
       width="74.132751"
       height="3.7583373"
       x="777.51587"
       y="659.12354" />
    <path
       inkscape:connector-curvature="0"
       style="opacity:1;fill:#c17d11;fill-opacity:1;stroke:#000000;stroke-width:0.59572691;stroke-miterlimit:4;stroke-dasharray:none;stroke-dashoffset:0;stroke-opacity:1"
       d="m 715.1692,634.93509 a 36.579864,36.579864 0 0 0 -36.57903,36.58019 36.579864,36.579864 0 0 0 18.64323,31.85743 l 35.82506,0 a 36.579864,36.579864 0 0 0 18.69093,-31.85743 36.579864,36.579864 0 0 0 -36.58019,-36.58019 z"
       id="path4140-4-4-5-6-6-7" />
    <path
       inkscape:connector-curvature="0"
       style="opacity:1;fill:#888a85;fill-opacity:1;stroke:#000000;stroke-width:0.59572691;stroke-miterlimit:4;stroke-dasharray:none;stroke-dashoffset:0;stroke-opacity:1"
       d="m 714.97173,647.31758 a 19.069777,19.069777 0 0 0 -19.07023,19.07024 19.069777,19.069777 0 0 0 13.9635,18.37445 l 0,14.78031 10.21347,0 0,-14.80126 a 19.069777,19.069777 0 0 0 13.96351,-18.3535 19.069777,19.069777 0 0 0 -19.07025,-19.07024 z m 0,11.43399 a 7.63605,7.63605 0 0 1 7.63625,7.63625 7.63605,7.63605 0 0 1 -7.63625,7.63623 7.63605,7.63605 0 0 1 -7.63623,-7.63623 7.63605,7.63605 0 0 1 7.63623,-7.63625 z"
       id="path4252-5-4" />
    <rect
       style="opacity:1;fill:#c17d11;fill-opacity:1;stroke:#000000;stroke-width:0.34370145;stroke-miterlimit:4;stroke-dasharray:none;stroke-dashoffset:0;stroke-opacity:1"
       id="rect4136-2-4-8-1-6-7-7"
       width="74.132751"
       height="3.7583373"
       x="777.51587"
       y="655.36517" />
    <rect
       style="opacity:1;fill:#888a85;fill-opacity:1;stroke:#000000;stroke-width:0.09762455;stroke-miterlimit:4;stroke-dasharray:none;stroke-dashoffset:0;stroke-opacity:1"
       id="rect4136-2-4-8-0-8-2-2-2-4"
       width="12.189403"
       height="1.8440759"
       x="794.10748"
       y="657.30023" />
    <rect
       style="opacity:1;fill:#888a85;fill-opacity:1;stroke:#000000;stroke-width:0.0936816;stroke-miterlimit:4;stroke-dasharray:none;stroke-dashoffset:0;stroke-opacity:1"
       id="rect4136-2-4-8-0-8-2-2-3-6-6"
       width="12.193347"
       height="1.6975751"
       x="822.86578"
       y="657.44867" />
    <path
       inkscape:connector-curvature="0"
       style="opacity:0.5;fill:#c17d11;fill-opacity:1;stroke:#000000;stroke-width:0.59572691;stroke-miterlimit:4;stroke-dasharray:none;stroke-dashoffset:0;stroke-opacity:1"
       d="m 715.1692,634.93509 a 36.579864,36.579864 0 0 0 -36.57903,36.58019 36.579864,36.579864 0 0 0 18.64323,31.85743 l 35.82506,0 a 36.579864,36.579864 0 0 0 18.69093,-31.85743 36.579864,36.579864 0 0 0 -36.58019,-36.58019 z"
       id="path4140-4-4-6-1" />
    <path
       inkscape:connector-curvature="0"
       style="opacity:0.75099996;fill:#ef2929;fill-opacity:1;stroke:#000000;stroke-width:0.59540904;stroke-miterlimit:4;stroke-dasharray:none;stroke-dashoffset:0;stroke-opacity:1"
       d="m 693.35298,644.4939 0,56.34758 42.18895,0 0,-56.34758 -42.18895,0 z m 21.406,8.8466 a 12.727721,12.727721 0 0 1 12.72748,12.72918 12.727721,12.727721 0 0 1 -12.72748,12.72748 12.727721,12.727721 0 0 1 -12.72747,-12.72748 12.727721,12.727721 0 0 1 12.72747,-12.72918 z"
       id="rect4286-7-9" />
    <rect
       style="opacity:1;fill:#ef2929;fill-opacity:1;stroke:#000000;stroke-width:0.15224718;stroke-miterlimit:4;stroke-dasharray:none;stroke-dashoffset:0;stroke-opacity:1"
       id="rect4136-2-4-8-1-6-4-4"
       width="14.54608"
       height="3.7583373"
       x="828.83691"
       y="651.60681" />
    <rect
       style="opacity:1;fill:#ef2929;fill-opacity:1;stroke:#000000;stroke-width:0.15224718;stroke-miterlimit:4;stroke-dasharray:none;stroke-dashoffset:0;stroke-opacity:1"
       id="rect4136-2-4-8-1-6-4-4-0"
       width="14.54608"
       height="3.7583373"
       x="785.43555"
       y="651.60681" />
    <rect
       style="opacity:1;fill:#ad7fa8;fill-opacity:1;stroke:#000000;stroke-width:0.59572691;stroke-miterlimit:4;stroke-dasharray:none;stroke-dashoffset:0;stroke-opacity:1"
       id="rect4136-4-2-6-2"
       width="73.880722"
       height="11.329387"
       x="777.76788"
       y="581.63702" />
    <path
       inkscape:connector-curvature="0"
       style="opacity:1;fill:#ad7fa8;fill-opacity:1;stroke:#000000;stroke-width:0.59572691;stroke-miterlimit:4;stroke-dasharray:none;stroke-dashoffset:0;stroke-opacity:1"
       d="m 715.1692,553.69025 a 36.579864,36.579864 0 0 0 -36.57903,36.58018 36.579864,36.579864 0 0 0 18.64323,31.85743 l 35.82506,0 a 36.579864,36.579864 0 0 0 18.69093,-31.85743 36.579864,36.579864 0 0 0 -36.58019,-36.58018 z"
       id="path4140-6-6-8-0" />
    <rect
       style="opacity:1;fill:#c17d11;fill-opacity:1;stroke:#000000;stroke-width:0.34370145;stroke-miterlimit:4;stroke-dasharray:none;stroke-dashoffset:0;stroke-opacity:1"
       id="rect4136-2-4-8-1-6"
       width="74.132751"
       height="3.7583373"
       x="777.51587"
       y="577.87866" />
    <path
       inkscape:connector-curvature="0"
       style="opacity:1;fill:#c17d11;fill-opacity:1;stroke:#000000;stroke-width:0.59572691;stroke-miterlimit:4;stroke-dasharray:none;stroke-dashoffset:0;stroke-opacity:1"
       d="m 715.1692,553.69025 a 36.579864,36.579864 0 0 0 -36.57903,36.58018 36.579864,36.579864 0 0 0 18.64323,31.85743 l 35.82506,0 a 36.579864,36.579864 0 0 0 18.69093,-31.85743 36.579864,36.579864 0 0 0 -36.58019,-36.58018 z"
       id="path4140-4-4-5-6-6" />
    <path
       inkscape:connector-curvature="0"
       style="opacity:1;fill:#888a85;fill-opacity:1;stroke:#000000;stroke-width:0.59572691;stroke-miterlimit:4;stroke-dasharray:none;stroke-dashoffset:0;stroke-opacity:1"
       d="m 714.97173,566.07273 a 19.069777,19.069777 0 0 0 -19.07024,19.07024 19.069777,19.069777 0 0 0 13.96351,18.37445 l 0,14.78031 10.21347,0 0,-14.80125 a 19.069777,19.069777 0 0 0 13.9635,-18.35351 19.069777,19.069777 0 0 0 -19.07024,-19.07024 z m 0,11.43399 a 7.63605,7.63605 0 0 1 7.63624,7.63625 7.63605,7.63605 0 0 1 -7.63624,7.63624 7.63605,7.63605 0 0 1 -7.63623,-7.63624 7.63605,7.63605 0 0 1 7.63623,-7.63625 z"
       id="path4252-5" />
    <rect
       style="opacity:1;fill:#c17d11;fill-opacity:1;stroke:#000000;stroke-width:0.34370145;stroke-miterlimit:4;stroke-dasharray:none;stroke-dashoffset:0;stroke-opacity:1"
       id="rect4136-2-4-8-1-6-7"
       width="74.132751"
       height="3.7583373"
       x="777.51587"
       y="574.12036" />
    <rect
       style="opacity:1;fill:#888a85;fill-opacity:1;stroke:#000000;stroke-width:0.09762455;stroke-miterlimit:4;stroke-dasharray:none;stroke-dashoffset:0;stroke-opacity:1"
       id="rect4136-2-4-8-0-8-2-2-2"
       width="12.189403"
       height="1.8440759"
       x="794.10748"
       y="576.05536" />
    <rect
       style="opacity:1;fill:#888a85;fill-opacity:1;stroke:#000000;stroke-width:0.0936816;stroke-miterlimit:4;stroke-dasharray:none;stroke-dashoffset:0;stroke-opacity:1"
       id="rect4136-2-4-8-0-8-2-2-3-6"
       width="12.193347"
       height="1.6975751"
       x="822.86572"
       y="576.2038" />
    <path
       inkscape:connector-curvature="0"
       style="opacity:0.5;fill:#c17d11;fill-opacity:1;stroke:#000000;stroke-width:0.59572691;stroke-miterlimit:4;stroke-dasharray:none;stroke-dashoffset:0;stroke-opacity:1"
       d="m 715.1692,553.69025 a 36.579864,36.579864 0 0 0 -36.57903,36.58018 36.579864,36.579864 0 0 0 18.64323,31.85743 l 35.82506,0 a 36.579864,36.579864 0 0 0 18.69093,-31.85743 36.579864,36.579864 0 0 0 -36.58019,-36.58018 z"
       id="path4140-4-4-6" />
    <rect
       style="opacity:1;fill:#ad7fa8;fill-opacity:1;stroke:#000000;stroke-width:0.59572691;stroke-miterlimit:4;stroke-dasharray:none;stroke-dashoffset:0;stroke-opacity:1"
       id="rect4136-4-2-6-2-5-9"
       width="73.880722"
       height="11.329387"
       x="777.51587"
       y="744.12665" />
    <path
       inkscape:connector-curvature="0"
       style="opacity:1;fill:#ad7fa8;fill-opacity:1;stroke:#000000;stroke-width:0.59572691;stroke-miterlimit:4;stroke-dasharray:none;stroke-dashoffset:0;stroke-opacity:1"
       d="m 715.1692,716.17992 a 36.579864,36.579864 0 0 0 -36.57903,36.58018 36.579864,36.579864 0 0 0 18.64323,31.85745 l 35.82506,0 A 36.579864,36.579864 0 0 0 751.74939,752.7601 36.579864,36.579864 0 0 0 715.1692,716.17992 Z"
       id="path4140-6-6-8-0-2-2" />
    <rect
       style="opacity:1;fill:#c17d11;fill-opacity:1;stroke:#000000;stroke-width:0.18337344;stroke-miterlimit:4;stroke-dasharray:none;stroke-dashoffset:0;stroke-opacity:1"
       id="rect4136-2-4-8-1-6-4-0"
       width="20.982826"
       height="3.7796545"
       x="785.32471"
       y="740.35767" />
    <path
       inkscape:connector-curvature="0"
       style="opacity:1;fill:#888a85;fill-opacity:1;stroke:#000000;stroke-width:0.59572691;stroke-miterlimit:4;stroke-dasharray:none;stroke-dashoffset:0;stroke-opacity:1"
       d="m 714.97173,728.56239 a 19.069777,19.069777 0 0 0 -19.07023,19.07024 19.069777,19.069777 0 0 0 13.9635,18.37447 l 0,14.78034 10.21347,0 0,-14.80125 a 19.069777,19.069777 0 0 0 13.96351,-18.35356 19.069777,19.069777 0 0 0 -19.07025,-19.07024 z m 0,11.434 a 7.63605,7.63605 0 0 1 7.63625,7.63624 7.63605,7.63605 0 0 1 -7.63625,7.63624 7.63605,7.63605 0 0 1 -7.63623,-7.63624 7.63605,7.63605 0 0 1 7.63623,-7.63624 z"
       id="path4252-5-4-5" />
    <rect
       style="opacity:1;fill:#c17d11;fill-opacity:1;stroke:#000000;stroke-width:0.15224718;stroke-miterlimit:4;stroke-dasharray:none;stroke-dashoffset:0;stroke-opacity:1"
       id="rect4136-2-4-8-1-6-4-4-3"
       width="14.54608"
       height="3.7583373"
       x="828.75848"
       y="736.60999" />
    <rect
       style="opacity:1;fill:#c17d11;fill-opacity:1;stroke:#000000;stroke-width:0.15224718;stroke-miterlimit:4;stroke-dasharray:none;stroke-dashoffset:0;stroke-opacity:1"
       id="rect4136-2-4-8-1-6-4-4-0-5"
       width="14.54608"
       height="3.7583373"
       x="785.35718"
       y="736.60999" />
    <rect
       style="opacity:1;fill:#888a85;fill-opacity:1;stroke:#000000;stroke-width:0.09762455;stroke-miterlimit:4;stroke-dasharray:none;stroke-dashoffset:0;stroke-opacity:1"
       id="rect4136-2-4-8-0-8-2-2-2-4-9"
       width="12.189403"
       height="1.8440759"
       x="794.10748"
       y="738.54498" />
    <rect
       style="opacity:1;fill:#888a85;fill-opacity:1;stroke:#000000;stroke-width:0.0936816;stroke-miterlimit:4;stroke-dasharray:none;stroke-dashoffset:0;stroke-opacity:1"
       id="rect4136-2-4-8-0-8-2-2-3-6-6-8"
       width="12.193347"
       height="1.6975751"
       x="822.86578"
       y="738.69342" />
    <rect
       style="opacity:1;fill:#c17d11;fill-opacity:1;stroke:#000000;stroke-width:0.18157095;stroke-miterlimit:4;stroke-dasharray:none;stroke-dashoffset:0;stroke-opacity:1"
       id="rect4136-2-4-8-1-6-4-0-5"
       width="20.689034"
       height="3.7583373"
       x="822.6156"
       y="740.36829" />
    <rect
       style="opacity:1;fill:#ffffff;fill-opacity:1;stroke:#000000;stroke-width:0.60792726;stroke-miterlimit:4;stroke-dasharray:none;stroke-dashoffset:0;stroke-opacity:1"
       id="rect4413"
       width="73.602623"
       height="73.602623"
       x="56.272518"
       y="719.30878" />
    <path
       inkscape:connector-curvature="0"
       style="opacity:1;fill:#000000;fill-opacity:1;stroke:#000000;stroke-width:0.59572691;stroke-miterlimit:4;stroke-dasharray:none;stroke-dashoffset:0;stroke-opacity:1"
       d="m 93.073829,731.4869 a 19.069777,19.069777 0 0 0 -19.07025,19.07024 19.069777,19.069777 0 0 0 13.96352,18.37445 l 0,14.78031 10.21346,0 0,-14.80125 A 19.069777,19.069777 0 0 0 112.14407,750.55714 19.069777,19.069777 0 0 0 93.073829,731.4869 Z m 0,11.434 a 7.63605,7.63605 0 0 1 7.636241,7.63624 7.63605,7.63605 0 0 1 -7.636241,7.63624 7.63605,7.63605 0 0 1 -7.63625,-7.63624 7.63605,7.63605 0 0 1 7.63625,-7.63624 z"
       id="path4252-9" />
    <rect
       style="opacity:1;fill:#ffffff;fill-opacity:1;stroke:#000000;stroke-width:0.60792726;stroke-miterlimit:4;stroke-dasharray:none;stroke-dashoffset:0;stroke-opacity:1"
       id="rect4413-7"
       width="73.602623"
       height="73.602623"
       x="587.02942"
       y="634.4577" />
    <path
       style="fill:none;fill-rule:evenodd;stroke:#000000;stroke-width:1.42647922;stroke-linecap:butt;stroke-linejoin:miter;stroke-miterlimit:4;stroke-dasharray:none;stroke-opacity:1"
       d="m 25.748825,546.8725 459.530105,0"
       id="path4594"
       inkscape:connector-curvature="0" />
    <text
       xml:space="preserve"
       style="font-style:normal;font-weight:normal;font-size:14.26479244px;line-height:125%;font-family:sans-serif;letter-spacing:0px;word-spacing:0px;fill:#000000;fill-opacity:1;stroke:none;stroke-width:1px;stroke-linecap:butt;stroke-linejoin:miter;stroke-opacity:1"
       x="81.413086"
       y="536.16931"
       id="text4596"
       sodipodi:linespacing="125%"><tspan
         sodipodi:role="line"
         id="tspan4598"
         x="81.413086"
         y="536.16931"
         style="font-size:14.26479244px">Mask</tspan></text>
    <text
       xml:space="preserve"
       style="font-style:normal;font-weight:normal;font-size:14.26479244px;line-height:125%;font-family:sans-serif;letter-spacing:0px;word-spacing:0px;fill:#000000;fill-opacity:1;stroke:none;stroke-width:1px;stroke-linecap:butt;stroke-linejoin:miter;stroke-opacity:1"
       x="161.53926"
       y="537.18823"
       id="text4596-9"
       sodipodi:linespacing="125%"><tspan
         sodipodi:role="line"
         id="tspan4598-0"
         x="161.53926"
         y="537.18823"
         style="font-size:14.26479244px">Result</tspan></text>
    <text
       xml:space="preserve"
       style="font-style:normal;font-weight:normal;font-size:14.26479244px;line-height:125%;font-family:sans-serif;letter-spacing:0px;word-spacing:0px;fill:#000000;fill-opacity:1;stroke:none;stroke-width:1px;stroke-linecap:butt;stroke-linejoin:miter;stroke-opacity:1"
       x="249.21486"
       y="537.18823"
       id="text4596-6"
       sodipodi:linespacing="125%"><tspan
         sodipodi:role="line"
         id="tspan4598-7"
         x="249.21486"
         y="537.18823"
         style="font-size:14.26479244px">X-section</tspan></text>
    <text
       xml:space="preserve"
       style="font-style:normal;font-weight:normal;font-size:14.26479244px;line-height:125%;font-family:sans-serif;letter-spacing:0px;word-spacing:0px;fill:#000000;fill-opacity:1;stroke:none;stroke-width:1px;stroke-linecap:butt;stroke-linejoin:miter;stroke-opacity:1"
       x="382.30774"
       y="537.18823"
       id="text4596-5"
       sodipodi:linespacing="125%"><tspan
         sodipodi:role="line"
         id="tspan4598-6"
         x="382.30774"
         y="537.18823"
         style="font-size:14.26479244px">Description</tspan></text>
    <text
       xml:space="preserve"
       style="font-style:normal;font-weight:normal;font-size:14.26479244px;line-height:125%;font-family:sans-serif;letter-spacing:0px;word-spacing:0px;fill:#000000;fill-opacity:1;stroke:none;stroke-width:1px;stroke-linecap:butt;stroke-linejoin:miter;stroke-opacity:1"
       x="17.94924"
       y="537.18823"
       id="text4596-7"
       sodipodi:linespacing="125%"><tspan
         sodipodi:role="line"
         id="tspan4598-68"
         x="17.94924"
         y="537.18823"
         style="font-size:14.26479244px">#</tspan></text>
    <text
       xml:space="preserve"
       style="font-style:normal;font-weight:normal;font-size:14.26479244px;line-height:125%;font-family:sans-serif;letter-spacing:0px;word-spacing:0px;fill:#000000;fill-opacity:1;stroke:none;stroke-width:1px;stroke-linecap:butt;stroke-linejoin:miter;stroke-opacity:1"
       x="17.389788"
       y="593.28992"
       id="text4596-7-3"
       sodipodi:linespacing="125%"><tspan
         sodipodi:role="line"
         id="tspan4598-68-4"
         x="17.389788"
         y="593.28992"
         style="font-size:14.26479244px">#1</tspan></text>
    <text
       xml:space="preserve"
       style="font-style:normal;font-weight:normal;font-size:14.26479244px;line-height:125%;font-family:sans-serif;letter-spacing:0px;word-spacing:0px;fill:#000000;fill-opacity:1;stroke:none;stroke-width:1px;stroke-linecap:butt;stroke-linejoin:miter;stroke-opacity:1"
       x="17.389788"
       y="675.16968"
       id="text4596-7-0"
       sodipodi:linespacing="125%"><tspan
         sodipodi:role="line"
         id="tspan4598-68-49"
         x="17.389788"
         y="675.16968"
         style="font-size:14.26479244px">#2</tspan></text>
    <text
       xml:space="preserve"
       style="font-style:normal;font-weight:normal;font-size:14.26479244px;line-height:125%;font-family:sans-serif;letter-spacing:0px;word-spacing:0px;fill:#000000;fill-opacity:1;stroke:none;stroke-width:1px;stroke-linecap:butt;stroke-linejoin:miter;stroke-opacity:1"
       x="17.389788"
       y="756.82599"
       id="text4596-7-7"
       sodipodi:linespacing="125%"><tspan
         sodipodi:role="line"
         id="tspan4598-68-7"
         x="17.389788"
         y="756.82599"
         style="font-size:14.26479244px">#3</tspan></text>
    <text
       xml:space="preserve"
       style="font-style:normal;font-weight:normal;font-size:14.26479244px;line-height:125%;font-family:sans-serif;letter-spacing:0px;word-spacing:0px;fill:#000000;fill-opacity:1;stroke:none;stroke-width:1px;stroke-linecap:butt;stroke-linejoin:miter;stroke-opacity:1"
       x="17.389788"
       y="838.60388"
       id="text4596-7-8"
       sodipodi:linespacing="125%"><tspan
         sodipodi:role="line"
         id="tspan4598-68-1"
         x="17.389788"
         y="838.60388"
         style="font-size:14.26479244px">#4</tspan></text>
    <text
       xml:space="preserve"
       style="font-style:normal;font-weight:normal;font-size:14.26479244px;line-height:125%;font-family:sans-serif;letter-spacing:0px;word-spacing:0px;fill:#000000;fill-opacity:1;stroke:none;stroke-width:1px;stroke-linecap:butt;stroke-linejoin:miter;stroke-opacity:1"
       x="548.84973"
       y="592.44385"
       id="text4596-7-4"
       sodipodi:linespacing="125%"><tspan
         sodipodi:role="line"
         id="tspan4598-68-6"
         x="548.84973"
         y="592.44385"
         style="font-size:14.26479244px">#5</tspan></text>
    <text
       xml:space="preserve"
       style="font-style:normal;font-weight:normal;font-size:14.26479244px;line-height:125%;font-family:sans-serif;letter-spacing:0px;word-spacing:0px;fill:#000000;fill-opacity:1;stroke:none;stroke-width:1px;stroke-linecap:butt;stroke-linejoin:miter;stroke-opacity:1"
       x="548.84973"
       y="674.33136"
       id="text4596-7-2"
       sodipodi:linespacing="125%"><tspan
         sodipodi:role="line"
         id="tspan4598-68-3"
         x="548.84973"
         y="674.33136"
         style="font-size:14.26479244px">#6</tspan></text>
    <text
       xml:space="preserve"
       style="font-style:normal;font-weight:normal;font-size:14.26479244px;line-height:125%;font-family:sans-serif;letter-spacing:0px;word-spacing:0px;fill:#000000;fill-opacity:1;stroke:none;stroke-width:1px;stroke-linecap:butt;stroke-linejoin:miter;stroke-opacity:1"
       x="548.84973"
       y="756.12091"
       id="text4596-7-44"
       sodipodi:linespacing="125%"><tspan
         sodipodi:role="line"
         id="tspan4598-68-32"
         x="548.84973"
         y="756.12091"
         style="font-size:14.26479244px">#7</tspan></text>
    <text
       xml:space="preserve"
       style="font-style:normal;font-weight:normal;font-size:14.26479244px;line-height:125%;font-family:sans-serif;letter-spacing:0px;word-spacing:0px;fill:#000000;fill-opacity:1;stroke:none;stroke-width:1px;stroke-linecap:butt;stroke-linejoin:miter;stroke-opacity:1"
       x="348.17398"
       y="589.92676"
       id="text4596-93"
       sodipodi:linespacing="125%"><tspan
         sodipodi:role="line"
         id="tspan4598-06"
         x="348.17398"
         y="589.92676"
         style="font-size:10.69859409px">Polished silicon wafer</tspan></text>
    <text
       xml:space="preserve"
       style="font-style:normal;font-weight:normal;font-size:14.26479244px;line-height:125%;font-family:sans-serif;letter-spacing:0px;word-spacing:0px;fill:#000000;fill-opacity:1;stroke:none;stroke-width:1px;stroke-linecap:butt;stroke-linejoin:miter;stroke-opacity:1"
       x="348.17398"
       y="664.80688"
       id="text4596-93-6"
       sodipodi:linespacing="125%"><tspan
         sodipodi:role="line"
         id="tspan4598-06-3"
         x="348.17398"
         y="664.80688"
         style="font-size:10.69859409px">Spin coating of </tspan><tspan
         sodipodi:role="line"
         x="348.17398"
         y="678.18011"
         style="font-size:10.69859409px"
         id="tspan4776">first layer of polyimide</tspan></text>
    <text
       xml:space="preserve"
       style="font-style:normal;font-weight:normal;font-size:14.26479244px;line-height:125%;font-family:sans-serif;letter-spacing:0px;word-spacing:0px;fill:#000000;fill-opacity:1;stroke:none;stroke-width:1px;stroke-linecap:butt;stroke-linejoin:miter;stroke-opacity:1"
       x="348.17398"
       y="740.65344"
       id="text4596-93-6-4"
       sodipodi:linespacing="125%"><tspan
         sodipodi:role="line"
         x="348.17398"
         y="740.65344"
         style="font-size:10.69859409px"
         id="tspan4776-5">Spin coating of <tspan
   id="tspan4975"
   style="font-weight:bold">negative</tspan> resist</tspan><tspan
         sodipodi:role="line"
         x="348.17398"
         y="754.02667"
         style="font-size:10.69859409px"
         id="tspan4811" /><tspan
         sodipodi:role="line"
         x="348.17398"
         y="767.3999"
         style="font-size:10.69859409px"
         id="tspan4809">Patterning with Mask 1 (Metal)</tspan></text>
    <text
       xml:space="preserve"
       style="font-style:normal;font-weight:normal;font-size:14.26479244px;line-height:125%;font-family:sans-serif;letter-spacing:0px;word-spacing:0px;fill:#000000;fill-opacity:1;stroke:none;stroke-width:1px;stroke-linecap:butt;stroke-linejoin:miter;stroke-opacity:1"
       x="348.17398"
       y="824.23926"
       id="text4596-93-6-4-0"
       sodipodi:linespacing="125%"><tspan
         sodipodi:role="line"
         x="348.17398"
         y="824.23926"
         style="font-size:10.69859409px"
         id="tspan4809-2">Evaporation of Platinum</tspan><tspan
         sodipodi:role="line"
         x="348.17398"
         y="837.61249"
         style="font-size:10.69859409px"
         id="tspan4842" /><tspan
         sodipodi:role="line"
         x="348.17398"
         y="850.98572"
         style="font-size:10.69859409px"
         id="tspan4844">Lift-off</tspan></text>
    <text
       xml:space="preserve"
       style="font-style:normal;font-weight:normal;font-size:14.26479244px;line-height:125%;font-family:sans-serif;letter-spacing:0px;word-spacing:0px;fill:#000000;fill-opacity:1;stroke:none;stroke-width:1px;stroke-linecap:butt;stroke-linejoin:miter;stroke-opacity:1"
       x="879.63385"
       y="584.67621"
       id="text4596-93-6-4-0-7"
       sodipodi:linespacing="125%"><tspan
         sodipodi:role="line"
         x="879.63385"
         y="584.67621"
         style="font-size:10.69859409px"
         id="tspan4844-6">Spin coating of second</tspan><tspan
         sodipodi:role="line"
         x="879.63385"
         y="598.04944"
         style="font-size:10.69859409px"
         id="tspan4898">layer of polyimide</tspan></text>
    <text
       xml:space="preserve"
       style="font-style:normal;font-weight:normal;font-size:14.26479244px;line-height:125%;font-family:sans-serif;letter-spacing:0px;word-spacing:0px;fill:#000000;fill-opacity:1;stroke:none;stroke-width:1px;stroke-linecap:butt;stroke-linejoin:miter;stroke-opacity:1"
       x="879.63385"
       y="660.52277"
       id="text4596-93-6-4-0-9"
       sodipodi:linespacing="125%"><tspan
         sodipodi:role="line"
         x="879.63385"
         y="660.52277"
         style="font-size:10.69859409px"
         id="tspan4844-5">Spin coating of <tspan
   id="tspan4977"
   style="font-weight:bold">positive</tspan> resist</tspan><tspan
         sodipodi:role="line"
         x="879.63385"
         y="673.896"
         style="font-size:10.69859409px"
         id="tspan4904" /><tspan
         sodipodi:role="line"
         x="879.63385"
         y="687.26923"
         style="font-size:10.69859409px"
         id="tspan4906">Patterning of Mask 2 (PI)</tspan></text>
    <text
       xml:space="preserve"
       style="font-style:normal;font-weight:normal;font-size:14.26479244px;line-height:125%;font-family:sans-serif;letter-spacing:0px;word-spacing:0px;fill:#000000;fill-opacity:1;stroke:none;stroke-width:1px;stroke-linecap:butt;stroke-linejoin:miter;stroke-opacity:1"
       x="879.63385"
       y="743.08472"
       id="text4596-93-6-4-0-2"
       sodipodi:linespacing="125%"><tspan
         sodipodi:role="line"
         x="879.63385"
         y="743.08472"
         style="font-size:10.69859409px"
         id="tspan4809-2-6">Reactive Ion Etching of PI</tspan><tspan
         sodipodi:role="line"
         x="879.63385"
         y="756.45795"
         style="font-size:10.69859409px"
         id="tspan4842-4" /><tspan
         sodipodi:role="line"
         x="879.63385"
         y="769.83118"
         style="font-size:10.69859409px"
         id="tspan4844-8">Release by peeling</tspan></text>
    <path
       inkscape:connector-curvature="0"
       id="path4979"
       d="m 137.88571,750.0374 91.45275,0 0,2.8053"
       style="fill:none;fill-rule:evenodd;stroke:#000000;stroke-width:1.57096756;stroke-linecap:butt;stroke-linejoin:miter;stroke-miterlimit:4;stroke-dasharray:4.71290289, 4.71290289;stroke-dashoffset:0;stroke-opacity:1" />
    <path
       inkscape:connector-curvature="0"
       id="path4979-4"
       d="m 137.88571,831.47516 91.45275,0 0,2.8053"
       style="fill:none;fill-rule:evenodd;stroke:#000000;stroke-width:1.57096756;stroke-linecap:butt;stroke-linejoin:miter;stroke-miterlimit:4;stroke-dasharray:4.71290289, 4.71290289;stroke-dashoffset:0;stroke-opacity:1" />
    <path
       inkscape:connector-curvature="0"
       id="path4979-1"
       d="m 669.34569,585.09654 91.45275,0 0,2.8053"
       style="fill:none;fill-rule:evenodd;stroke:#000000;stroke-width:1.57096756;stroke-linecap:butt;stroke-linejoin:miter;stroke-miterlimit:4;stroke-dasharray:4.71290289, 4.71290289;stroke-dashoffset:0;stroke-opacity:1" />
    <path
       inkscape:connector-curvature="0"
       id="path4979-8"
       d="m 669.34569,666.53431 91.45275,0 0,2.8053"
       style="fill:none;fill-rule:evenodd;stroke:#000000;stroke-width:1.57096756;stroke-linecap:butt;stroke-linejoin:miter;stroke-miterlimit:4;stroke-dasharray:4.71290289, 4.71290289;stroke-dashoffset:0;stroke-opacity:1" />
    <path
       inkscape:connector-curvature="0"
       id="path4979-3"
       d="m 669.34569,747.9721 91.45275,0 0,2.8053"
       style="fill:none;fill-rule:evenodd;stroke:#000000;stroke-width:1.57096756;stroke-linecap:butt;stroke-linejoin:miter;stroke-miterlimit:4;stroke-dasharray:4.71290289, 4.71290289;stroke-dashoffset:0;stroke-opacity:1" />
    <path
       inkscape:connector-curvature="0"
       id="path4979-9"
       d="m 137.88571,668.59958 91.45275,0 0,2.8053"
       style="fill:none;fill-rule:evenodd;stroke:#000000;stroke-width:1.57096756;stroke-linecap:butt;stroke-linejoin:miter;stroke-miterlimit:4;stroke-dasharray:4.71290289, 4.71290289;stroke-dashoffset:0;stroke-opacity:1" />
    <path
       inkscape:connector-curvature="0"
       id="path4979-2"
       d="m 137.88571,587.16179 91.45275,0 0,2.8053"
       style="fill:none;fill-rule:evenodd;stroke:#000000;stroke-width:1.57096756;stroke-linecap:butt;stroke-linejoin:miter;stroke-miterlimit:4;stroke-dasharray:4.71290289, 4.71290289;stroke-dashoffset:0;stroke-opacity:1" />
    <text
       xml:space="preserve"
       style="font-style:normal;font-weight:normal;font-size:14.26479244px;line-height:125%;font-family:sans-serif;letter-spacing:0px;word-spacing:0px;fill:#000000;fill-opacity:1;stroke:none;stroke-width:1px;stroke-linecap:butt;stroke-linejoin:miter;stroke-opacity:1"
       x="54.816364"
       y="802.38599"
       id="text4596-93-9"
       sodipodi:linespacing="125%"><tspan
         sodipodi:role="line"
         id="tspan4598-06-32"
         x="54.816364"
         y="802.38599"
         style="font-size:10.69859409px">Mask 1: Metal</tspan></text>
    <text
       xml:space="preserve"
       style="font-style:normal;font-weight:normal;font-size:14.26479244px;line-height:125%;font-family:sans-serif;letter-spacing:0px;word-spacing:0px;fill:#000000;fill-opacity:1;stroke:none;stroke-width:1px;stroke-linecap:butt;stroke-linejoin:miter;stroke-opacity:1"
       x="592.32794"
       y="717.4823"
       id="text4596-93-9-3"
       sodipodi:linespacing="125%"><tspan
         sodipodi:role="line"
         id="tspan4598-06-32-9"
         x="592.32794"
         y="717.4823"
         style="font-size:10.69859409px">Mask 2: PI</tspan></text>
    <path
       style="opacity:1;fill:#000000;fill-opacity:1;stroke:none;stroke-width:2;stroke-miterlimit:4;stroke-dasharray:6, 6;stroke-dashoffset:0;stroke-opacity:1"
       d="m 602.39055,643.92168 0,56.34758 42.18896,0 0,-56.34758 -42.18896,0 z m 21.406,8.84659 a 12.727721,12.727721 0 0 1 12.72748,12.72918 12.727721,12.727721 0 0 1 -12.72748,12.72748 12.727721,12.727721 0 0 1 -12.72747,-12.72748 12.727721,12.727721 0 0 1 12.72747,-12.72918 z"
       id="rect4286-7"
       inkscape:connector-curvature="0" />
    <path
       inkscape:connector-curvature="0"
       style="opacity:0.75099996;fill:#c17d11;fill-opacity:1;stroke:#000000;stroke-width:0.59540904;stroke-miterlimit:4;stroke-dasharray:none;stroke-dashoffset:0;stroke-opacity:1"
       d="m 693.35292,725.73838 0,56.34758 42.18895,0 0,-56.34758 -42.18895,0 z m 21.406,8.84659 a 12.727721,12.727721 0 0 1 12.72748,12.72918 12.727721,12.727721 0 0 1 -12.72748,12.72748 12.727721,12.727721 0 0 1 -12.72748,-12.72748 12.727721,12.727721 0 0 1 12.72748,-12.72918 z"
       id="rect4286-7-9-9" />
    <path
       style="fill:none;fill-rule:evenodd;stroke:#000000;stroke-width:1.42647922;stroke-linecap:butt;stroke-linejoin:miter;stroke-miterlimit:4;stroke-dasharray:none;stroke-opacity:1"
       d="m 557.27952,545.83958 459.53008,0"
       id="path4594-4"
       inkscape:connector-curvature="0" />
    <text
       xml:space="preserve"
       style="font-style:normal;font-weight:normal;font-size:14.26479244px;line-height:125%;font-family:sans-serif;letter-spacing:0px;word-spacing:0px;fill:#000000;fill-opacity:1;stroke:none;stroke-width:1px;stroke-linecap:butt;stroke-linejoin:miter;stroke-opacity:1"
       x="612.94373"
       y="535.13635"
       id="text4596-4"
       sodipodi:linespacing="125%"><tspan
         sodipodi:role="line"
         id="tspan4598-1"
         x="612.94373"
         y="535.13635"
         style="font-size:14.26479244px">Mask</tspan></text>
    <text
       xml:space="preserve"
       style="font-style:normal;font-weight:normal;font-size:14.26479244px;line-height:125%;font-family:sans-serif;letter-spacing:0px;word-spacing:0px;fill:#000000;fill-opacity:1;stroke:none;stroke-width:1px;stroke-linecap:butt;stroke-linejoin:miter;stroke-opacity:1"
       x="693.06989"
       y="536.15527"
       id="text4596-9-2"
       sodipodi:linespacing="125%"><tspan
         sodipodi:role="line"
         id="tspan4598-0-2"
         x="693.06989"
         y="536.15527"
         style="font-size:14.26479244px">Result</tspan></text>
    <text
       xml:space="preserve"
       style="font-style:normal;font-weight:normal;font-size:14.26479244px;line-height:125%;font-family:sans-serif;letter-spacing:0px;word-spacing:0px;fill:#000000;fill-opacity:1;stroke:none;stroke-width:1px;stroke-linecap:butt;stroke-linejoin:miter;stroke-opacity:1"
       x="780.74542"
       y="536.15527"
       id="text4596-6-9"
       sodipodi:linespacing="125%"><tspan
         sodipodi:role="line"
         id="tspan4598-7-4"
         x="780.74542"
         y="536.15527"
         style="font-size:14.26479244px">X-section</tspan></text>
    <text
       xml:space="preserve"
       style="font-style:normal;font-weight:normal;font-size:14.26479244px;line-height:125%;font-family:sans-serif;letter-spacing:0px;word-spacing:0px;fill:#000000;fill-opacity:1;stroke:none;stroke-width:1px;stroke-linecap:butt;stroke-linejoin:miter;stroke-opacity:1"
       x="913.83832"
       y="536.15527"
       id="text4596-5-2"
       sodipodi:linespacing="125%"><tspan
         sodipodi:role="line"
         id="tspan4598-6-3"
         x="913.83832"
         y="536.15527"
         style="font-size:14.26479244px">Description</tspan></text>
    <text
       xml:space="preserve"
       style="font-style:normal;font-weight:normal;font-size:14.26479244px;line-height:125%;font-family:sans-serif;letter-spacing:0px;word-spacing:0px;fill:#000000;fill-opacity:1;stroke:none;stroke-width:1px;stroke-linecap:butt;stroke-linejoin:miter;stroke-opacity:1"
       x="549.47992"
       y="536.15527"
       id="text4596-7-5"
       sodipodi:linespacing="125%"><tspan
         sodipodi:role="line"
         id="tspan4598-68-46"
         x="549.47992"
         y="536.15527"
         style="font-size:14.26479244px">#</tspan></text>
  </g>
</svg>
