<?xml version="1.0" encoding="UTF-8" standalone="no"?>
<!-- Created with Inkscape (http://www.inkscape.org/) -->

<svg
   xmlns:dc="http://purl.org/dc/elements/1.1/"
   xmlns:cc="http://creativecommons.org/ns#"
   xmlns:rdf="http://www.w3.org/1999/02/22-rdf-syntax-ns#"
   xmlns:svg="http://www.w3.org/2000/svg"
   xmlns="http://www.w3.org/2000/svg"
   xmlns:sodipodi="http://sodipodi.sourceforge.net/DTD/sodipodi-0.dtd"
   xmlns:inkscape="http://www.inkscape.org/namespaces/inkscape"
   id="svg2"
   version="1.1"
   inkscape:version="0.91 r13725"
   xml:space="preserve"
   width="131.73848mm"
   height="29.439413mm"
   viewBox="0 0 466.78989 104.31288"
   sodipodi:docname="backreflections.svg"><metadata
     id="metadata8"><rdf:RDF><cc:Work
         rdf:about=""><dc:format>image/svg+xml</dc:format><dc:type
           rdf:resource="http://purl.org/dc/dcmitype/StillImage" /><dc:title></dc:title></cc:Work></rdf:RDF></metadata><defs
     id="defs6"><clipPath
       clipPathUnits="userSpaceOnUse"
       id="clipPath4194"><rect
         style="opacity:1;fill:#429eff;fill-opacity:1;stroke:#ef2929;stroke-width:0.48577112;stroke-linecap:round;stroke-linejoin:round;stroke-miterlimit:4;stroke-dasharray:none;stroke-dashoffset:0;stroke-opacity:1"
         id="rect4196"
         width="225.70233"
         height="73.367256"
         x="-49.397526"
         y="-54.742195"
         transform="scale(1,-1)" /></clipPath><clipPath
       clipPathUnits="userSpaceOnUse"
       id="clipPath4198"><rect
         style="opacity:1;fill:#429eff;fill-opacity:1;stroke:#ef2929;stroke-width:0.48577112;stroke-linecap:round;stroke-linejoin:round;stroke-miterlimit:4;stroke-dasharray:none;stroke-dashoffset:0;stroke-opacity:1"
         id="rect4200"
         width="225.70233"
         height="73.367256"
         x="-102.08063"
         y="-43.283195"
         transform="scale(1,-1)" /></clipPath><clipPath
       clipPathUnits="userSpaceOnUse"
       id="clipPath4202"><rect
         style="opacity:1;fill:#429eff;fill-opacity:1;stroke:#ef2929;stroke-width:0.48577112;stroke-linecap:round;stroke-linejoin:round;stroke-miterlimit:4;stroke-dasharray:none;stroke-dashoffset:0;stroke-opacity:1"
         id="rect4204"
         width="225.70233"
         height="73.367256"
         x="-9.0885277"
         y="-54.671295"
         transform="scale(1,-1)" /></clipPath><clipPath
       clipPathUnits="userSpaceOnUse"
       id="clipPath4206"><rect
         style="opacity:1;fill:#429eff;fill-opacity:1;stroke:#ef2929;stroke-width:0.48577112;stroke-linecap:round;stroke-linejoin:round;stroke-miterlimit:4;stroke-dasharray:none;stroke-dashoffset:0;stroke-opacity:1"
         id="rect4208"
         width="225.70233"
         height="73.367256"
         x="-9.0885277"
         y="-45.600498"
         transform="scale(1,-1)" /></clipPath></defs><sodipodi:namedview
     pagecolor="#ffffff"
     bordercolor="#666666"
     borderopacity="1"
     objecttolerance="10"
     gridtolerance="10"
     guidetolerance="10"
     inkscape:pageopacity="0"
     inkscape:pageshadow="2"
     inkscape:window-width="1858"
     inkscape:window-height="1058"
     id="namedview4"
     showgrid="false"
     inkscape:zoom="1.7347252"
     inkscape:cx="137.01955"
     inkscape:cy="153.93054"
     inkscape:window-x="54"
     inkscape:window-y="-8"
     inkscape:window-maximized="1"
     inkscape:current-layer="g10"
     units="mm"
     fit-margin-top="0"
     fit-margin-left="0"
     fit-margin-right="0"
     fit-margin-bottom="0" /><g
     id="g10"
     inkscape:groupmode="layer"
     inkscape:label="20161201 Testbench Silicon Double Lens"
     transform="matrix(1.25,0,0,-1.25,-37.469907,159.68289)"><g
       id="g24"
       transform="matrix(1.6468661,0,0,1.6468661,44.943515,74.320576)"
       clip-path="url(#clipPath4206)"
       style="stroke:#888a85"><path
         d="m 0,0 -0.297,-0.792 -0.24,-0.812 -0.181,-0.827 -0.121,-0.837 -0.06,-0.844 0,-0.847 0.06,-0.844 0.121,-0.837 0.181,-0.827 0.24,-0.812 L 0,-9.071"
         style="fill:none;stroke:#888a85;stroke-width:0.50999999;stroke-linecap:butt;stroke-linejoin:miter;stroke-miterlimit:10;stroke-dasharray:3.6, 1.8;stroke-dashoffset:-0.154;stroke-opacity:1"
         id="path26"
         inkscape:connector-curvature="0" /></g><g
       id="g28"
       transform="matrix(1.6468661,0,0,1.6468661,44.943515,59.382183)"
       clip-path="url(#clipPath4202)"
       style="stroke:#888a85"><path
         d="m 0,0 0.297,-0.792 0.24,-0.812 0.181,-0.827 0.121,-0.837 0.06,-0.844 0,-0.847 L 0.839,-5.803 0.718,-6.64 0.537,-7.467 0.297,-8.279 0,-9.071"
         style="fill:none;stroke:#888a85;stroke-width:0.50999999;stroke-linecap:butt;stroke-linejoin:miter;stroke-miterlimit:10;stroke-dasharray:3.6, 1.8;stroke-dashoffset:-0.154;stroke-opacity:1"
         id="path30"
         inkscape:connector-curvature="0" /></g><g
       id="g52"
       transform="matrix(1.6468661,0,0,1.6468661,198.08905,78.136859)"
       clip-path="url(#clipPath4198)"
       style="stroke:#888a85"><path
         d="M 0,0 -0.242,-0.242 M -0.889,-2.48 -2.014,-3.605 M 1.591,0 -0.242,-1.833 M 3.182,0 -1.85,-5.031 M 4.773,0 -0.259,-5.031 m 5.686,4.094 -4.095,-4.094 m 4.095,2.503 -2.504,-2.503 m 2.504,0.912 -0.913,-0.912 m -61.963,6.448 -0.903,-0.903 m 2.494,0.903 -2.494,-2.494 m 4.085,2.494 -4.085,-4.085 m 5.669,4.079 -5.669,-5.67 m 5.669,4.079 -4.851,-4.851 m 4.851,3.26 -3.26,-3.26 m 4.142,2.551 -2.551,-2.551 m 3.441,1.849 -1.85,-1.849 m 1.85,0.258 -0.259,-0.258 m 11.194,-6.308 -0.227,-0.226 M -41.139,0.227 -41.366,0 m -49.501,-11.317 0.142,-0.142 m 12.586,0.142 0.142,-0.142 m 12.586,0.142 0.142,-0.142 m -58.265,0.142 0.141,-0.142"
         style="fill:none;stroke:#888a85;stroke-width:0.50999999;stroke-linecap:round;stroke-linejoin:round;stroke-miterlimit:10;stroke-dasharray:none;stroke-opacity:1"
         id="path54"
         inkscape:connector-curvature="0" /></g><g
       id="g56"
       transform="matrix(1.6468661,0,0,1.6468661,111.32704,59.26542)"
       clip-path="url(#clipPath4194)"
       style="stroke:#888a85"><path
         d="M 0,0 0,0.142 M 0,0 -40.28,0 M 0,0.142 l -40.338,0 m 169.314,41.081 -12.263,0 m 12.263,-28.347 0,28.347 m -12.263,-28.347 12.263,0 m -12.263,28.347 -0.833,-3.488 -0.597,-3.535 -0.36,-3.567 -0.12,-3.583 0.12,-3.584 0.36,-3.567 0.597,-3.535 0.833,-3.488 m 19.35,0 0,-14.173 m 14.173,14.173 -14.173,0 m 0,-14.173 14.173,14.173 m 7.087,0 12.263,0 m 0,28.347 -12.263,0 m 12.263,-28.347 0.833,3.488 0.597,3.535 0.36,3.567 0.12,3.584 -0.12,3.583 -0.36,3.567 -0.597,3.535 -0.833,3.488 m -12.263,0 0,-28.347 m -28.347,28.347 0,-28.347 m 28.347,28.347 -28.347,0 m 0,-28.347 28.347,28.347 m 0,0 -28.347,-28.347 m 28.347,0 0,28.347 m -28.347,-28.347 28.347,0 M 0,-0.106 l 21.26,0 m 0,11.792 -21.26,0 M 0,0.12 l 21.26,0 m 0,11.339 -21.26,0 M 21.26,0.12 l 0,0.002 m 0,11.33 0,0.007 M 0,11.686 0,11.459 m 21.26,0.227 0,-0.227 M 0,0.12 0,-0.106 m 21.26,0.226 0,-0.226 m 100.63,8.376 -30.614,0 m 30.614,-4.961 0,4.961 m -30.614,-4.961 30.614,0 m -30.614,0 0,4.961 M 0,8.979 l 1.772,0 m 0,-2.551 0,2.551 m 0,-2.551 -7.441,0 m 0,0 0,6.448 m 5.669,0 -5.669,0 M 0,8.979 0,12.876 m 1.772,-6.519 0,0.022 0,0.036 0,0.013 m -7.441,-0.071 0,0.022 0,0.036 0,0.013 M 0,2.665 l 1.772,0 M 0,1.538 l -5.669,0 m 7.441,3.685 0,-2.558 M 0,2.665 0,2.304 m -5.669,2.919 0,-3.685 M 0,-1.297 l -5.669,0 M 0,-0.106 0,-1.297 m -5.669,2.835 0,-1.396 m 0,-0.142 0,-1.297 m 63.779,7.725 -7.441,0 m 0,2.551 0,-2.551 m 0,2.551 1.772,0 m 0,0 0,2.48 m 5.669,0 -5.669,0 m 5.669,-5.031 0,5.031 m 0,-11.303 -5.669,0 m -1.772,2.509 1.772,0 m -1.772,3.763 0,-0.013 0,-0.036 0,-0.022 m 7.441,0.071 0,-0.013 0,-0.036 0,-0.022 m -7.441,-3.692 0,2.558 m 7.441,-5.067 0,5.067 m -5.669,-2.558 0,-0.361 m -74.551,2.919 113.386,0 m 0,1.134 -113.386,0 m 0,0 0,-1.134 m 113.386,1.134 0,-1.134 M 52.441,11.388 0,11.388 m 0,-11.197 52.441,0 m 0,2.055 -52.441,0 m 0,7.087 52.441,0 m 0,-7.029 0,-0.058 M 0,2.304 0,2.246 m 52.441,-2.055 0,2.055 M 0,0.191 0,2.246 m 52.441,7.087 0,2.055 M 0,9.333 0,11.388 m 52.441,-11.197 0,-0.069 m -52.441,0 52.441,0 M 0,0.191 0,0.142 M 52.441,11.452 0,11.452 M -68.626,0 -80.166,0 m 0,0.142 0,-0.142 m 11.481,0.142 -11.481,0"
         style="fill:none;stroke:#888a85;stroke-width:0.70899999;stroke-linecap:round;stroke-linejoin:round;stroke-miterlimit:10;stroke-dasharray:none;stroke-opacity:1"
         id="path58"
         inkscape:connector-curvature="0" /></g><path
       inkscape:connector-curvature="0"
       id="path4212"
       d="m 312.01162,72.816814 0,-8.07044 0,0"
       style="fill:#cc0000;fill-rule:evenodd;stroke:#cc0000;stroke-width:2.4;stroke-linecap:round;stroke-linejoin:miter;stroke-miterlimit:4;stroke-dasharray:none;stroke-opacity:1" /><path
       inkscape:connector-curvature="0"
       id="path4214"
       d="m 261.65527,70.328145 0,-2.939944"
       style="fill:#cc0000;fill-rule:evenodd;stroke:#cc0000;stroke-width:2.4;stroke-linecap:round;stroke-linejoin:miter;stroke-miterlimit:4;stroke-dasharray:none;stroke-opacity:1"
       sodipodi:nodetypes="cc" /><path
       inkscape:connector-curvature="0"
       id="path4216"
       d="m 335.37042,72.816814 0,-8.07044 0,0"
       style="fill:#cc0000;fill-rule:evenodd;stroke:#cc0000;stroke-width:2.4;stroke-linecap:round;stroke-linejoin:miter;stroke-miterlimit:4;stroke-dasharray:none;stroke-opacity:1" /><path
       style="fill:#cc0000;fill-rule:evenodd;stroke:#cc0000;stroke-width:2.4000001;stroke-linecap:round;stroke-linejoin:miter;stroke-miterlimit:4;stroke-dasharray:none;stroke-opacity:1"
       d="m 393.9388,108.6051 0,-8.07044 0,0"
       id="path4210"
       inkscape:connector-curvature="0" /><text
       transform="scale(1,-1)"
       sodipodi:linespacing="121%"
       id="text4222"
       y="-55.762268"
       x="259.24561"
       style="font-style:normal;font-variant:normal;font-weight:normal;font-stretch:normal;font-size:9px;line-height:121.00000381%;font-family:Arial;-inkscape-font-specification:'Arial, Normal';text-align:start;letter-spacing:0px;word-spacing:0px;writing-mode:lr-tb;text-anchor:start;fill:#000000;fill-opacity:1;stroke:none;stroke-width:1px;stroke-linecap:butt;stroke-linejoin:miter;stroke-opacity:1"
       xml:space="preserve"><tspan
         y="-55.762268"
         x="259.24561"
         id="tspan4224"
         sodipodi:role="line">1</tspan></text>
<text
       transform="scale(1,-1)"
       sodipodi:linespacing="121%"
       id="text4226"
       y="-55.762268"
       x="308.81207"
       style="font-style:normal;font-variant:normal;font-weight:normal;font-stretch:normal;font-size:9px;line-height:121.00000381%;font-family:Arial;-inkscape-font-specification:'Arial, Normal';text-align:start;letter-spacing:0px;word-spacing:0px;writing-mode:lr-tb;text-anchor:start;fill:#000000;fill-opacity:1;stroke:none;stroke-width:1px;stroke-linecap:butt;stroke-linejoin:miter;stroke-opacity:1"
       xml:space="preserve"><tspan
         y="-55.762268"
         x="308.81207"
         id="tspan4228"
         sodipodi:role="line">2</tspan></text>
<text
       transform="scale(1,-1)"
       sodipodi:linespacing="121%"
       id="text4230"
       y="-55.762268"
       x="328.70389"
       style="font-style:normal;font-variant:normal;font-weight:normal;font-stretch:normal;font-size:9px;line-height:121.00000381%;font-family:Arial;-inkscape-font-specification:'Arial, Normal';text-align:start;letter-spacing:0px;word-spacing:0px;writing-mode:lr-tb;text-anchor:start;fill:#000000;fill-opacity:1;stroke:none;stroke-width:1px;stroke-linecap:butt;stroke-linejoin:miter;stroke-opacity:1"
       xml:space="preserve"><tspan
         y="-55.762268"
         x="328.70389"
         id="tspan4232"
         sodipodi:role="line">3</tspan></text>
<text
       xml:space="preserve"
       style="font-style:normal;font-variant:normal;font-weight:normal;font-stretch:normal;font-size:9px;line-height:121.00000381%;font-family:Arial;-inkscape-font-specification:'Arial, Normal';text-align:start;letter-spacing:0px;word-spacing:0px;writing-mode:lr-tb;text-anchor:start;fill:#000000;fill-opacity:1;stroke:none;stroke-width:1px;stroke-linecap:butt;stroke-linejoin:miter;stroke-opacity:1"
       x="398.83752"
       y="-102.58208"
       id="text4218"
       sodipodi:linespacing="121%"
       transform="scale(1,-1)"><tspan
         sodipodi:role="line"
         id="tspan4220"
         x="398.83752"
         y="-102.58208">4</tspan></text>
</g></svg>