<?xml version="1.0" encoding="UTF-8" standalone="no"?>
<!-- Created with Inkscape (http://www.inkscape.org/) -->

<svg
   xmlns:dc="http://purl.org/dc/elements/1.1/"
   xmlns:cc="http://creativecommons.org/ns#"
   xmlns:rdf="http://www.w3.org/1999/02/22-rdf-syntax-ns#"
   xmlns:svg="http://www.w3.org/2000/svg"
   xmlns="http://www.w3.org/2000/svg"
   xmlns:sodipodi="http://sodipodi.sourceforge.net/DTD/sodipodi-0.dtd"
   xmlns:inkscape="http://www.inkscape.org/namespaces/inkscape"
   width="148.62531mm"
   height="48.424713mm"
   viewBox="0 0 148.62531 48.424713"
   version="1.1"
   id="svg8"
   inkscape:version="0.92.0 r15299"
   sodipodi:docname="PSF_MTF.svg">
  <defs
     id="defs2" />
  <sodipodi:namedview
     id="base"
     pagecolor="#ffffff"
     bordercolor="#666666"
     borderopacity="1.0"
     inkscape:pageopacity="0.0"
     inkscape:pageshadow="2"
     inkscape:zoom="1.2660156"
     inkscape:cx="343.46993"
     inkscape:cy="71.913181"
     inkscape:document-units="mm"
     inkscape:current-layer="layer1"
     showgrid="false"
     fit-margin-top="0"
     fit-margin-left="0"
     fit-margin-right="0"
     fit-margin-bottom="0"
     inkscape:window-width="1920"
     inkscape:window-height="1058"
     inkscape:window-x="1912"
     inkscape:window-y="-8"
     inkscape:window-maximized="1" />
  <metadata
     id="metadata5">
    <rdf:RDF>
      <cc:Work
         rdf:about="">
        <dc:format>image/svg+xml</dc:format>
        <dc:type
           rdf:resource="http://purl.org/dc/dcmitype/StillImage" />
        <dc:title></dc:title>
      </cc:Work>
    </rdf:RDF>
  </metadata>
  <g
     inkscape:label="Layer 1"
     inkscape:groupmode="layer"
     id="layer1"
     transform="translate(-1.6138182,-222.94521)">
    <g
       transform="matrix(0.2594589,0,0,0.2594589,5.0741779,221.21948)"
       inkscape:label="GaussianPSF"
       id="g4493">
      <g
         id="g4495">
        <path
           inkscape:connector-curvature="0"
           id="path4497"
           style="fill:none;stroke:#000000;stroke-width:1;stroke-linecap:butt;stroke-linejoin:miter;stroke-miterlimit:10;stroke-dasharray:none;stroke-opacity:1"
           d="M 43.38,10.12 V 160.75" />
        <path
           inkscape:connector-curvature="0"
           id="path4499"
           style="fill:none;stroke:#000000;stroke-width:1;stroke-linecap:butt;stroke-linejoin:miter;stroke-miterlimit:10;stroke-dasharray:none;stroke-opacity:1"
           d="m 36.62,10.12 h 7.26" />
        <text
           id="text4503"
           style="font-variant:normal;font-weight:normal;font-size:9px;font-family:Helvetica;-inkscape-font-specification:Helvetica;writing-mode:lr-tb;fill:#000000;fill-opacity:1;fill-rule:nonzero;stroke:none"
           transform="translate(21,13.12)">
          <tspan
             id="tspan4501"
             sodipodi:role="line"
             y="0"
             x="0 5.0040002 7.506">1.0</tspan>
        </text>
        <path
           inkscape:connector-curvature="0"
           id="path4505"
           style="fill:none;stroke:#000000;stroke-width:1;stroke-linecap:butt;stroke-linejoin:miter;stroke-miterlimit:10;stroke-dasharray:none;stroke-opacity:1"
           d="m 36.62,40 h 7.26" />
        <text
           id="text4509"
           style="font-variant:normal;font-weight:normal;font-size:9px;font-family:Helvetica;-inkscape-font-specification:Helvetica;writing-mode:lr-tb;fill:#000000;fill-opacity:1;fill-rule:nonzero;stroke:none"
           transform="translate(21,43)">
          <tspan
             id="tspan4507"
             sodipodi:role="line"
             y="0"
             x="0 5.0040002 7.506">0.8</tspan>
        </text>
        <path
           inkscape:connector-curvature="0"
           id="path4511"
           style="fill:none;stroke:#000000;stroke-width:1;stroke-linecap:butt;stroke-linejoin:miter;stroke-miterlimit:10;stroke-dasharray:none;stroke-opacity:1"
           d="m 36.62,69.88 h 7.26" />
        <text
           id="text4515"
           style="font-variant:normal;font-weight:normal;font-size:9px;font-family:Helvetica;-inkscape-font-specification:Helvetica;writing-mode:lr-tb;fill:#000000;fill-opacity:1;fill-rule:nonzero;stroke:none"
           transform="translate(21,72.88)">
          <tspan
             id="tspan4513"
             sodipodi:role="line"
             y="0"
             x="0 5.0040002 7.506">0.6</tspan>
        </text>
        <path
           inkscape:connector-curvature="0"
           id="path4517"
           style="fill:none;stroke:#000000;stroke-width:1;stroke-linecap:butt;stroke-linejoin:miter;stroke-miterlimit:10;stroke-dasharray:none;stroke-opacity:1"
           d="m 36.62,99.88 h 7.26" />
        <text
           id="text4521"
           style="font-variant:normal;font-weight:normal;font-size:9px;font-family:Helvetica;-inkscape-font-specification:Helvetica;writing-mode:lr-tb;fill:#000000;fill-opacity:1;fill-rule:nonzero;stroke:none"
           transform="translate(21,102.88)">
          <tspan
             id="tspan4519"
             sodipodi:role="line"
             y="0"
             x="0 5.0040002 7.506">0.4</tspan>
        </text>
        <path
           inkscape:connector-curvature="0"
           id="path4523"
           style="fill:none;stroke:#000000;stroke-width:1;stroke-linecap:butt;stroke-linejoin:miter;stroke-miterlimit:10;stroke-dasharray:none;stroke-opacity:1"
           d="m 36.62,129.75 h 7.26" />
        <text
           id="text4527"
           style="font-variant:normal;font-weight:normal;font-size:9px;font-family:Helvetica;-inkscape-font-specification:Helvetica;writing-mode:lr-tb;fill:#000000;fill-opacity:1;fill-rule:nonzero;stroke:none"
           transform="translate(21,132.75)">
          <tspan
             id="tspan4525"
             sodipodi:role="line"
             y="0"
             x="0 5.0040002 7.506">0.2</tspan>
        </text>
        <path
           inkscape:connector-curvature="0"
           id="path4529"
           style="fill:none;stroke:#000000;stroke-width:1;stroke-linecap:butt;stroke-linejoin:miter;stroke-miterlimit:10;stroke-dasharray:none;stroke-opacity:1"
           d="m 36.62,159.75 h 7.26" />
        <text
           id="text4533"
           style="font-variant:normal;font-weight:normal;font-size:9px;font-family:Helvetica;-inkscape-font-specification:Helvetica;writing-mode:lr-tb;fill:#000000;fill-opacity:1;fill-rule:nonzero;stroke:none"
           transform="translate(21,162.75)">
          <tspan
             id="tspan4531"
             sodipodi:role="line"
             y="0"
             x="0 5.0040002 7.506">0.0</tspan>
        </text>
        <text
           id="text4537"
           style="font-variant:normal;font-weight:normal;font-size:9px;font-family:Helvetica;-inkscape-font-specification:Helvetica;writing-mode:lr-tb;fill:#000000;fill-opacity:1;fill-rule:nonzero;stroke:none"
           transform="rotate(-90,54.065,45.685)">
          <tspan
             id="tspan4535"
             sodipodi:role="line"
             y="0"
             x="0 6.0029998 12.006">PSF</tspan>
        </text>
        <text
           id="text4541"
           style="font-variant:normal;font-weight:normal;font-size:6.25px;font-family:Helvetica;-inkscape-font-specification:Helvetica;writing-mode:lr-tb;fill:#000000;fill-opacity:1;fill-rule:nonzero;stroke:none"
           transform="rotate(-90,46.685,35.565)">
          <tspan
             id="tspan4539"
             sodipodi:role="line"
             y="0"
             x="0 3.125 6.5999999 8.6812496">core</tspan>
        </text>
        <path
           inkscape:connector-curvature="0"
           id="path4543"
           style="fill:none;stroke:#000000;stroke-width:1;stroke-linecap:butt;stroke-linejoin:miter;stroke-miterlimit:10;stroke-dasharray:none;stroke-opacity:1"
           d="M 42.88,161.25 H 271.62" />
        <path
           inkscape:connector-curvature="0"
           id="path4545"
           style="fill:none;stroke:#000000;stroke-width:1;stroke-linecap:butt;stroke-linejoin:miter;stroke-miterlimit:10;stroke-dasharray:none;stroke-opacity:1"
           d="m 67.5,168 v -7.25" />
        <text
           id="text4549"
           style="font-variant:normal;font-weight:normal;font-size:9px;font-family:Helvetica;-inkscape-font-specification:Helvetica;writing-mode:lr-tb;fill:#000000;fill-opacity:1;fill-rule:nonzero;stroke:none"
           transform="translate(61,179.75)">
          <tspan
             id="tspan4547"
             sodipodi:role="line"
             y="0"
             x="0 2.997 8.0010004">-40</tspan>
        </text>
        <path
           inkscape:connector-curvature="0"
           id="path4551"
           style="fill:none;stroke:#000000;stroke-width:1;stroke-linecap:butt;stroke-linejoin:miter;stroke-miterlimit:10;stroke-dasharray:none;stroke-opacity:1"
           d="m 112.88,168 v -7.25" />
        <text
           id="text4555"
           style="font-variant:normal;font-weight:normal;font-size:9px;font-family:Helvetica;-inkscape-font-specification:Helvetica;writing-mode:lr-tb;fill:#000000;fill-opacity:1;fill-rule:nonzero;stroke:none"
           transform="translate(106.38,179.75)">
          <tspan
             id="tspan4553"
             sodipodi:role="line"
             y="0"
             x="0 2.997 8.0010004">-20</tspan>
        </text>
        <path
           inkscape:connector-curvature="0"
           id="path4557"
           style="fill:none;stroke:#000000;stroke-width:1;stroke-linecap:butt;stroke-linejoin:miter;stroke-miterlimit:10;stroke-dasharray:none;stroke-opacity:1"
           d="m 158.25,168 v -7.25" />
        <text
           id="text4561"
           style="font-variant:normal;font-weight:normal;font-size:9px;font-family:Helvetica;-inkscape-font-specification:Helvetica;writing-mode:lr-tb;fill:#000000;fill-opacity:1;fill-rule:nonzero;stroke:none"
           transform="translate(155.75,179.75)">
          <tspan
             id="tspan4559"
             y="0"
             x="0">0</tspan>
        </text>
        <path
           inkscape:connector-curvature="0"
           id="path4563"
           style="fill:none;stroke:#000000;stroke-width:1;stroke-linecap:butt;stroke-linejoin:miter;stroke-miterlimit:10;stroke-dasharray:none;stroke-opacity:1"
           d="m 203.62,168 v -7.25" />
        <text
           id="text4567"
           style="font-variant:normal;font-weight:normal;font-size:9px;font-family:Helvetica;-inkscape-font-specification:Helvetica;writing-mode:lr-tb;fill:#000000;fill-opacity:1;fill-rule:nonzero;stroke:none"
           transform="translate(198.62,179.75)">
          <tspan
             id="tspan4565"
             sodipodi:role="line"
             y="0"
             x="0 5.0040002">20</tspan>
        </text>
        <path
           inkscape:connector-curvature="0"
           id="path4569"
           style="fill:none;stroke:#000000;stroke-width:1;stroke-linecap:butt;stroke-linejoin:miter;stroke-miterlimit:10;stroke-dasharray:none;stroke-opacity:1"
           d="m 249,168 v -7.25" />
        <text
           id="text4573"
           style="font-variant:normal;font-weight:normal;font-size:9px;font-family:Helvetica;-inkscape-font-specification:Helvetica;writing-mode:lr-tb;fill:#000000;fill-opacity:1;fill-rule:nonzero;stroke:none"
           transform="translate(244,179.75)">
          <tspan
             id="tspan4571"
             sodipodi:role="line"
             y="0"
             x="0 5.0040002">40</tspan>
        </text>
        <text
           id="text4577"
           style="font-variant:normal;font-weight:normal;font-size:9px;font-family:Helvetica;-inkscape-font-specification:Helvetica;writing-mode:lr-tb;fill:#000000;fill-opacity:1;fill-rule:nonzero;stroke:none"
           transform="translate(147.382,191.5)">
          <tspan
             id="tspan4575"
             sodipodi:role="line"
             y="0"
             x="0 4.5 7.0019999 9.5039997 14.508 22.004999">x [µm]</tspan>
        </text>
        <path
           inkscape:connector-curvature="0"
           id="path4579"
           style="fill:none;stroke:#ff0000;stroke-width:1;stroke-linecap:butt;stroke-linejoin:bevel;stroke-miterlimit:10;stroke-dasharray:none;stroke-opacity:1"
           d="m 44.88,159.62 h 1 l 2.24,-0.12 h 2.26 l 2.37,-0.12 2.25,-0.13 2.25,-0.13 2.25,-0.12 2.25,-0.25 2.25,-0.25 2.38,-0.25 2.24,-0.37 2.26,-0.5 2.24,-0.63 2.26,-0.63 2.24,-0.74 2.38,-1 2.25,-1.13 2.25,-1.37 2.25,-1.5 2.25,-1.76 2.25,-2 2.25,-2.37 2.38,-2.63 2.24,-2.87 2.26,-3.37 2.24,-3.63 2.26,-4 2.24,-4.37 2.38,-4.76 2.25,-5.12 2.25,-5.5 2.25,-5.88 2.25,-6 2.25,-6.37 2.37,-6.5 2.26,-6.75 2.24,-6.75 2.26,-6.75 2.24,-6.75 2.26,-6.5 2.24,-6.37 2.38,-6 2.25,-5.63 2.25,-5.13 2.25,-4.5 2.25,-3.87 2.25,-3.25 2.37,-2.38 2.26,-1.62 2.24,-0.88 h 2.26 l 2.24,0.88 2.26,1.62 2.37,2.38 2.25,3.25 2.25,3.87 2.25,4.5 2.25,5.13 2.25,5.63 2.38,6 2.24,6.37 2.26,6.5 2.24,6.75 2.26,6.75 2.24,6.75 2.26,6.75 2.37,6.5 2.25,6.37 2.25,6 2.25,5.88 2.25,5.5 2.25,5.12 2.38,4.76 2.24,4.37 2.26,4 2.24,3.63 2.26,3.37 2.24,2.87 2.38,2.63 2.25,2.37 2.25,2 2.25,1.76 2.25,1.5 2.25,1.37 2.25,1.13 2.38,1 2.24,0.74 2.26,0.63 2.24,0.63 2.26,0.5 2.24,0.37 2.38,0.25 2.25,0.25 2.25,0.25 2.25,0.12 2.25,0.13 2.25,0.13 2.37,0.12 h 2.26 l 2.24,0.12 h 1" />
      </g>
    </g>
    <g
       transform="matrix(0.25292207,0,0,0.25292207,79.749055,221.26296)"
       inkscape:label="GaussianMTF"
       id="g4633">
      <g
         id="g4635">
        <path
           inkscape:connector-curvature="0"
           id="path4637"
           style="fill:none;stroke:#000000;stroke-width:1;stroke-linecap:butt;stroke-linejoin:miter;stroke-miterlimit:10;stroke-dasharray:none;stroke-opacity:1"
           d="M 43.38,10.12 V 160.75" />
        <path
           inkscape:connector-curvature="0"
           id="path4639"
           style="fill:none;stroke:#000000;stroke-width:1;stroke-linecap:butt;stroke-linejoin:miter;stroke-miterlimit:10;stroke-dasharray:none;stroke-opacity:1"
           d="m 36.62,10.12 h 7.26" />
        <text
           id="text4643"
           style="font-variant:normal;font-weight:normal;font-size:9px;font-family:Helvetica;-inkscape-font-specification:Helvetica;writing-mode:lr-tb;fill:#000000;fill-opacity:1;fill-rule:nonzero;stroke:none"
           transform="translate(21,13.12)">
          <tspan
             id="tspan4641"
             sodipodi:role="line"
             y="0"
             x="0 5.0040002 7.506">1.0</tspan>
        </text>
        <path
           inkscape:connector-curvature="0"
           id="path4645"
           style="fill:none;stroke:#000000;stroke-width:1;stroke-linecap:butt;stroke-linejoin:miter;stroke-miterlimit:10;stroke-dasharray:none;stroke-opacity:1"
           d="m 36.62,40 h 7.26" />
        <text
           id="text4649"
           style="font-variant:normal;font-weight:normal;font-size:9px;font-family:Helvetica;-inkscape-font-specification:Helvetica;writing-mode:lr-tb;fill:#000000;fill-opacity:1;fill-rule:nonzero;stroke:none"
           transform="translate(21,43)">
          <tspan
             id="tspan4647"
             sodipodi:role="line"
             y="0"
             x="0 5.0040002 7.506">0.8</tspan>
        </text>
        <path
           inkscape:connector-curvature="0"
           id="path4651"
           style="fill:none;stroke:#000000;stroke-width:1;stroke-linecap:butt;stroke-linejoin:miter;stroke-miterlimit:10;stroke-dasharray:none;stroke-opacity:1"
           d="m 36.62,70 h 7.26" />
        <text
           id="text4655"
           style="font-variant:normal;font-weight:normal;font-size:9px;font-family:Helvetica;-inkscape-font-specification:Helvetica;writing-mode:lr-tb;fill:#000000;fill-opacity:1;fill-rule:nonzero;stroke:none"
           transform="translate(21,73)">
          <tspan
             id="tspan4653"
             sodipodi:role="line"
             y="0"
             x="0 5.0040002 7.506">0.6</tspan>
        </text>
        <path
           inkscape:connector-curvature="0"
           id="path4657"
           style="fill:none;stroke:#000000;stroke-width:1;stroke-linecap:butt;stroke-linejoin:miter;stroke-miterlimit:10;stroke-dasharray:none;stroke-opacity:1"
           d="m 36.62,99.88 h 7.26" />
        <text
           id="text4661"
           style="font-variant:normal;font-weight:normal;font-size:9px;font-family:Helvetica;-inkscape-font-specification:Helvetica;writing-mode:lr-tb;fill:#000000;fill-opacity:1;fill-rule:nonzero;stroke:none"
           transform="translate(21,102.88)">
          <tspan
             id="tspan4659"
             sodipodi:role="line"
             y="0"
             x="0 5.0040002 7.506">0.4</tspan>
        </text>
        <path
           inkscape:connector-curvature="0"
           id="path4663"
           style="fill:none;stroke:#000000;stroke-width:1;stroke-linecap:butt;stroke-linejoin:miter;stroke-miterlimit:10;stroke-dasharray:none;stroke-opacity:1"
           d="m 36.62,129.88 h 7.26" />
        <text
           id="text4667"
           style="font-variant:normal;font-weight:normal;font-size:9px;font-family:Helvetica;-inkscape-font-specification:Helvetica;writing-mode:lr-tb;fill:#000000;fill-opacity:1;fill-rule:nonzero;stroke:none"
           transform="translate(21,132.88)">
          <tspan
             id="tspan4665"
             sodipodi:role="line"
             y="0"
             x="0 5.0040002 7.506">0.2</tspan>
        </text>
        <path
           inkscape:connector-curvature="0"
           id="path4669"
           style="fill:none;stroke:#000000;stroke-width:1;stroke-linecap:butt;stroke-linejoin:miter;stroke-miterlimit:10;stroke-dasharray:none;stroke-opacity:1"
           d="m 36.62,159.75 h 7.26" />
        <text
           id="text4673"
           style="font-variant:normal;font-weight:normal;font-size:9px;font-family:Helvetica;-inkscape-font-specification:Helvetica;writing-mode:lr-tb;fill:#000000;fill-opacity:1;fill-rule:nonzero;stroke:none"
           transform="translate(21,162.75)">
          <tspan
             id="tspan4671"
             sodipodi:role="line"
             y="0"
             x="0 5.0040002 7.506">0.0</tspan>
        </text>
        <text
           id="text4677"
           style="font-variant:normal;font-weight:normal;font-size:9px;font-family:Helvetica;-inkscape-font-specification:Helvetica;writing-mode:lr-tb;fill:#000000;fill-opacity:1;fill-rule:nonzero;stroke:none"
           transform="rotate(-90,54.315,45.935)">
          <tspan
             id="tspan4675"
             sodipodi:role="line"
             y="0"
             x="0 7.4970002 12.996">MTF</tspan>
        </text>
        <text
           id="text4681"
           style="font-variant:normal;font-weight:normal;font-size:6.25px;font-family:Helvetica;-inkscape-font-specification:Helvetica;writing-mode:lr-tb;fill:#000000;fill-opacity:1;fill-rule:nonzero;stroke:none"
           transform="rotate(-90,46.435,35.315)">
          <tspan
             id="tspan4679"
             sodipodi:role="line"
             y="0"
             x="0 3.125 6.5999999 8.6812496">core</tspan>
        </text>
        <path
           inkscape:connector-curvature="0"
           id="path4683"
           style="fill:none;stroke:#000000;stroke-width:1;stroke-linecap:butt;stroke-linejoin:miter;stroke-miterlimit:10;stroke-dasharray:none;stroke-opacity:1"
           d="M 42.88,161.25 H 271.62" />
        <path
           inkscape:connector-curvature="0"
           id="path4685"
           style="fill:none;stroke:#000000;stroke-width:1;stroke-linecap:butt;stroke-linejoin:miter;stroke-miterlimit:10;stroke-dasharray:none;stroke-opacity:1"
           d="m 44.88,168 v -7.25" />
        <text
           id="text4689"
           style="font-variant:normal;font-weight:normal;font-size:9px;font-family:Helvetica;-inkscape-font-specification:Helvetica;writing-mode:lr-tb;fill:#000000;fill-opacity:1;fill-rule:nonzero;stroke:none"
           transform="translate(35.88,179.75)">
          <tspan
             id="tspan4687"
             sodipodi:role="line"
             y="0"
             x="0 2.997 8.0010004 13.005">-100</tspan>
        </text>
        <path
           inkscape:connector-curvature="0"
           id="path4691"
           style="fill:none;stroke:#000000;stroke-width:1;stroke-linecap:butt;stroke-linejoin:miter;stroke-miterlimit:10;stroke-dasharray:none;stroke-opacity:1"
           d="m 101.62,168 v -7.25" />
        <text
           id="text4695"
           style="font-variant:normal;font-weight:normal;font-size:9px;font-family:Helvetica;-inkscape-font-specification:Helvetica;writing-mode:lr-tb;fill:#000000;fill-opacity:1;fill-rule:nonzero;stroke:none"
           transform="translate(95.12,179.75)">
          <tspan
             id="tspan4693"
             sodipodi:role="line"
             y="0"
             x="0 2.997 8.0010004">-50</tspan>
        </text>
        <path
           inkscape:connector-curvature="0"
           id="path4697"
           style="fill:none;stroke:#000000;stroke-width:1;stroke-linecap:butt;stroke-linejoin:miter;stroke-miterlimit:10;stroke-dasharray:none;stroke-opacity:1"
           d="m 158.25,168 v -7.25" />
        <text
           id="text4701"
           style="font-variant:normal;font-weight:normal;font-size:9px;font-family:Helvetica;-inkscape-font-specification:Helvetica;writing-mode:lr-tb;fill:#000000;fill-opacity:1;fill-rule:nonzero;stroke:none"
           transform="translate(155.75,179.75)">
          <tspan
             id="tspan4699"
             y="0"
             x="0">0</tspan>
        </text>
        <path
           inkscape:connector-curvature="0"
           id="path4703"
           style="fill:none;stroke:#000000;stroke-width:1;stroke-linecap:butt;stroke-linejoin:miter;stroke-miterlimit:10;stroke-dasharray:none;stroke-opacity:1"
           d="m 214.88,168 v -7.25" />
        <text
           id="text4707"
           style="font-variant:normal;font-weight:normal;font-size:9px;font-family:Helvetica;-inkscape-font-specification:Helvetica;writing-mode:lr-tb;fill:#000000;fill-opacity:1;fill-rule:nonzero;stroke:none"
           transform="translate(209.88,179.75)">
          <tspan
             id="tspan4705"
             sodipodi:role="line"
             y="0"
             x="0 5.0040002">50</tspan>
        </text>
        <path
           inkscape:connector-curvature="0"
           id="path4709"
           style="fill:none;stroke:#000000;stroke-width:1;stroke-linecap:butt;stroke-linejoin:miter;stroke-miterlimit:10;stroke-dasharray:none;stroke-opacity:1"
           d="m 271.62,168 v -7.25" />
        <text
           id="text4713"
           style="font-variant:normal;font-weight:normal;font-size:9px;font-family:Helvetica;-inkscape-font-specification:Helvetica;writing-mode:lr-tb;fill:#000000;fill-opacity:1;fill-rule:nonzero;stroke:none"
           transform="translate(264.12,179.75)">
          <tspan
             id="tspan4711"
             sodipodi:role="line"
             y="0"
             x="0 5.0040002 10.008">100</tspan>
        </text>
        <text
           id="text4717"
           style="font-variant:normal;font-weight:normal;font-size:9px;font-family:Helvetica;-inkscape-font-specification:Helvetica;writing-mode:lr-tb;fill:#000000;fill-opacity:1;fill-rule:nonzero;stroke:none"
           transform="translate(140.12,191.5)">
          <tspan
             id="tspan4715"
             sodipodi:role="line"
             y="0"
             x="0 4.5 7.0019999 9.5039997 11.502 16.506001 19.007999 26.504999 34.001999">k [lp/mm]</tspan>
        </text>
        <path
           inkscape:connector-curvature="0"
           id="path4719"
           style="fill:none;stroke:#ff0000;stroke-width:1;stroke-linecap:butt;stroke-linejoin:bevel;stroke-miterlimit:10;stroke-dasharray:none;stroke-opacity:1"
           d="m 44.88,159.75 h 1.12 1.12 1.13 1.13 1.12 1.12 1.13 1.25 1.12 1.13 1.13 1.12 1.12 1.13 1.13 1.12 1.12 1.13 1.13 1.12 1.12 1.26 1.12 1.12 1.13 1.13 1.12 1.12 1.13 1.13 1.12 1.12 1.13 1.13 1.12 1.25 1.13 1.12 1.12 1.13 1.13 1.12 1.12 1.13 1.13 1.12 1.12 1.13 1.13 1.24 1.13 1.13 1.12 1.12 l 1.13,-0.13 h 1.13 1.12 l 1.12,-0.12 h 1.13 l 1.13,-0.12 1.12,-0.13 1.12,-0.25 1.13,-0.12 1.13,-0.26 1.24,-0.37 1.13,-0.5 1.13,-0.5 1.12,-0.75 1.12,-0.75 1.13,-1 1.13,-1.25 1.12,-1.38 1.12,-1.74 1.13,-2 1.13,-2.38 1.12,-2.75 1.12,-3 1.13,-3.63 1.25,-3.87 1.12,-4.5 1.13,-4.87 1.13,-5.38 1.12,-5.88 1.12,-6.24 1.13,-6.63 1.13,-7.13 1.12,-7.24 1.12,-7.5 1.13,-7.63 1.13,-7.63 1.12,-7.5 1.12,-7.24 1.26,-7 1.12,-6.5 1.12,-5.88 1.13,-5.25 1.13,-4.37 1.12,-3.63 1.12,-2.5 1.13,-1.63 v -0.5 l 1.13,0.5 1.12,1.63 1.12,2.5 1.13,3.63 1.13,4.37 1.12,5.25 1.12,5.88 1.26,6.5 1.12,7 1.12,7.24 1.13,7.5 1.13,7.63 1.12,7.63 1.12,7.5 1.13,7.24 1.13,7.13 1.12,6.63 1.12,6.24 1.13,5.88 1.13,5.38 1.12,4.87 1.25,4.5 1.13,3.87 1.12,3.63 1.12,3 1.13,2.75 1.13,2.38 1.12,2 1.12,1.74 1.13,1.38 1.13,1.25 1.12,1 1.12,0.75 1.13,0.75 1.13,0.5 1.24,0.5 1.13,0.37 1.13,0.26 1.12,0.12 1.12,0.25 1.13,0.13 1.13,0.12 H 207 l 1.12,0.12 h 1.13 1.13 l 1.12,0.13 h 1.12 1.13 1.25 1.12 1.13 1.13 1.12 1.12 1.13 1.13 1.12 1.12 1.13 1.13 1.12 1.12 1.13 1.25 1.12 1.13 1.13 1.12 1.12 1.13 1.13 1.12 1.12 1.13 1.13 1.12 1.12 1.26 1.12 1.12 1.13 1.13 1.12 1.12 1.13 1.13 1.12 1.12 1.13 1.13 1.12 1.25 1.13 1.12 1.12 1.13 1.13 1.12 1.12 v 0" />
      </g>
    </g>
    <text
       id="text4771"
       y="226.25972"
       x="1.462923"
       style="font-style:normal;font-variant:normal;font-weight:normal;font-stretch:normal;font-size:3.17499995px;line-height:6.40291691px;font-family:Arial;-inkscape-font-specification:'Arial, Normal';text-align:start;letter-spacing:0px;word-spacing:0px;writing-mode:lr-tb;text-anchor:start;fill:#000000;fill-opacity:1;stroke:none;stroke-width:0.26458332px;stroke-linecap:butt;stroke-linejoin:miter;stroke-opacity:1"
       xml:space="preserve"><tspan
         style="font-weight:bold;font-size:4.23333311px;stroke-width:0.26458332px"
         y="226.25972"
         x="1.462923"
         id="tspan4769"
         sodipodi:role="line">a)</tspan></text>
    <text
       xml:space="preserve"
       style="font-style:normal;font-variant:normal;font-weight:normal;font-stretch:normal;font-size:3.17499995px;line-height:6.40291691px;font-family:Arial;-inkscape-font-specification:'Arial, Normal';text-align:start;letter-spacing:0px;word-spacing:0px;writing-mode:lr-tb;text-anchor:start;fill:#000000;fill-opacity:1;stroke:none;stroke-width:0.26458332px;stroke-linecap:butt;stroke-linejoin:miter;stroke-opacity:1"
       x="75.863007"
       y="226.25972"
       id="text4767"><tspan
         sodipodi:role="line"
         id="tspan4765"
         x="75.863007"
         y="226.25972"
         style="font-weight:bold;font-size:4.23333311px;stroke-width:0.26458332px">b)</tspan></text>
  </g>
</svg>
